<svg width="23" height="20" viewBox="0 0 23 20" fill="none" xmlns="http://www.w3.org/2000/svg">
<path d="M20.9091 3.63636H2.72727C2.48617 3.63636 2.25494 3.54058 2.08445 3.3701C1.91396 3.19961 1.81818 2.96838 1.81818 2.72727C1.81818 2.48617 1.91396 2.25494 2.08445 2.08445C2.25494 1.91396 2.48617 1.81818 2.72727 1.81818H18.1818C18.4229 1.81818 18.6542 1.7224 18.8246 1.55192C18.9951 1.38143 19.0909 1.1502 19.0909 0.909091C19.0909 0.667985 18.9951 0.436754 18.8246 0.266267C18.6542 0.0957791 18.4229 0 18.1818 0H2.72727C2.00395 0 1.31026 0.287337 0.7988 0.7988C0.287337 1.31026 0 2.00396 0 2.72727V17.2727C0 17.996 0.287337 18.6897 0.7988 19.2012C1.31026 19.7127 2.00395 20 2.72727 20H20.9091C21.3913 20 21.8538 19.8084 22.1947 19.4675C22.5357 19.1265 22.7273 18.664 22.7273 18.1818V5.45455C22.7273 4.97233 22.5357 4.50987 22.1947 4.1689C21.8538 3.82792 21.3913 3.63636 20.9091 3.63636ZM20.9091 18.1818H2.72727C2.48617 18.1818 2.25494 18.086 2.08445 17.9156C1.91396 17.7451 1.81818 17.5138 1.81818 17.2727V5.29886C2.11009 5.40234 2.41757 5.455 2.72727 5.45455H20.9091V18.1818ZM15.4545 11.3636C15.4545 11.0939 15.5345 10.8303 15.6844 10.606C15.8342 10.3818 16.0472 10.207 16.2963 10.1038C16.5455 10.0006 16.8197 9.97359 17.0842 10.0262C17.3487 10.0788 17.5917 10.2087 17.7824 10.3994C17.9731 10.5901 18.103 10.8331 18.1556 11.0976C18.2082 11.3621 18.1812 11.6363 18.078 11.8855C17.9748 12.1346 17.8 12.3476 17.5758 12.4975C17.3515 12.6473 17.0879 12.7273 16.8182 12.7273C16.4565 12.7273 16.1097 12.5836 15.8539 12.3279C15.5982 12.0721 15.4545 11.7253 15.4545 11.3636Z" fill="#142D6F"/>
</svg>
