<svg width="27" height="16" viewBox="0 0 27 16" fill="none" xmlns="http://www.w3.org/2000/svg">
<path d="M13.165 3.61166C12.2971 3.61166 11.4486 3.86904 10.727 4.35123C10.0053 4.83343 9.44285 5.51879 9.11071 6.32066C8.77857 7.12252 8.69166 8.00487 8.86099 8.85612C9.03031 9.70737 9.44826 10.4893 10.062 11.103C10.6757 11.7167 11.4576 12.1347 12.3089 12.304C13.1601 12.4733 14.0425 12.3864 14.8443 12.0543C15.6462 11.7221 16.3316 11.1597 16.8138 10.438C17.296 9.71637 17.5533 8.86793 17.5533 8C17.5533 6.83614 17.091 5.71995 16.268 4.89698C15.445 4.07401 14.3289 3.61166 13.165 3.61166ZM13.165 10.633C12.6442 10.633 12.1352 10.4786 11.7022 10.1893C11.2692 9.89994 10.9317 9.48872 10.7324 9.0076C10.5331 8.52648 10.481 7.99708 10.5826 7.48632C10.6842 6.97557 10.935 6.50642 11.3032 6.13819C11.6714 5.76995 12.1406 5.51918 12.6513 5.41759C13.1621 5.31599 13.6915 5.36814 14.1726 5.56742C14.6537 5.76671 15.0649 6.10419 15.3543 6.53718C15.6436 6.97018 15.798 7.47924 15.798 8C15.798 8.69831 15.5206 9.36803 15.0268 9.86181C14.533 10.3556 13.8633 10.633 13.165 10.633ZM25.4523 0.100998H0.877667C0.644895 0.100998 0.421657 0.193466 0.257063 0.358061C0.0924681 0.522655 0 0.745893 0 0.978665V15.0213C0 15.2541 0.0924681 15.4773 0.257063 15.6419C0.421657 15.8065 0.644895 15.899 0.877667 15.899H25.4523C25.6851 15.899 25.9083 15.8065 26.0729 15.6419C26.2375 15.4773 26.33 15.2541 26.33 15.0213V0.978665C26.33 0.745893 26.2375 0.522655 26.0729 0.358061C25.9083 0.193466 25.6851 0.100998 25.4523 0.100998ZM20.3674 14.1437H5.96265C5.66798 13.1471 5.12865 12.24 4.3938 11.5052C3.65895 10.7703 2.75192 10.231 1.75533 9.93635V6.06365C2.75192 5.76897 3.65895 5.22965 4.3938 4.4948C5.12865 3.75995 5.66798 2.85292 5.96265 1.85633H20.3674C20.662 2.85292 21.2013 3.75995 21.9362 4.4948C22.6711 5.22965 23.5781 5.76897 24.5747 6.06365V9.93635C23.5781 10.231 22.6711 10.7703 21.9362 11.5052C21.2013 12.24 20.662 13.1471 20.3674 14.1437ZM24.5747 4.2008C23.5219 3.74813 22.6829 2.90905 22.2302 1.85633H24.5747V4.2008ZM4.0998 1.85633C3.64714 2.90905 2.80805 3.74813 1.75533 4.2008V1.85633H4.0998ZM1.75533 11.7992C2.80805 12.2519 3.64714 13.0909 4.0998 14.1437H1.75533V11.7992ZM22.2302 14.1437C22.6829 13.0909 23.5219 12.2519 24.5747 11.7992V14.1437H22.2302Z" fill="#142D6F"/>
</svg>
