<svg width="21" height="20" viewBox="0 0 21 20" fill="none" xmlns="http://www.w3.org/2000/svg">
<path d="M10.7275 0C8.74973 0 6.81633 0.58649 5.17184 1.6853C3.52735 2.78412 2.24562 4.3459 1.48875 6.17316C0.731872 8.00042 0.533839 10.0111 0.919691 11.9509C1.30554 13.8907 2.25795 15.6725 3.65648 17.0711C5.055 18.4696 6.83683 19.422 8.77664 19.8078C10.7164 20.1937 12.7271 19.9957 14.5544 19.2388C16.3816 18.4819 17.9434 17.2002 19.0422 15.5557C20.1411 13.9112 20.7275 11.9778 20.7275 10C20.7247 7.34869 19.6703 4.80678 17.7955 2.93202C15.9208 1.05727 13.3788 0.00279983 10.7275 0ZM10.7275 18.4615C9.05401 18.4615 7.41806 17.9653 6.02656 17.0355C4.63507 16.1057 3.55053 14.7842 2.9101 13.2381C2.26967 11.6919 2.1021 9.99061 2.42859 8.34923C2.75508 6.70786 3.56096 5.20016 4.74433 4.01679C5.9277 2.83342 7.4354 2.02754 9.07678 1.70105C10.7182 1.37456 12.4195 1.54212 13.9656 2.18256C15.5118 2.82299 16.8333 3.90753 17.7631 5.29902C18.6928 6.69051 19.1891 8.32646 19.1891 10C19.1865 12.2434 18.2942 14.3941 16.7079 15.9804C15.1216 17.5667 12.9709 18.459 10.7275 18.4615ZM14.5737 11.9231C14.5737 12.6371 14.29 13.3219 13.7851 13.8268C13.2802 14.3317 12.5954 14.6154 11.8814 14.6154H11.4968V15.3846C11.4968 15.5886 11.4157 15.7843 11.2715 15.9285C11.1272 16.0728 10.9316 16.1538 10.7275 16.1538C10.5235 16.1538 10.3279 16.0728 10.1836 15.9285C10.0394 15.7843 9.95831 15.5886 9.95831 15.3846V14.6154H8.41985C8.21584 14.6154 8.02018 14.5343 7.87592 14.3901C7.73166 14.2458 7.65062 14.0502 7.65062 13.8462C7.65062 13.6421 7.73166 13.4465 7.87592 13.3022C8.02018 13.158 8.21584 13.0769 8.41985 13.0769H11.8814C12.1874 13.0769 12.4809 12.9554 12.6973 12.739C12.9137 12.5226 13.0352 12.2291 13.0352 11.9231C13.0352 11.6171 12.9137 11.3236 12.6973 11.1072C12.4809 10.8908 12.1874 10.7692 11.8814 10.7692H9.5737C8.85965 10.7692 8.17485 10.4856 7.66995 9.98067C7.16504 9.47576 6.88139 8.79097 6.88139 8.07692C6.88139 7.36288 7.16504 6.67808 7.66995 6.17317C8.17485 5.66827 8.85965 5.38461 9.5737 5.38461H9.95831V4.61538C9.95831 4.41137 10.0394 4.21571 10.1836 4.07146C10.3279 3.9272 10.5235 3.84615 10.7275 3.84615C10.9316 3.84615 11.1272 3.9272 11.2715 4.07146C11.4157 4.21571 11.4968 4.41137 11.4968 4.61538V5.38461H13.0352C13.2392 5.38461 13.4349 5.46566 13.5792 5.60992C13.7234 5.75418 13.8045 5.94983 13.8045 6.15384C13.8045 6.35786 13.7234 6.55351 13.5792 6.69777C13.4349 6.84203 13.2392 6.92308 13.0352 6.92308H9.5737C9.26768 6.92308 8.97419 7.04464 8.7578 7.26103C8.54141 7.47742 8.41985 7.7709 8.41985 8.07692C8.41985 8.38294 8.54141 8.67643 8.7578 8.89281C8.97419 9.1092 9.26768 9.23077 9.5737 9.23077H11.8814C12.5954 9.23077 13.2802 9.51442 13.7851 10.0193C14.29 10.5242 14.5737 11.209 14.5737 11.9231Z" fill="#142D6F"/>
</svg>
