<svg width="26" height="20" viewBox="0 0 26 20" fill="none" xmlns="http://www.w3.org/2000/svg">
<path d="M2.50167 8.33303H5.00174V14.9999H3.33503C3.11401 14.9999 2.90204 15.0877 2.74575 15.244C2.58947 15.4002 2.50167 15.6122 2.50167 15.8332C2.50167 16.0542 2.58947 16.2662 2.74575 16.4225C2.90204 16.5788 3.11401 16.6666 3.33503 16.6666H23.3355C23.5566 16.6666 23.7685 16.5788 23.9248 16.4225C24.0811 16.2662 24.1689 16.0542 24.1689 15.8332C24.1689 15.6122 24.0811 15.4002 23.9248 15.244C23.7685 15.0877 23.5566 14.9999 23.3355 14.9999H21.6688V8.33303H24.1689C24.3502 8.33285 24.5265 8.27353 24.6711 8.16408C24.8157 8.05463 24.9206 7.90102 24.9699 7.72654C25.0193 7.55207 25.0104 7.36626 24.9446 7.19729C24.8788 7.02833 24.7597 6.88543 24.6054 6.79028L13.7718 0.123443C13.6405 0.0427307 13.4894 0 13.3353 0C13.1812 0 13.0301 0.0427307 12.8988 0.123443L2.0652 6.79028C1.91085 6.88543 1.79175 7.02833 1.72595 7.19729C1.66016 7.36626 1.65127 7.55207 1.70063 7.72654C1.74999 7.90102 1.85491 8.05463 1.99947 8.16408C2.14403 8.27353 2.32035 8.33285 2.50167 8.33303ZM6.66845 8.33303H10.0019V14.9999H6.66845V8.33303ZM15.002 8.33303V14.9999H11.6686V8.33303H15.002ZM20.0021 14.9999H16.6687V8.33303H20.0021V14.9999ZM13.3353 1.81099L21.2251 6.66632H5.4455L13.3353 1.81099ZM25.8356 19.1666C25.8356 19.3877 25.7478 19.5996 25.5915 19.7559C25.4352 19.9122 25.2233 20 25.0023 20H1.66832C1.4473 20 1.23533 19.9122 1.07904 19.7559C0.922761 19.5996 0.834961 19.3877 0.834961 19.1666C0.834961 18.9456 0.922761 18.7337 1.07904 18.5774C1.23533 18.4211 1.4473 18.3333 1.66832 18.3333H25.0023C25.2233 18.3333 25.4352 18.4211 25.5915 18.5774C25.7478 18.7337 25.8356 18.9456 25.8356 19.1666Z" fill="#142D6F"/>
</svg>
