<svg width="28" height="22" viewBox="0 0 28 22" fill="none" xmlns="http://www.w3.org/2000/svg">
<path d="M26.7221 13.4131C26.3809 13.1507 25.9839 12.9704 25.5618 12.8864C25.1397 12.8023 24.7039 12.8167 24.2883 12.9284L19.4941 14.0307C19.6057 13.5596 19.6091 13.0692 19.5042 12.5965C19.3993 12.1239 19.1888 11.681 18.8884 11.3013C18.588 10.9215 18.2056 10.6147 17.7697 10.4038C17.3339 10.1928 16.8559 10.0833 16.3717 10.0833H10.6357C10.154 10.0821 9.67682 10.1764 9.23175 10.3607C8.78668 10.5449 8.38254 10.8156 8.04268 11.157L5.45081 13.75H2.16341C1.67718 13.75 1.21087 13.9432 0.867049 14.287C0.523232 14.6308 0.330078 15.0971 0.330078 15.5833L0.330078 20.1667C0.330078 20.6529 0.523232 21.1192 0.867049 21.463C1.21087 21.8068 1.67718 22 2.16341 22H14.0801C14.155 22 14.2297 21.9908 14.3024 21.9725L21.6357 20.1392C21.6824 20.128 21.7281 20.1127 21.7721 20.0933L26.2259 18.1981L26.2763 18.1752C26.7044 17.9613 27.0709 17.642 27.3414 17.2473C27.612 16.8526 27.7775 16.3955 27.8226 15.9191C27.8676 15.4427 27.7907 14.9627 27.5989 14.5243C27.4072 14.0859 27.107 13.7035 26.7266 13.4131H26.7221ZM2.16341 15.5833H4.91341V20.1667H2.16341V15.5833ZM25.4731 16.5241L21.1189 18.378L13.9655 20.1667H6.74674V15.0459L9.33976 12.4541C9.50939 12.2831 9.71131 12.1475 9.93378 12.0553C10.1563 11.963 10.3949 11.9159 10.6357 11.9167H16.3717C16.7364 11.9167 17.0862 12.0615 17.344 12.3194C17.6019 12.5773 17.7467 12.927 17.7467 13.2917C17.7467 13.6563 17.6019 14.0061 17.344 14.2639C17.0862 14.5218 16.7364 14.6667 16.3717 14.6667H13.1634C12.9203 14.6667 12.6871 14.7632 12.5152 14.9352C12.3433 15.1071 12.2467 15.3402 12.2467 15.5833C12.2467 15.8264 12.3433 16.0596 12.5152 16.2315C12.6871 16.4034 12.9203 16.5 13.1634 16.5H16.8301C16.8991 16.4998 16.9678 16.4921 17.0352 16.4771L24.7123 14.7114L24.7478 14.7022C24.9821 14.6371 25.2323 14.661 25.4501 14.7693C25.6679 14.8776 25.8379 15.0626 25.9275 15.2887C26.0171 15.5148 26.0199 15.7661 25.9354 15.9941C25.8509 16.2222 25.685 16.411 25.4697 16.5241H25.4731ZM19.1217 8.25C19.3482 8.25026 19.5743 8.23186 19.7978 8.195C20.0491 8.94156 20.509 9.60055 21.123 10.094C21.737 10.5875 22.4794 10.8949 23.2626 10.9798C24.0457 11.0647 24.8368 10.9236 25.5423 10.5732C26.2478 10.2227 26.8382 9.67759 27.2437 9.00224C27.6492 8.32689 27.8528 7.54955 27.8305 6.76214C27.8082 5.97472 27.561 5.21014 27.1179 4.55881C26.6749 3.90748 26.0546 3.39662 25.3304 3.08664C24.6062 2.77666 23.8084 2.68052 23.0313 2.80958C22.7893 2.09028 22.3536 1.45169 21.772 0.964079C21.1905 0.47647 20.4857 0.158747 19.7352 0.045877C18.9847 -0.0669931 18.2176 0.0293645 17.5184 0.324346C16.8191 0.619327 16.2148 1.1015 15.7719 1.71779C15.329 2.33409 15.0648 3.06062 15.0082 3.81743C14.9516 4.57424 15.1049 5.332 15.4512 6.0073C15.7975 6.6826 16.3234 7.24928 16.971 7.64497C17.6186 8.04065 18.3628 8.25001 19.1217 8.25ZM25.9967 6.875C25.9967 7.32825 25.8623 7.77132 25.6105 8.14818C25.3587 8.52505 25.0008 8.81877 24.5821 8.99222C24.1633 9.16568 23.7025 9.21106 23.258 9.12263C22.8135 9.03421 22.4051 8.81595 22.0846 8.49545C21.7641 8.17496 21.5459 7.76662 21.4574 7.32208C21.369 6.87754 21.4144 6.41677 21.5879 5.99802C21.7613 5.57927 22.055 5.22136 22.4319 4.96955C22.8088 4.71774 23.2518 4.58333 23.7051 4.58333C24.3129 4.58333 24.8958 4.82478 25.3255 5.25455C25.7553 5.68432 25.9967 6.26721 25.9967 6.875ZM19.1217 1.83333C19.6217 1.83359 20.1078 1.99731 20.506 2.29955C20.9043 2.60179 21.1927 3.02596 21.3275 3.5074C20.858 3.83774 20.4626 4.26243 20.1667 4.75431C19.8707 5.24619 19.6807 5.79443 19.6087 6.36396C19.4487 6.39852 19.2855 6.41618 19.1217 6.41667C18.514 6.41667 17.9311 6.17522 17.5013 5.74545C17.0715 5.31568 16.8301 4.73279 16.8301 4.125C16.8301 3.51721 17.0715 2.93432 17.5013 2.50455C17.9311 2.07478 18.514 1.83333 19.1217 1.83333Z" fill="#142D6F"/>
</svg>
