<svg width="28" height="20" viewBox="0 0 28 20" fill="none" xmlns="http://www.w3.org/2000/svg">
<path d="M20.7275 5.63295V5C20.7275 2.15 16.4287 0 10.7275 0C5.0264 0 0.727539 2.15 0.727539 5V9.54545C0.727539 11.9193 3.71049 13.8057 8.00027 14.3705V15C8.00027 17.85 12.2991 20 18.0003 20C23.7014 20 28.0003 17.85 28.0003 15V10.4545C28.0003 8.10227 25.1116 6.21364 20.7275 5.63295ZM26.1821 10.4545C26.1821 11.9568 22.6832 13.6364 18.0003 13.6364C17.5764 13.6364 17.1559 13.6216 16.7412 13.5943C19.1923 12.7011 20.7275 11.25 20.7275 9.54545V7.47045C24.1219 7.97614 26.1821 9.34886 26.1821 10.4545ZM8.00027 12.5284V9.825C8.90456 9.94283 9.8156 10.0013 10.7275 10C11.6395 10.0013 12.5505 9.94283 13.4548 9.825V12.5284C12.5519 12.6618 11.6403 12.7283 10.7275 12.7273C9.81479 12.7283 8.90322 12.6618 8.00027 12.5284ZM18.9094 7.94659V9.54545C18.9094 10.4989 17.4991 11.5227 15.273 12.1443V9.48864C16.74 9.13295 17.9821 8.60341 18.9094 7.94659ZM10.7275 1.81818C15.4105 1.81818 18.9094 3.49773 18.9094 5C18.9094 6.50227 15.4105 8.18182 10.7275 8.18182C6.04458 8.18182 2.54572 6.50227 2.54572 5C2.54572 3.49773 6.04458 1.81818 10.7275 1.81818ZM2.54572 9.54545V7.94659C3.47299 8.60341 4.71504 9.13295 6.18208 9.48864V12.1443C3.95595 11.5227 2.54572 10.4989 2.54572 9.54545ZM9.81845 15V14.5261C10.1173 14.5375 10.4196 14.5455 10.7275 14.5455C11.1684 14.5455 11.5991 14.5307 12.0219 14.5057C12.4915 14.6738 12.9698 14.8164 13.4548 14.933V17.5989C11.2287 16.9773 9.81845 15.9534 9.81845 15ZM15.273 17.983V15.2727C16.177 15.3942 17.0881 15.455 18.0003 15.4545C18.9122 15.4558 19.8232 15.3974 20.7275 15.2795V17.983C18.919 18.2481 17.0815 18.2481 15.273 17.983ZM22.5457 17.5989V14.9432C24.0128 14.5875 25.2548 14.058 26.1821 13.4011V15C26.1821 15.9534 24.7719 16.9773 22.5457 17.5989Z" fill="#142D6F"/>
</svg>
