<svg width="30" height="30" viewBox="0 0 30 30" fill="none" xmlns="http://www.w3.org/2000/svg">
<circle cx="15" cy="15" r="15" fill="#A3BDFF"/>
<path d="M15 27C15.7826 27 16.424 26.4245 16.5326 25.61C17.6087 18.3557 18.5978 17.3457 25.5762 16.553C26.3804 16.4552 27 15.782 27 15.0001C27 14.2072 26.3913 13.5557 25.587 13.4362C18.6522 12.4697 17.7935 11.6226 16.5326 4.37925C16.3913 3.57561 15.7717 3 15 3C14.2066 3 13.576 3.57561 13.4457 4.39005C12.3913 11.6335 11.4022 12.6435 4.43477 13.4362C3.60868 13.5449 3 14.1964 3 15.0001C3 15.782 3.58695 16.4335 4.41304 16.553C11.3586 17.5412 12.2065 18.3774 13.4457 25.6209C13.6087 26.4353 14.2391 27 15 27Z" fill="#142D6F"/>
</svg>
