<svg width="18" height="16" viewBox="0 0 18 16" fill="none" xmlns="http://www.w3.org/2000/svg">
<path d="M17.7796 8.53059L11.03 15.2802C10.8893 15.4209 10.6984 15.5 10.4994 15.5C10.3004 15.5 10.1095 15.4209 9.96882 15.2802C9.8281 15.1395 9.74904 14.9486 9.74904 14.7496C9.74904 14.5506 9.8281 14.3598 9.96882 14.219L15.4388 8.74996H0.749958C0.551057 8.74996 0.360302 8.67095 0.219658 8.5303C0.0790134 8.38966 0 8.1989 0 8C0 7.8011 0.0790134 7.61034 0.219658 7.4697C0.360302 7.32905 0.551057 7.25004 0.749958 7.25004H15.4388L9.96882 1.78097C9.8281 1.64025 9.74904 1.44939 9.74904 1.25038C9.74904 1.05136 9.8281 0.860502 9.96882 0.71978C10.1095 0.579057 10.3004 0.5 10.4994 0.5C10.6984 0.5 10.8893 0.579057 11.03 0.71978L17.7796 7.4694C17.8494 7.53905 17.9047 7.62177 17.9424 7.71281C17.9802 7.80385 17.9996 7.90144 17.9996 8C17.9996 8.09856 17.9802 8.19615 17.9424 8.28719C17.9047 8.37823 17.8494 8.46094 17.7796 8.53059Z" fill="#142D6F"/>
</svg>
