<svg width="54" height="55" viewBox="0 0 54 55" fill="none" xmlns="http://www.w3.org/2000/svg">
<path d="M0 14.5524V40.4476C0 48.4932 6.34808 55 14.1974 55H39.4611C47.3105 55 53.6585 48.4932 53.6585 40.4476V14.5524C53.6585 6.5068 47.3105 0 39.4611 0H14.1974C6.34808 0.0439648 0 6.55076 0 14.5524ZM14.2403 51.3509C8.32113 51.3509 3.51717 46.4269 3.51717 40.3597C3.51717 34.2926 8.32113 29.3685 14.2403 29.3685C20.1595 29.3685 24.9634 34.2926 24.9634 40.3597C24.9634 46.4269 20.1595 51.3509 14.2403 51.3509ZM14.2403 25.6315C8.32113 25.6315 3.51717 20.7074 3.51717 14.6403C3.51717 8.57314 8.32113 3.64908 14.2403 3.64908C20.1595 3.64908 24.9634 8.57314 24.9634 14.6403C24.9634 20.7074 20.1595 25.6315 14.2403 25.6315ZM39.3324 51.3509C33.4133 51.3509 28.6093 46.4269 28.6093 40.3597C28.6093 34.2926 33.4133 29.3685 39.3324 29.3685C45.2516 29.3685 50.0556 34.2926 50.0556 40.3597C50.0556 46.4269 45.2516 51.3509 39.3324 51.3509ZM39.3324 25.6315C33.4133 25.6315 28.6093 20.7074 28.6093 14.6403C28.6093 8.57314 33.4133 3.64908 39.3324 3.64908C45.2516 3.64908 50.0556 8.57314 50.0556 14.6403C50.0556 20.7074 45.2516 25.6315 39.3324 25.6315Z" fill="#0078D7"/>
</svg>
