<svg width="50" height="50" viewBox="0 0 50 50" fill="none" xmlns="http://www.w3.org/2000/svg">
<path d="M25 7.84C34.44 7.84 42.16 15.52 42.16 25C42.16 34.48 34.48 42.16 25 42.16C15.52 42.16 7.83999 34.48 7.83999 25C7.83999 15.52 15.52 7.84 25 7.84ZM25 0C11.2 0 0 11.2 0 25C0 38.8 11.2 50 25 50C38.8 50 50 38.8 50 25C50 11.2 38.8 0 25 0Z" fill="black"/>
<path d="M25 0C11.2 0 0 11.2 0 25H25V0Z" fill="black"/>
<path d="M24.999 49.9602C38.799 49.9602 49.999 38.7602 49.999 24.9602H24.999V49.9602Z" fill="black"/>
</svg>
