<svg width="60" height="60" viewBox="0 0 60 60" fill="none" xmlns="http://www.w3.org/2000/svg">
<g clip-path="url(#clip0_0_2749)">
<path d="M0 60L4.24068 44.6008C1.61891 40.0808 0.243553 34.962 0.257879 29.7291C0.257879 13.3318 13.6676 0 30.1289 0C38.1232 0 45.6303 3.09411 51.2607 8.71198C56.9054 14.3299 60.0143 21.8013 60 29.7434C60 46.1407 46.5902 59.4724 30.1146 59.4724H30.1003C25.1003 59.4724 20.1862 58.2177 15.8166 55.8508L0 60ZM16.5759 50.4753L17.4785 51.0171C21.2894 53.27 25.659 54.4534 30.1146 54.4677H30.1289C43.8109 54.4677 54.957 43.3888 54.957 29.7576C54.957 23.1559 52.3782 16.9534 47.6934 12.2766C43.0086 7.59981 36.7621 5.03327 30.1289 5.03327C16.447 5.01901 5.30086 16.0979 5.30086 29.7291C5.30086 34.3916 6.60458 38.9401 9.09741 42.8755L9.68481 43.8165L7.17764 52.9278L16.5759 50.4753Z" fill="white"/>
<path d="M1.0459 58.959L5.14332 44.0874C2.6075 39.7385 1.27512 34.7908 1.27512 29.7433C1.28945 13.9163 14.2264 1.04077 30.129 1.04077C37.851 1.04077 45.086 4.03507 50.5301 9.45332C55.9742 14.8716 58.9685 22.0864 58.9685 29.7575C58.9685 45.5845 46.0172 58.46 30.129 58.46H30.1146C25.2866 58.46 20.5445 57.248 16.3324 54.9666L1.0459 58.959Z" fill="url(#paint0_linear_0_2749)"/>
<path d="M0 60L4.24068 44.6008C1.61891 40.0808 0.243553 34.962 0.257879 29.7291C0.257879 13.3318 13.6676 0 30.1289 0C38.1232 0 45.6303 3.09411 51.2607 8.71198C56.9054 14.3299 60.0143 21.8013 60 29.7434C60 46.1407 46.5902 59.4724 30.1146 59.4724H30.1003C25.1003 59.4724 20.1862 58.2177 15.8166 55.8508L0 60ZM16.5759 50.4753L17.4785 51.0171C21.2894 53.27 25.659 54.4534 30.1146 54.4677H30.1289C43.8109 54.4677 54.957 43.3888 54.957 29.7576C54.957 23.1559 52.3782 16.9534 47.6934 12.2766C43.0086 7.59981 36.7621 5.03327 30.1289 5.03327C16.447 5.01901 5.30086 16.0979 5.30086 29.7291C5.30086 34.3916 6.60458 38.9401 9.09741 42.8755L9.68481 43.8165L7.17764 52.9278L16.5759 50.4753Z" fill="url(#paint1_linear_0_2749)"/>
</g>
<path fill-rule="evenodd" clip-rule="evenodd" d="M42.3975 29.661L30.5659 17.75L18.7344 29.661H30.4082L18.7344 41.4131H42.3975L30.7237 29.661H42.3975Z" fill="white"/>
<defs>
<linearGradient id="paint0_linear_0_2749" x1="30.0057" y1="58.9562" x2="30.0057" y2="1.03875" gradientUnits="userSpaceOnUse">
<stop stop-color="#20B038"/>
<stop offset="1" stop-color="#60D66A"/>
</linearGradient>
<linearGradient id="paint1_linear_0_2749" x1="30.0058" y1="59.9943" x2="30.0058" y2="0" gradientUnits="userSpaceOnUse">
<stop stop-color="#F9F9F9"/>
<stop offset="1" stop-color="white"/>
</linearGradient>
<clipPath id="clip0_0_2749">
<rect width="60" height="60" fill="white"/>
</clipPath>
</defs>
</svg>
