<svg width="50" height="50" viewBox="0 0 50 50" fill="none" xmlns="http://www.w3.org/2000/svg">
<path d="M0 0H22.9508V4.91808H0V0ZM0 9.01633H22.9508V13.9343H0V9.01633ZM0 18.0328V22.9507H22.9508V18.0328H0ZM45.0818 0H49.9999V22.9508H45.0818V0ZM36.0654 0H40.9834V22.9508H36.0654V0ZM27.0491 0V22.9507H31.9671V0H27.0491ZM27.0491 45.0819H49.9999V50H27.0491V45.0819ZM27.0491 36.0655H49.9999V40.9835H27.0491V36.0655ZM43.0328 27.0492H27.0491V31.9672H50V27.0492H43.0328ZM0 27.0492H4.91807V50H0V27.0492ZM9.01641 27.0492H13.9344V50H9.01641V27.0492ZM18.0327 27.0492V49.9999H22.9508V27.0492H18.0327Z" fill="#36C5F0"/>
<mask id="mask0_0_2718" style="mask-type:alpha" maskUnits="userSpaceOnUse" x="0" y="26" width="24" height="24">
<rect y="26.4104" width="23.5849" height="23.5849" fill="#D9D9D9"/>
</mask>
<g mask="url(#mask0_0_2718)">
<path d="M0 -0.00561523H22.9508V4.91246H0V-0.00561523ZM0 9.01071H22.9508V13.9287H0V9.01071ZM0 18.0271V22.9451H22.9508V18.0271H0ZM45.0818 -0.00561523H49.9999V22.9452H45.0818V-0.00561523ZM36.0654 -0.00561523H40.9834V22.9452H36.0654V-0.00561523ZM27.0491 -0.00561523V22.9451H31.9671V-0.00561523H27.0491ZM27.0491 45.0763H49.9999V49.9944H27.0491V45.0763ZM27.0491 36.0599H49.9999V40.9779H27.0491V36.0599ZM43.0328 27.0436H27.0491V31.9615H50V27.0436H43.0328ZM0 27.0436H4.91807V49.9944H0V27.0436ZM9.01641 27.0436H13.9344V49.9944H9.01641V27.0436ZM18.0327 27.0436V49.9943H22.9508V27.0436H18.0327Z" fill="#E01E5A"/>
</g>
<mask id="mask1_0_2718" style="mask-type:alpha" maskUnits="userSpaceOnUse" x="0" y="0" width="50" height="50">
<path d="M0 0H22.9508V4.91808H0V0ZM0 9.01633H22.9508V13.9343H0V9.01633ZM0 18.0328V22.9507H22.9508V18.0328H0ZM45.0818 0H49.9999V22.9508H45.0818V0ZM36.0654 0H40.9834V22.9508H36.0654V0ZM27.0491 0V22.9507H31.9671V0H27.0491ZM27.0491 45.0819H49.9999V50H27.0491V45.0819ZM27.0491 36.0655H49.9999V40.9835H27.0491V36.0655ZM43.0328 27.0492H27.0491V31.9672H50V27.0492H43.0328ZM0 27.0492H4.91807V50H0V27.0492ZM9.01641 27.0492H13.9344V50H9.01641V27.0492ZM18.0327 27.0492V49.9999H22.9508V27.0492H18.0327Z" fill="black"/>
</mask>
<g mask="url(#mask1_0_2718)">
<rect x="26.416" width="23.5849" height="23.5849" fill="#2EB67D"/>
</g>
<mask id="mask2_0_2718" style="mask-type:alpha" maskUnits="userSpaceOnUse" x="0" y="0" width="50" height="50">
<path d="M0 0H22.9508V4.91808H0V0ZM0 9.01633H22.9508V13.9343H0V9.01633ZM0 18.0328V22.9507H22.9508V18.0328H0ZM45.0818 0H49.9999V22.9508H45.0818V0ZM36.0654 0H40.9834V22.9508H36.0654V0ZM27.0491 0V22.9507H31.9671V0H27.0491ZM27.0491 45.0819H49.9999V50H27.0491V45.0819ZM27.0491 36.0655H49.9999V40.9835H27.0491V36.0655ZM43.0328 27.0492H27.0491V31.9672H50V27.0492H43.0328ZM0 27.0492H4.91807V50H0V27.0492ZM9.01641 27.0492H13.9344V50H9.01641V27.0492ZM18.0327 27.0492V49.9999H22.9508V27.0492H18.0327Z" fill="black"/>
</mask>
<g mask="url(#mask2_0_2718)">
<rect x="26.416" y="26.416" width="23.5849" height="23.5849" fill="#ECB22E"/>
</g>
</svg>
