<svg width="55" height="55" viewBox="0 0 55 55" fill="none" xmlns="http://www.w3.org/2000/svg">
<g clip-path="url(#clip0_0_2712)">
<path fill-rule="evenodd" clip-rule="evenodd" d="M27.5 -0.00244141C12.0106 -0.00244141 0 11.3482 0 26.6726C0 34.6888 3.28625 41.6188 8.635 46.4038C9.08188 46.8026 9.35688 47.3663 9.37063 47.9713L9.52188 52.8663C9.57 54.4269 11.1787 55.4444 12.6087 54.8119L18.0675 52.4057C18.5281 52.1994 19.0506 52.1651 19.5388 52.2957C22.0481 52.9832 24.7156 53.3544 27.5 53.3544C42.9894 53.3544 55 42.0038 55 26.6794C55 11.3551 42.9894 -0.00244141 27.5 -0.00244141Z" fill="url(#paint0_radial_0_2712)"/>
</g>
<path d="M36.4054 42.2984H18.3024C16.0782 42.2984 14.2764 40.4398 14.2764 38.1457C14.2764 35.8515 16.0782 33.9929 18.3024 33.9929H36.4054C38.6296 33.9929 40.4314 35.8515 40.4314 38.1457C40.4314 40.4398 38.6296 42.2984 36.4054 42.2984Z" fill="white"/>
<path d="M40.9385 34.1961C39.5589 34.1961 38.2075 33.4411 37.4474 32.1343L28.4099 15.988C27.3119 14.0133 27.9595 11.4577 29.8739 10.3252C31.7884 9.19261 34.266 9.86054 35.364 11.8353L44.4014 27.9815C45.4994 29.9563 44.8519 32.5118 42.9374 33.6444C42.2899 34.0219 41.6142 34.1961 40.9385 34.1961Z" fill="white"/>
<path d="M13.7702 34.1963C13.0945 34.1963 12.3906 34.0221 11.7712 33.6446C9.85675 32.512 9.18105 29.9565 10.3072 27.9818L19.3446 11.8355C20.4427 9.86075 22.9202 9.16378 24.8347 10.3254C26.7492 11.4579 27.4249 14.0135 26.2987 15.9882L17.2613 32.1345C16.5293 33.4413 15.1779 34.1963 13.7702 34.1963Z" fill="white"/>
<defs>
<radialGradient id="paint0_radial_0_2712" cx="0" cy="0" r="1" gradientUnits="userSpaceOnUse" gradientTransform="translate(10.5875 54.7072) scale(59.928 59.928)">
<stop stop-color="#0099FF"/>
<stop offset="0.6098" stop-color="#A033FF"/>
<stop offset="0.9348" stop-color="#FF5280"/>
<stop offset="1" stop-color="#FF7061"/>
</radialGradient>
<clipPath id="clip0_0_2712">
<rect width="55" height="55" fill="white"/>
</clipPath>
</defs>
</svg>
