<svg width="60" height="60" viewBox="0 0 60 60" fill="none" xmlns="http://www.w3.org/2000/svg">
<path d="M30 3.75C15.5215 3.75 3.75 15.5215 3.75 30C3.75 44.4785 15.5215 56.25 30 56.25C44.4785 56.25 56.25 44.4785 56.25 30C56.25 15.5215 44.4785 3.75 30 3.75Z" fill="#FDDD4C"/>
<path fill-rule="evenodd" clip-rule="evenodd" d="M33.5237 44.3691H27.6079V28.643C27.6079 27.0638 26.2836 25.7837 24.65 25.7837C23.0164 25.7837 21.6922 27.0638 21.6922 28.643V44.3691H15.7764V30.0727C15.7764 22.177 22.3978 15.7762 30.5658 15.7762C38.7338 15.7762 45.3553 22.177 45.3553 30.0727V44.3691H39.4395V28.643C39.4395 27.0638 38.1153 25.7837 36.4816 25.7837C34.848 25.7837 33.5237 27.0638 33.5237 28.643V44.3691Z" fill="black"/>
</svg>
