<svg width="57" height="55" viewBox="0 0 57 55" fill="none" xmlns="http://www.w3.org/2000/svg">
<path fill-rule="evenodd" clip-rule="evenodd" d="M30.4803 0H26.4162V17.3946L19.6754 1.2666L15.9073 2.73827L22.8228 19.2841L9.76917 6.66559L6.89546 9.44353L19.4068 21.5378L3.19306 14.69L1.56596 18.2899L18.722 25.5357H0V29.4643H18.7219L1.56597 36.71L3.19306 40.3101L19.4067 33.4623L6.89546 45.5565L9.76917 48.3343L22.8228 35.7159L15.9073 52.2618L19.6754 53.7333L26.4162 37.6054V55H30.4803V37.6054L37.2211 53.7333L40.9891 52.2618L34.0739 35.7159L47.1274 48.3343L50.001 45.5565L37.4897 33.4623L53.7035 40.3101L55.3305 36.71L38.1747 29.4643H56.8965V25.5357H38.1744L55.3305 18.2899L53.7035 14.69L37.4897 21.5378L50.001 9.4435L47.1274 6.66559L34.0739 19.284L40.9891 2.73827L37.2211 1.2666L30.4803 17.3946V0Z" fill="#FF4A00"/>
</svg>
