<svg width="24" height="24" viewBox="0 0 24 24" fill="none" xmlns="http://www.w3.org/2000/svg">
<rect width="24" height="24" rx="12" fill="#A3BDFF"/>
<path d="M18.6099 8.34847L10.1905 16.7678C10.1172 16.8414 10.03 16.8998 9.93408 16.9397C9.83814 16.9795 9.73527 17 9.63139 17C9.5275 17 9.42464 16.9795 9.3287 16.9397C9.23275 16.8998 9.14562 16.8414 9.07229 16.7678L5.38881 13.0844C5.31539 13.0109 5.25715 12.9238 5.21741 12.8279C5.17768 12.7319 5.15723 12.6291 5.15723 12.5253C5.15723 12.4214 5.17768 12.3186 5.21741 12.2227C5.25715 12.1268 5.31539 12.0396 5.38881 11.9662C5.46223 11.8927 5.5494 11.8345 5.64533 11.7948C5.74126 11.755 5.84408 11.7346 5.94791 11.7346C6.05175 11.7346 6.15456 11.755 6.25049 11.7948C6.34642 11.8345 6.43359 11.8927 6.50701 11.9662L9.63205 15.0912L17.493 7.23159C17.6413 7.0833 17.8424 7 18.0521 7C18.2618 7 18.4629 7.0833 18.6112 7.23159C18.7595 7.37987 18.8428 7.58098 18.8428 7.79069C18.8428 8.00039 18.7595 8.2015 18.6112 8.34978L18.6099 8.34847Z" fill="#142D6F" stroke="#142D6F"/>
</svg>
