<svg width="259" height="420" viewBox="0 0 259 420" fill="none" xmlns="http://www.w3.org/2000/svg">
<rect y="143.068" width="258.75" height="143.068" rx="5" fill="white"/>
<path d="M30.904 173.068V163.484H27.176V161.788H36.696V163.484H32.968V173.068H30.904ZM40.3923 173.228C39.5603 173.228 38.8403 173.058 38.2323 172.716C37.6243 172.375 37.1496 171.89 36.8083 171.26C36.4776 170.631 36.3123 169.884 36.3123 169.02C36.3123 168.156 36.4776 167.415 36.8083 166.796C37.1496 166.167 37.6243 165.682 38.2323 165.34C38.8403 164.999 39.5603 164.828 40.3923 164.828C41.2243 164.828 41.9443 164.999 42.5523 165.34C43.1709 165.682 43.6456 166.167 43.9763 166.796C44.3176 167.415 44.4883 168.156 44.4883 169.02C44.4883 169.884 44.3176 170.631 43.9763 171.26C43.6456 171.89 43.1709 172.375 42.5523 172.716C41.9443 173.058 41.2243 173.228 40.3923 173.228ZM40.3923 171.692C41.0216 171.692 41.5229 171.474 41.8963 171.036C42.2696 170.588 42.4563 169.916 42.4563 169.02C42.4563 168.124 42.2696 167.458 41.8963 167.02C41.5229 166.583 41.0216 166.364 40.3923 166.364C39.7629 166.364 39.2616 166.583 38.8883 167.02C38.5149 167.458 38.3283 168.124 38.3283 169.02C38.3283 169.916 38.5149 170.588 38.8883 171.036C39.2616 171.474 39.7629 171.692 40.3923 171.692ZM49.5909 173.228C48.6309 173.228 47.9055 172.978 47.4149 172.476C46.9242 171.975 46.6789 171.223 46.6789 170.22V166.492H45.1269V164.988H46.6789V162.924L48.6789 162.412V164.988H50.8389V166.492H48.6789V170.092C48.6789 170.647 48.7855 171.036 48.9989 171.26C49.2122 171.484 49.5055 171.596 49.8789 171.596C50.0815 171.596 50.2522 171.58 50.3909 171.548C50.5402 171.516 50.6842 171.474 50.8229 171.42V173.004C50.6415 173.079 50.4389 173.132 50.2149 173.164C50.0015 173.207 49.7935 173.228 49.5909 173.228ZM55.3174 173.228C54.6134 173.228 53.9947 173.063 53.4614 172.732C52.928 172.391 52.512 171.906 52.2134 171.276C51.9147 170.647 51.7654 169.895 51.7654 169.02C51.7654 168.146 51.9147 167.399 52.2134 166.78C52.512 166.151 52.928 165.671 53.4614 165.34C53.9947 164.999 54.6134 164.828 55.3174 164.828C56 164.828 56.5974 164.999 57.1094 165.34C57.632 165.671 57.9787 166.119 58.1494 166.684H57.9734L58.1494 164.988H60.0694C60.0374 165.319 60.0054 165.655 59.9734 165.996C59.952 166.338 59.9414 166.674 59.9414 167.004V173.068H57.9574L57.9414 171.404H58.1334C57.9627 171.959 57.616 172.402 57.0934 172.732C56.5707 173.063 55.9787 173.228 55.3174 173.228ZM55.8774 171.692C56.5067 171.692 57.0134 171.474 57.3974 171.036C57.7814 170.588 57.9734 169.916 57.9734 169.02C57.9734 168.124 57.7814 167.458 57.3974 167.02C57.0134 166.583 56.5067 166.364 55.8774 166.364C55.248 166.364 54.7414 166.583 54.3574 167.02C53.9734 167.458 53.7814 168.124 53.7814 169.02C53.7814 169.916 53.968 170.588 54.3414 171.036C54.7254 171.474 55.2374 171.692 55.8774 171.692ZM62.1193 173.068V161.292H64.1193V173.068H62.1193ZM70.8418 173.068V161.788H72.9058V173.068H70.8418ZM75.2286 173.068V167.004C75.2286 166.674 75.218 166.338 75.1966 165.996C75.1753 165.655 75.1433 165.319 75.1006 164.988H77.0366L77.1966 166.588H77.0046C77.2606 166.023 77.6393 165.591 78.1406 165.292C78.642 164.983 79.2233 164.828 79.8846 164.828C80.834 164.828 81.5486 165.095 82.0286 165.628C82.5086 166.162 82.7486 166.994 82.7486 168.124V173.068H80.7486V168.22C80.7486 167.57 80.6206 167.106 80.3646 166.828C80.1193 166.54 79.746 166.396 79.2446 166.396C78.626 166.396 78.1353 166.588 77.7726 166.972C77.41 167.356 77.2286 167.868 77.2286 168.508V173.068H75.2286ZM88.5813 173.228C87.7493 173.228 87.0186 173.058 86.3893 172.716C85.7706 172.375 85.2906 171.89 84.9493 171.26C84.6079 170.62 84.4373 169.863 84.4373 168.988C84.4373 168.114 84.6079 167.367 84.9493 166.748C85.3013 166.13 85.7866 165.655 86.4053 165.324C87.0239 164.994 87.7493 164.828 88.5813 164.828C89.1146 164.828 89.6319 164.914 90.1333 165.084C90.6453 165.244 91.0613 165.479 91.3813 165.788L90.7733 167.18C90.4853 166.914 90.1599 166.716 89.7973 166.588C89.4453 166.45 89.0986 166.38 88.7573 166.38C88.0426 166.38 87.4826 166.604 87.0773 167.052C86.6826 167.5 86.4853 168.151 86.4853 169.004C86.4853 169.858 86.6826 170.514 87.0773 170.972C87.4826 171.431 88.0426 171.66 88.7573 171.66C89.0879 171.66 89.4293 171.596 89.7813 171.468C90.1439 171.34 90.4746 171.143 90.7733 170.876L91.3813 172.252C91.0506 172.562 90.6293 172.802 90.1173 172.972C89.6159 173.143 89.1039 173.228 88.5813 173.228ZM96.4235 173.228C95.5915 173.228 94.8715 173.058 94.2635 172.716C93.6555 172.375 93.1808 171.89 92.8395 171.26C92.5088 170.631 92.3435 169.884 92.3435 169.02C92.3435 168.156 92.5088 167.415 92.8395 166.796C93.1808 166.167 93.6555 165.682 94.2635 165.34C94.8715 164.999 95.5915 164.828 96.4235 164.828C97.2555 164.828 97.9755 164.999 98.5835 165.34C99.2022 165.682 99.6768 166.167 100.008 166.796C100.349 167.415 100.52 168.156 100.52 169.02C100.52 169.884 100.349 170.631 100.008 171.26C99.6768 171.89 99.2022 172.375 98.5835 172.716C97.9755 173.058 97.2555 173.228 96.4235 173.228ZM96.4235 171.692C97.0528 171.692 97.5542 171.474 97.9275 171.036C98.3008 170.588 98.4875 169.916 98.4875 169.02C98.4875 168.124 98.3008 167.458 97.9275 167.02C97.5542 166.583 97.0528 166.364 96.4235 166.364C95.7942 166.364 95.2928 166.583 94.9195 167.02C94.5462 167.458 94.3595 168.124 94.3595 169.02C94.3595 169.916 94.5462 170.588 94.9195 171.036C95.2928 171.474 95.7942 171.692 96.4235 171.692ZM102.244 173.068V167.004C102.244 166.674 102.234 166.338 102.212 165.996C102.191 165.655 102.159 165.319 102.116 164.988H104.052L104.212 166.588H104.02C104.244 166.034 104.586 165.602 105.044 165.292C105.514 164.983 106.068 164.828 106.708 164.828C107.348 164.828 107.876 164.983 108.292 165.292C108.719 165.591 109.018 166.06 109.188 166.7H108.932C109.156 166.124 109.524 165.671 110.036 165.34C110.548 164.999 111.135 164.828 111.796 164.828C112.703 164.828 113.38 165.095 113.828 165.628C114.276 166.162 114.5 166.994 114.5 168.124V173.068H112.5V168.204C112.5 167.564 112.394 167.106 112.18 166.828C111.967 166.54 111.626 166.396 111.156 166.396C110.602 166.396 110.164 166.594 109.844 166.988C109.524 167.372 109.364 167.895 109.364 168.556V173.068H107.364V168.204C107.364 167.564 107.258 167.106 107.044 166.828C106.831 166.54 106.49 166.396 106.02 166.396C105.466 166.396 105.028 166.594 104.708 166.988C104.399 167.372 104.244 167.895 104.244 168.556V173.068H102.244ZM120.539 173.228C119.184 173.228 118.123 172.855 117.355 172.108C116.587 171.362 116.203 170.338 116.203 169.036C116.203 168.194 116.368 167.458 116.699 166.828C117.03 166.199 117.488 165.708 118.075 165.356C118.672 165.004 119.366 164.828 120.155 164.828C120.934 164.828 121.584 164.994 122.107 165.324C122.63 165.655 123.024 166.119 123.291 166.716C123.568 167.314 123.707 168.012 123.707 168.812V169.34H117.819V168.284H122.283L122.011 168.508C122.011 167.762 121.851 167.191 121.531 166.796C121.222 166.402 120.768 166.204 120.171 166.204C119.51 166.204 118.998 166.439 118.635 166.908C118.283 167.378 118.107 168.034 118.107 168.876V169.084C118.107 169.959 118.32 170.615 118.747 171.052C119.184 171.479 119.798 171.692 120.587 171.692C121.046 171.692 121.472 171.634 121.867 171.516C122.272 171.388 122.656 171.186 123.019 170.908L123.611 172.252C123.227 172.562 122.768 172.802 122.235 172.972C121.702 173.143 121.136 173.228 120.539 173.228Z" fill="#A1A0BD"/>
<path d="M34.569 221.625V196.134H36.483V221.625H34.569ZM35.787 219.45C34.3177 219.45 33.003 219.199 31.843 218.696C30.683 218.194 29.7743 217.459 29.117 216.492C28.4597 215.526 28.1117 214.356 28.073 212.983H32.22C32.2587 213.583 32.4133 214.124 32.684 214.607C32.974 215.091 33.38 215.477 33.902 215.767C34.424 216.038 35.0427 216.173 35.758 216.173C36.3767 216.173 36.9083 216.077 37.353 215.883C37.817 215.69 38.1747 215.41 38.426 215.042C38.6967 214.675 38.832 214.23 38.832 213.708C38.832 213.128 38.687 212.645 38.397 212.258C38.107 211.852 37.701 211.514 37.179 211.243C36.6763 210.973 36.106 210.731 35.468 210.518C34.83 210.286 34.1533 210.054 33.438 209.822C31.8527 209.281 30.6347 208.575 29.784 207.705C28.9527 206.835 28.537 205.685 28.537 204.254C28.537 203.036 28.827 202.002 29.407 201.151C30.0063 200.281 30.8183 199.614 31.843 199.15C32.887 198.686 34.0857 198.454 35.439 198.454C36.8117 198.454 38.0103 198.696 39.035 199.179C40.079 199.643 40.9007 200.32 41.5 201.209C42.0993 202.099 42.4183 203.143 42.457 204.341H38.252C38.252 203.877 38.1263 203.452 37.875 203.065C37.643 202.659 37.3143 202.34 36.889 202.108C36.4637 201.857 35.9513 201.731 35.352 201.731C34.8493 201.712 34.395 201.789 33.989 201.963C33.583 202.137 33.2543 202.389 33.003 202.717C32.771 203.046 32.655 203.471 32.655 203.993C32.655 204.477 32.771 204.883 33.003 205.211C33.235 205.54 33.5637 205.82 33.989 206.052C34.4143 206.284 34.9073 206.507 35.468 206.719C36.048 206.932 36.686 207.154 37.382 207.386C38.3873 207.734 39.3153 208.15 40.166 208.633C41.0167 209.097 41.6933 209.706 42.196 210.46C42.6987 211.214 42.95 212.2 42.95 213.418C42.95 214.501 42.6697 215.497 42.109 216.405C41.5677 217.314 40.7653 218.049 39.702 218.609C38.6387 219.17 37.3337 219.45 35.787 219.45ZM48.1661 219.102V203.297L44.7731 204.08V201.035L49.8191 198.802H52.1971V219.102H48.1661ZM62.8936 219.45C61.5016 219.45 60.2353 219.199 59.0946 218.696C57.9733 218.194 57.0743 217.488 56.3976 216.579C55.7403 215.671 55.4116 214.617 55.4116 213.418C55.4116 212.587 55.547 211.833 55.8176 211.156C56.1076 210.48 56.5136 209.88 57.0356 209.358C57.5576 208.836 58.1666 208.44 58.8626 208.169C57.9733 207.763 57.258 207.183 56.7166 206.429C56.1753 205.675 55.9046 204.825 55.9046 203.877C55.9046 202.93 56.1656 202.041 56.6876 201.209C57.229 200.378 58.012 199.711 59.0366 199.208C60.0806 198.706 61.3663 198.454 62.8936 198.454C64.421 198.454 65.7066 198.706 66.7506 199.208C67.7946 199.711 68.568 200.378 69.0706 201.209C69.5926 202.041 69.8536 202.93 69.8536 203.877C69.8536 204.805 69.583 205.656 69.0416 206.429C68.5003 207.183 67.785 207.763 66.8956 208.169C67.6303 208.459 68.249 208.865 68.7516 209.387C69.2736 209.89 69.67 210.48 69.9406 211.156C70.2306 211.833 70.3756 212.587 70.3756 213.418C70.3756 214.617 70.0373 215.671 69.3606 216.579C68.7033 217.488 67.814 218.194 66.6926 218.696C65.5713 219.199 64.305 219.45 62.8936 219.45ZM62.8936 216.173C64.0923 216.173 65.001 215.883 65.6196 215.303C66.2383 214.723 66.5476 213.989 66.5476 213.099C66.5476 212.113 66.219 211.34 65.5616 210.779C64.9236 210.199 64.0343 209.909 62.8936 209.909C61.753 209.909 60.854 210.199 60.1966 210.779C59.5393 211.34 59.2106 212.113 59.2106 213.099C59.2106 213.989 59.52 214.723 60.1386 215.303C60.7766 215.883 61.695 216.173 62.8936 216.173ZM62.8936 207.038C63.8796 207.038 64.6433 206.787 65.1846 206.284C65.7453 205.782 66.0256 205.134 66.0256 204.341C66.0256 203.491 65.7453 202.833 65.1846 202.369C64.6433 201.886 63.8796 201.644 62.8936 201.644C61.9076 201.644 61.144 201.886 60.6026 202.369C60.0613 202.833 59.7906 203.5 59.7906 204.37C59.7906 205.144 60.0613 205.782 60.6026 206.284C61.144 206.787 61.9076 207.038 62.8936 207.038ZM80.7914 219.45C79.3027 219.45 78.017 219.189 76.9344 218.667C75.8517 218.126 75.001 217.401 74.3824 216.492C73.783 215.564 73.435 214.52 73.3384 213.36H77.1664C77.321 214.134 77.727 214.791 78.3844 215.332C79.0417 215.854 79.844 216.115 80.7914 216.115C81.4874 216.115 82.0964 215.941 82.6184 215.593C83.1597 215.245 83.5754 214.772 83.8654 214.172C84.1554 213.554 84.3004 212.877 84.3004 212.142C84.3004 211.35 84.1457 210.673 83.8364 210.112C83.5464 209.532 83.1404 209.097 82.6184 208.807C82.0964 208.498 81.497 208.343 80.8204 208.343C80.0084 208.343 79.293 208.546 78.6744 208.952C78.0557 209.358 77.6304 209.871 77.3984 210.489H73.6284L75.3684 198.802H86.7074V202.224H78.2684L77.3984 206.69C77.8237 206.246 78.394 205.878 79.1094 205.588C79.8247 205.298 80.627 205.153 81.5164 205.153C82.6184 205.153 83.5754 205.347 84.3874 205.733C85.1994 206.101 85.876 206.613 86.4174 207.27C86.978 207.928 87.3937 208.672 87.6644 209.503C87.9544 210.335 88.0994 211.195 88.0994 212.084C88.0994 213.167 87.9157 214.163 87.5484 215.071C87.2004 215.961 86.6977 216.734 86.0404 217.391C85.4024 218.049 84.629 218.561 83.7204 218.928C82.831 219.276 81.8547 219.45 80.7914 219.45ZM97.8307 219.45C96.516 219.45 95.3077 219.209 94.2057 218.725C93.1037 218.242 92.224 217.507 91.5667 216.521C90.9094 215.535 90.5614 214.288 90.5227 212.78H94.3797C94.399 213.418 94.544 213.998 94.8147 214.52C95.0854 215.023 95.472 215.429 95.9747 215.738C96.4967 216.028 97.1154 216.173 97.8307 216.173C98.5267 216.173 99.1067 216.038 99.5707 215.767C100.054 215.497 100.421 215.139 100.673 214.694C100.924 214.25 101.05 213.737 101.05 213.157C101.05 212.461 100.885 211.891 100.557 211.446C100.228 210.982 99.764 210.634 99.1647 210.402C98.5847 210.151 97.908 210.025 97.1347 210.025H95.6267V206.806H97.1347C98.082 206.806 98.8747 206.594 99.5127 206.168C100.151 205.724 100.47 205.066 100.47 204.196C100.47 203.462 100.228 202.872 99.7447 202.427C99.2807 201.983 98.633 201.76 97.8017 201.76C96.893 201.76 96.1777 202.031 95.6557 202.572C95.153 203.114 94.8727 203.781 94.8147 204.573H91.0157C91.0737 203.297 91.3927 202.205 91.9727 201.296C92.5527 200.368 93.3357 199.663 94.3217 199.179C95.327 198.696 96.4967 198.454 97.8307 198.454C99.2227 198.454 100.402 198.706 101.369 199.208C102.335 199.692 103.07 200.349 103.573 201.18C104.075 201.992 104.327 202.891 104.327 203.877C104.327 204.651 104.172 205.347 103.863 205.965C103.573 206.565 103.176 207.067 102.674 207.473C102.19 207.879 101.649 208.179 101.05 208.372C101.804 208.508 102.471 208.798 103.051 209.242C103.631 209.687 104.075 210.257 104.385 210.953C104.713 211.63 104.878 212.413 104.878 213.302C104.878 214.404 104.607 215.429 104.066 216.376C103.524 217.304 102.732 218.049 101.688 218.609C100.644 219.17 99.358 219.45 97.8307 219.45ZM107.572 219.102V216.231C108.79 215.245 109.979 214.259 111.139 213.273C112.299 212.287 113.343 211.311 114.271 210.344C115.199 209.358 115.924 208.401 116.446 207.473C116.987 206.545 117.258 205.646 117.258 204.776C117.258 204.235 117.161 203.742 116.968 203.297C116.774 202.833 116.475 202.466 116.069 202.195C115.663 201.905 115.121 201.76 114.445 201.76C113.787 201.76 113.227 201.915 112.763 202.224C112.299 202.534 111.951 202.949 111.719 203.471C111.487 203.974 111.371 204.544 111.371 205.182H107.601C107.639 203.694 107.968 202.447 108.587 201.441C109.205 200.436 110.037 199.692 111.081 199.208C112.125 198.706 113.285 198.454 114.561 198.454C115.991 198.454 117.19 198.725 118.157 199.266C119.143 199.788 119.887 200.504 120.39 201.412C120.912 202.321 121.173 203.365 121.173 204.544C121.173 205.434 121.008 206.304 120.68 207.154C120.37 208.005 119.926 208.836 119.346 209.648C118.785 210.441 118.147 211.205 117.432 211.939C116.736 212.674 116.001 213.38 115.228 214.056C114.474 214.714 113.729 215.332 112.995 215.912H121.637V219.102H107.572Z" fill="#142D6F"/>
<path d="M124.984 219.197C124.516 219.197 124.129 219.058 123.825 218.779C123.534 218.488 123.388 218.133 123.388 217.715C123.388 217.297 123.534 216.949 123.825 216.67C124.129 216.379 124.516 216.233 124.984 216.233C125.453 216.233 125.833 216.379 126.124 216.67C126.416 216.949 126.561 217.297 126.561 217.715C126.561 218.133 126.416 218.488 126.124 218.779C125.833 219.058 125.453 219.197 124.984 219.197ZM133.402 219.33C132.426 219.33 131.59 219.159 130.894 218.817C130.197 218.475 129.646 218.007 129.241 217.411C128.848 216.803 128.62 216.119 128.557 215.359H131.065C131.153 215.866 131.413 216.29 131.844 216.632C132.274 216.974 132.8 217.145 133.421 217.145C133.877 217.145 134.276 217.031 134.618 216.803C134.96 216.575 135.226 216.265 135.416 215.872C135.606 215.48 135.701 215.036 135.701 214.542C135.701 214.036 135.606 213.599 135.416 213.231C135.226 212.864 134.96 212.579 134.618 212.376C134.276 212.174 133.883 212.072 133.44 212.072C132.908 212.072 132.445 212.205 132.053 212.471C131.66 212.737 131.381 213.06 131.217 213.44H128.747L129.868 205.802H137.297V208.044H131.768L131.198 210.989C131.476 210.698 131.85 210.457 132.319 210.267C132.787 210.077 133.313 209.982 133.896 209.982C134.618 209.982 135.245 210.109 135.777 210.362C136.309 210.603 136.752 210.939 137.107 211.369C137.474 211.8 137.746 212.288 137.924 212.832C138.101 213.364 138.19 213.928 138.19 214.523C138.19 215.22 138.069 215.866 137.829 216.461C137.601 217.044 137.271 217.551 136.841 217.981C136.423 218.412 135.922 218.748 135.34 218.988C134.757 219.216 134.111 219.33 133.402 219.33ZM139.591 219.102V217.221C140.389 216.575 141.168 215.929 141.928 215.283C142.688 214.637 143.372 213.998 143.98 213.364C144.6 212.718 145.082 212.091 145.424 211.483C145.778 210.875 145.956 210.286 145.956 209.716C145.956 209.362 145.892 209.039 145.766 208.747C145.639 208.443 145.436 208.203 145.158 208.025C144.892 207.835 144.537 207.74 144.094 207.74C143.663 207.74 143.296 207.842 142.992 208.044C142.688 208.247 142.46 208.519 142.308 208.861C142.156 209.191 142.08 209.564 142.08 209.982H139.61C139.635 209.007 139.85 208.19 140.256 207.531C140.661 206.873 141.206 206.385 141.89 206.068C142.574 205.739 143.334 205.574 144.17 205.574C145.107 205.574 145.899 205.752 146.545 206.106C147.191 206.448 147.678 206.917 148.008 207.512C148.35 208.108 148.521 208.792 148.521 209.564C148.521 210.147 148.413 210.717 148.198 211.274C147.995 211.832 147.704 212.376 147.324 212.908C146.956 213.428 146.538 213.928 146.07 214.409C145.614 214.891 145.132 215.353 144.626 215.796C144.119 216.227 143.625 216.632 143.144 217.012H148.844V219.102H139.591Z" fill="#A3BDFF"/>
<rect x="27" y="241.137" width="103" height="32" rx="16" fill="#DCF5E8"/>
<path fill-rule="evenodd" clip-rule="evenodd" d="M57.4947 251.763C57.4947 251.597 57.558 251.437 57.6706 251.32C57.7832 251.202 57.936 251.137 58.0953 251.137H62.8995C63.0587 251.137 63.2115 251.202 63.3241 251.32C63.4367 251.437 63.5 251.597 63.5 251.763V256.771C63.5 256.937 63.4367 257.096 63.3241 257.214C63.2115 257.331 63.0587 257.397 62.8995 257.397C62.7402 257.397 62.5875 257.331 62.4748 257.214C62.3622 257.096 62.2989 256.937 62.2989 256.771V253.516L57.9595 259.046C57.9064 259.114 57.8403 259.169 57.7655 259.208C57.6906 259.248 57.6087 259.27 57.525 259.275C57.4413 259.279 57.3576 259.265 57.2794 259.234C57.2011 259.202 57.1301 259.154 57.0708 259.092L53.9636 255.853L49.5726 262.147C49.4765 262.275 49.3369 262.358 49.1829 262.381C49.029 262.403 48.8728 262.362 48.7472 262.267C48.6215 262.171 48.5362 262.029 48.5092 261.869C48.4821 261.71 48.5154 261.546 48.6021 261.411L53.4063 254.525C53.4573 254.451 53.5229 254.391 53.5987 254.346C53.6744 254.302 53.7584 254.276 53.8449 254.268C53.9315 254.261 54.0184 254.274 54.0999 254.305C54.1813 254.336 54.2553 254.386 54.3167 254.45L57.4503 257.718L61.6324 252.389H58.0953C57.936 252.389 57.7832 252.323 57.6706 252.205C57.558 252.088 57.4947 251.929 57.4947 251.763Z" fill="#4FD18B"/>
<path d="M73.2081 260.389V253.017H74.8807V260.389H73.2081ZM70.3583 257.54V255.867H77.7305V257.54H70.3583ZM88.2201 251.227V262.137H86.2439V253.15H86.18L83.6285 254.78V252.969L86.3398 251.227H88.2201ZM95.4271 251.227V262.137H93.4509V253.15H93.387L90.8355 254.78V252.969L93.5468 251.227H95.4271ZM104.03 260.091V259.516C104.03 259.093 104.119 258.704 104.296 258.349C104.477 257.994 104.74 257.708 105.084 257.492C105.429 257.275 105.846 257.167 106.336 257.167C106.84 257.167 107.263 257.275 107.604 257.492C107.945 257.705 108.202 257.989 108.376 258.344C108.554 258.699 108.643 259.09 108.643 259.516V260.091C108.643 260.514 108.554 260.903 108.376 261.258C108.199 261.613 107.938 261.899 107.593 262.115C107.252 262.332 106.833 262.44 106.336 262.44C105.839 262.44 105.418 262.332 105.074 262.115C104.729 261.899 104.468 261.613 104.291 261.258C104.117 260.903 104.03 260.514 104.03 260.091ZM105.42 259.516V260.091C105.42 260.372 105.487 260.629 105.622 260.863C105.757 261.098 105.995 261.215 106.336 261.215C106.681 261.215 106.917 261.1 107.045 260.869C107.176 260.634 107.242 260.375 107.242 260.091V259.516C107.242 259.232 107.18 258.972 107.055 258.738C106.931 258.5 106.691 258.381 106.336 258.381C106.002 258.381 105.766 258.5 105.628 258.738C105.489 258.972 105.42 259.232 105.42 259.516ZM98.4846 253.848V253.273C98.4846 252.847 98.5752 252.456 98.7563 252.101C98.9374 251.746 99.2002 251.462 99.5447 251.249C99.8891 251.032 100.306 250.924 100.796 250.924C101.297 250.924 101.718 251.032 102.059 251.249C102.403 251.462 102.663 251.746 102.837 252.101C103.011 252.456 103.098 252.847 103.098 253.273V253.848C103.098 254.274 103.009 254.665 102.831 255.02C102.657 255.372 102.398 255.654 102.054 255.867C101.709 256.08 101.29 256.187 100.796 256.187C100.296 256.187 99.8731 256.08 99.5287 255.867C99.1878 255.654 98.9285 255.37 98.751 255.015C98.5734 254.66 98.4846 254.271 98.4846 253.848ZM99.8856 253.273V253.848C99.8856 254.132 99.9513 254.392 100.083 254.626C100.218 254.857 100.456 254.972 100.796 254.972C101.137 254.972 101.372 254.857 101.5 254.626C101.631 254.392 101.697 254.132 101.697 253.848V253.273C101.697 252.989 101.634 252.73 101.51 252.495C101.386 252.257 101.148 252.138 100.796 252.138C100.459 252.138 100.223 252.257 100.088 252.495C99.953 252.733 99.8856 252.992 99.8856 253.273ZM99.0919 262.137L106.592 251.227H107.924L100.424 262.137H99.0919Z" fill="#4FD18B"/>
<rect y="301.137" width="258.75" height="143.068" rx="5" fill="white"/>
<path d="M30.904 331.137V321.553H27.176V319.857H36.696V321.553H32.968V331.137H30.904ZM40.3923 331.297C39.5603 331.297 38.8403 331.126 38.2323 330.785C37.6243 330.443 37.1496 329.958 36.8083 329.329C36.4776 328.699 36.3123 327.953 36.3123 327.089C36.3123 326.225 36.4776 325.483 36.8083 324.865C37.1496 324.235 37.6243 323.75 38.2323 323.409C38.8403 323.067 39.5603 322.897 40.3923 322.897C41.2243 322.897 41.9443 323.067 42.5523 323.409C43.1709 323.75 43.6456 324.235 43.9763 324.865C44.3176 325.483 44.4883 326.225 44.4883 327.089C44.4883 327.953 44.3176 328.699 43.9763 329.329C43.6456 329.958 43.1709 330.443 42.5523 330.785C41.9443 331.126 41.2243 331.297 40.3923 331.297ZM40.3923 329.761C41.0216 329.761 41.5229 329.542 41.8963 329.105C42.2696 328.657 42.4563 327.985 42.4563 327.089C42.4563 326.193 42.2696 325.526 41.8963 325.089C41.5229 324.651 41.0216 324.433 40.3923 324.433C39.7629 324.433 39.2616 324.651 38.8883 325.089C38.5149 325.526 38.3283 326.193 38.3283 327.089C38.3283 327.985 38.5149 328.657 38.8883 329.105C39.2616 329.542 39.7629 329.761 40.3923 329.761ZM49.5909 331.297C48.6309 331.297 47.9055 331.046 47.4149 330.545C46.9242 330.043 46.6789 329.291 46.6789 328.289V324.561H45.1269V323.057H46.6789V320.993L48.6789 320.481V323.057H50.8389V324.561H48.6789V328.161C48.6789 328.715 48.7855 329.105 48.9989 329.329C49.2122 329.553 49.5055 329.665 49.8789 329.665C50.0815 329.665 50.2522 329.649 50.3909 329.617C50.5402 329.585 50.6842 329.542 50.8229 329.489V331.073C50.6415 331.147 50.4389 331.201 50.2149 331.233C50.0015 331.275 49.7935 331.297 49.5909 331.297ZM55.3174 331.297C54.6134 331.297 53.9947 331.131 53.4614 330.801C52.928 330.459 52.512 329.974 52.2134 329.345C51.9147 328.715 51.7654 327.963 51.7654 327.089C51.7654 326.214 51.9147 325.467 52.2134 324.849C52.512 324.219 52.928 323.739 53.4614 323.409C53.9947 323.067 54.6134 322.897 55.3174 322.897C56 322.897 56.5974 323.067 57.1094 323.409C57.632 323.739 57.9787 324.187 58.1494 324.753H57.9734L58.1494 323.057H60.0694C60.0374 323.387 60.0054 323.723 59.9734 324.065C59.952 324.406 59.9414 324.742 59.9414 325.073V331.137H57.9574L57.9414 329.473H58.1334C57.9627 330.027 57.616 330.47 57.0934 330.801C56.5707 331.131 55.9787 331.297 55.3174 331.297ZM55.8774 329.761C56.5067 329.761 57.0134 329.542 57.3974 329.105C57.7814 328.657 57.9734 327.985 57.9734 327.089C57.9734 326.193 57.7814 325.526 57.3974 325.089C57.0134 324.651 56.5067 324.433 55.8774 324.433C55.248 324.433 54.7414 324.651 54.3574 325.089C53.9734 325.526 53.7814 326.193 53.7814 327.089C53.7814 327.985 53.968 328.657 54.3414 329.105C54.7254 329.542 55.2374 329.761 55.8774 329.761ZM62.1193 331.137V319.361H64.1193V331.137H62.1193ZM74.7778 331.297C73.8711 331.297 73.0338 331.185 72.2658 330.961C71.5084 330.726 70.8578 330.406 70.3138 330.001L70.9538 328.385C71.3164 328.641 71.6951 328.859 72.0898 329.041C72.4844 329.211 72.9058 329.345 73.3538 329.441C73.8018 329.526 74.2764 329.569 74.7778 329.569C75.6204 329.569 76.2284 329.43 76.6018 329.153C76.9751 328.875 77.1618 328.513 77.1618 328.065C77.1618 327.67 77.0338 327.371 76.7778 327.169C76.5218 326.955 76.0631 326.779 75.4018 326.641L73.5938 326.273C72.5591 326.059 71.7858 325.702 71.2738 325.201C70.7618 324.699 70.5058 324.027 70.5058 323.185C70.5058 322.481 70.6924 321.867 71.0658 321.345C71.4391 320.822 71.9618 320.417 72.6338 320.129C73.3058 319.841 74.0898 319.697 74.9858 319.697C75.7858 319.697 76.5271 319.814 77.2098 320.049C77.8924 320.273 78.4631 320.598 78.9218 321.025L78.2818 322.561C77.8231 322.177 77.3218 321.894 76.7778 321.713C76.2338 321.521 75.6258 321.425 74.9538 321.425C74.1964 321.425 73.6044 321.574 73.1778 321.873C72.7618 322.161 72.5538 322.561 72.5538 323.073C72.5538 323.467 72.6818 323.782 72.9378 324.017C73.2044 324.251 73.6524 324.433 74.2818 324.561L76.0738 324.913C77.1404 325.126 77.9298 325.478 78.4418 325.969C78.9538 326.449 79.2098 327.099 79.2098 327.921C79.2098 328.593 79.0284 329.185 78.6658 329.697C78.3031 330.198 77.7911 330.593 77.1298 330.881C76.4684 331.158 75.6844 331.297 74.7778 331.297ZM84.1143 331.297C83.4103 331.297 82.7916 331.131 82.2582 330.801C81.7249 330.459 81.3089 329.974 81.0103 329.345C80.7116 328.715 80.5623 327.963 80.5623 327.089C80.5623 326.214 80.7116 325.467 81.0103 324.849C81.3089 324.219 81.7249 323.739 82.2582 323.409C82.7916 323.067 83.4103 322.897 84.1143 322.897C84.7969 322.897 85.3943 323.067 85.9063 323.409C86.4289 323.739 86.7756 324.187 86.9463 324.753H86.7703L86.9463 323.057H88.8663C88.8343 323.387 88.8023 323.723 88.7703 324.065C88.7489 324.406 88.7383 324.742 88.7383 325.073V331.137H86.7543L86.7383 329.473H86.9303C86.7596 330.027 86.4129 330.47 85.8903 330.801C85.3676 331.131 84.7756 331.297 84.1143 331.297ZM84.6743 329.761C85.3036 329.761 85.8103 329.542 86.1943 329.105C86.5783 328.657 86.7703 327.985 86.7703 327.089C86.7703 326.193 86.5783 325.526 86.1943 325.089C85.8103 324.651 85.3036 324.433 84.6743 324.433C84.0449 324.433 83.5383 324.651 83.1543 325.089C82.7703 325.526 82.5783 326.193 82.5783 327.089C82.5783 327.985 82.7649 328.657 83.1383 329.105C83.5223 329.542 84.0343 329.761 84.6743 329.761ZM93.206 331.137L89.718 323.057H91.846L94.374 329.377H93.878L96.47 323.057H98.47L94.966 331.137H93.206ZM103.289 331.297C101.934 331.297 100.873 330.923 100.105 330.177C99.3369 329.43 98.9529 328.406 98.9529 327.105C98.9529 326.262 99.1182 325.526 99.4489 324.897C99.7795 324.267 100.238 323.777 100.825 323.425C101.422 323.073 102.116 322.897 102.905 322.897C103.684 322.897 104.334 323.062 104.857 323.393C105.38 323.723 105.774 324.187 106.041 324.785C106.318 325.382 106.457 326.081 106.457 326.881V327.409H100.569V326.353H105.033L104.761 326.577C104.761 325.83 104.601 325.259 104.281 324.865C103.972 324.47 103.518 324.273 102.921 324.273C102.26 324.273 101.748 324.507 101.385 324.977C101.033 325.446 100.857 326.102 100.857 326.945V327.153C100.857 328.027 101.07 328.683 101.497 329.121C101.934 329.547 102.548 329.761 103.337 329.761C103.796 329.761 104.222 329.702 104.617 329.585C105.022 329.457 105.406 329.254 105.769 328.977L106.361 330.321C105.977 330.63 105.518 330.87 104.985 331.041C104.452 331.211 103.886 331.297 103.289 331.297ZM111.031 331.297C110.337 331.297 109.697 331.217 109.111 331.057C108.535 330.886 108.049 330.651 107.655 330.353L108.215 329.009C108.62 329.286 109.068 329.499 109.559 329.649C110.049 329.798 110.545 329.873 111.047 329.873C111.58 329.873 111.975 329.782 112.231 329.601C112.497 329.419 112.631 329.174 112.631 328.865C112.631 328.619 112.545 328.427 112.375 328.289C112.215 328.139 111.953 328.027 111.591 327.953L109.991 327.649C109.308 327.499 108.785 327.243 108.423 326.881C108.071 326.518 107.895 326.043 107.895 325.457C107.895 324.955 108.028 324.513 108.295 324.129C108.572 323.745 108.961 323.446 109.463 323.233C109.975 323.009 110.572 322.897 111.255 322.897C111.852 322.897 112.412 322.977 112.935 323.137C113.468 323.297 113.916 323.537 114.279 323.857L113.703 325.153C113.372 324.886 112.993 324.678 112.567 324.529C112.14 324.379 111.724 324.305 111.319 324.305C110.764 324.305 110.359 324.406 110.103 324.609C109.847 324.801 109.719 325.051 109.719 325.361C109.719 325.595 109.793 325.793 109.943 325.953C110.103 326.102 110.348 326.214 110.679 326.289L112.279 326.593C112.993 326.731 113.532 326.977 113.895 327.329C114.268 327.67 114.455 328.139 114.455 328.737C114.455 329.27 114.311 329.729 114.023 330.113C113.735 330.497 113.335 330.79 112.823 330.993C112.311 331.195 111.713 331.297 111.031 331.297Z" fill="#A1A0BD"/>
<path d="M34.569 379.694V354.203H36.483V379.694H34.569ZM35.787 377.519C34.3177 377.519 33.003 377.267 31.843 376.765C30.683 376.262 29.7743 375.527 29.117 374.561C28.4597 373.594 28.1117 372.424 28.073 371.052H32.22C32.2587 371.651 32.4133 372.192 32.684 372.676C32.974 373.159 33.38 373.546 33.902 373.836C34.424 374.106 35.0427 374.242 35.758 374.242C36.3767 374.242 36.9083 374.145 37.353 373.952C37.817 373.758 38.1747 373.478 38.426 373.111C38.6967 372.743 38.832 372.299 38.832 371.777C38.832 371.197 38.687 370.713 38.397 370.327C38.107 369.921 37.701 369.582 37.179 369.312C36.6763 369.041 36.106 368.799 35.468 368.587C34.83 368.355 34.1533 368.123 33.438 367.891C31.8527 367.349 30.6347 366.644 29.784 365.774C28.9527 364.904 28.537 363.753 28.537 362.323C28.537 361.105 28.827 360.07 29.407 359.22C30.0063 358.35 30.8183 357.683 31.843 357.219C32.887 356.755 34.0857 356.523 35.439 356.523C36.8117 356.523 38.0103 356.764 39.035 357.248C40.079 357.712 40.9007 358.388 41.5 359.278C42.0993 360.167 42.4183 361.211 42.457 362.41H38.252C38.252 361.946 38.1263 361.52 37.875 361.134C37.643 360.728 37.3143 360.409 36.889 360.177C36.4637 359.925 35.9513 359.8 35.352 359.8C34.8493 359.78 34.395 359.858 33.989 360.032C33.583 360.206 33.2543 360.457 33.003 360.786C32.771 361.114 32.655 361.54 32.655 362.062C32.655 362.545 32.771 362.951 33.003 363.28C33.235 363.608 33.5637 363.889 33.989 364.121C34.4143 364.353 34.9073 364.575 35.468 364.788C36.048 365 36.686 365.223 37.382 365.455C38.3873 365.803 39.3153 366.218 40.166 366.702C41.0167 367.166 41.6933 367.775 42.196 368.529C42.6987 369.283 42.95 370.269 42.95 371.487C42.95 372.569 42.6697 373.565 42.109 374.474C41.5677 375.382 40.7653 376.117 39.702 376.678C38.6387 377.238 37.3337 377.519 35.787 377.519ZM48.1661 377.171V361.366L44.7731 362.149V359.104L49.8191 356.871H52.1971V377.171H48.1661ZM62.4586 377.519C61.144 377.519 59.9356 377.277 58.8336 376.794C57.7316 376.31 56.852 375.576 56.1946 374.59C55.5373 373.604 55.1893 372.357 55.1506 370.849H59.0076C59.027 371.487 59.172 372.067 59.4426 372.589C59.7133 373.091 60.1 373.497 60.6026 373.807C61.1246 374.097 61.7433 374.242 62.4586 374.242C63.1546 374.242 63.7346 374.106 64.1986 373.836C64.682 373.565 65.0493 373.207 65.3006 372.763C65.552 372.318 65.6776 371.806 65.6776 371.226C65.6776 370.53 65.5133 369.959 65.1846 369.515C64.856 369.051 64.392 368.703 63.7926 368.471C63.2126 368.219 62.536 368.094 61.7626 368.094H60.2546V364.875H61.7626C62.71 364.875 63.5026 364.662 64.1406 364.237C64.7786 363.792 65.0976 363.135 65.0976 362.265C65.0976 361.53 64.856 360.94 64.3726 360.496C63.9086 360.051 63.261 359.829 62.4296 359.829C61.521 359.829 60.8056 360.099 60.2836 360.641C59.781 361.182 59.5006 361.849 59.4426 362.642H55.6436C55.7016 361.366 56.0206 360.273 56.6006 359.365C57.1806 358.437 57.9636 357.731 58.9496 357.248C59.955 356.764 61.1246 356.523 62.4586 356.523C63.8506 356.523 65.03 356.774 65.9966 357.277C66.9633 357.76 67.698 358.417 68.2006 359.249C68.7033 360.061 68.9546 360.96 68.9546 361.946C68.9546 362.719 68.8 363.415 68.4906 364.034C68.2006 364.633 67.8043 365.136 67.3016 365.542C66.8183 365.948 66.277 366.247 65.6776 366.441C66.4316 366.576 67.0986 366.866 67.6786 367.311C68.2586 367.755 68.7033 368.326 69.0126 369.022C69.3413 369.698 69.5056 370.481 69.5056 371.371C69.5056 372.473 69.235 373.497 68.6936 374.445C68.1523 375.373 67.3596 376.117 66.3156 376.678C65.2716 377.238 63.986 377.519 62.4586 377.519ZM73.8558 377.171L81.4248 360.206H71.5938V356.871H85.4558V359.626L77.8868 377.171H73.8558Z" fill="#142D6F"/>
<path d="M88.6494 377.266C88.1807 377.266 87.7944 377.126 87.4904 376.848C87.1991 376.556 87.0534 376.202 87.0534 375.784C87.0534 375.366 87.1991 375.017 87.4904 374.739C87.7944 374.447 88.1807 374.302 88.6494 374.302C89.1181 374.302 89.4981 374.447 89.7894 374.739C90.0807 375.017 90.2264 375.366 90.2264 375.784C90.2264 376.202 90.0807 376.556 89.7894 376.848C89.4981 377.126 89.1181 377.266 88.6494 377.266ZM98.3779 377.171V374.758H91.8419V372.725L98.0359 363.871H100.943V372.535H102.672V374.758H100.943V377.171H98.3779ZM94.5779 372.535H98.5489V366.702L94.5779 372.535ZM109.007 377.399C108.145 377.399 107.354 377.24 106.632 376.924C105.922 376.607 105.352 376.126 104.922 375.48C104.491 374.834 104.263 374.017 104.238 373.029H106.746C106.758 373.447 106.853 373.827 107.031 374.169C107.208 374.498 107.468 374.764 107.81 374.967C108.152 375.157 108.557 375.252 109.026 375.252C109.469 375.252 109.849 375.163 110.166 374.986C110.482 374.808 110.717 374.574 110.869 374.283C111.033 373.991 111.116 373.656 111.116 373.276C111.116 372.832 111.008 372.465 110.793 372.174C110.577 371.87 110.273 371.642 109.881 371.49C109.501 371.325 109.064 371.243 108.57 371.243H107.563V369.134H108.551C109.184 369.134 109.71 368.988 110.128 368.697C110.546 368.405 110.755 367.975 110.755 367.405C110.755 366.923 110.596 366.537 110.28 366.246C109.976 365.954 109.551 365.809 109.007 365.809C108.399 365.809 107.924 365.986 107.582 366.341C107.252 366.695 107.069 367.132 107.031 367.652H104.523C104.561 366.816 104.77 366.1 105.15 365.505C105.53 364.897 106.049 364.434 106.708 364.118C107.379 363.801 108.145 363.643 109.007 363.643C109.931 363.643 110.71 363.807 111.344 364.137C111.977 364.453 112.458 364.884 112.788 365.429C113.117 365.973 113.282 366.562 113.282 367.196C113.282 367.715 113.18 368.177 112.978 368.583C112.788 368.975 112.528 369.305 112.199 369.571C111.882 369.837 111.527 370.027 111.135 370.141C111.629 370.242 112.059 370.438 112.427 370.73C112.807 371.021 113.098 371.388 113.301 371.832C113.516 372.275 113.624 372.788 113.624 373.371C113.624 374.093 113.446 374.764 113.092 375.385C112.737 375.993 112.218 376.48 111.534 376.848C110.85 377.215 110.007 377.399 109.007 377.399Z" fill="#A3BDFF"/>
<rect x="27" y="399.205" width="92" height="32" rx="16" fill="#F5DCDC"/>
<path fill-rule="evenodd" clip-rule="evenodd" d="M57.4947 420.579C57.4947 420.745 57.558 420.904 57.6706 421.022C57.7832 421.139 57.936 421.205 58.0953 421.205H62.8995C63.0587 421.205 63.2115 421.139 63.3241 421.022C63.4367 420.904 63.5 420.745 63.5 420.579V415.57C63.5 415.404 63.4367 415.245 63.3241 415.128C63.2115 415.01 63.0587 414.944 62.8995 414.944C62.7402 414.944 62.5875 415.01 62.4748 415.128C62.3622 415.245 62.2989 415.404 62.2989 415.57V418.826L57.9595 413.295C57.9064 413.228 57.8403 413.173 57.7655 413.133C57.6906 413.094 57.6087 413.071 57.525 413.067C57.4413 413.063 57.3576 413.076 57.2794 413.108C57.2011 413.139 57.1301 413.187 57.0708 413.249L53.9636 416.488L49.5726 410.194C49.4765 410.067 49.3369 409.983 49.1829 409.961C49.029 409.939 48.8728 409.979 48.7472 410.075C48.6215 410.17 48.5362 410.312 48.5092 410.472C48.4821 410.631 48.5154 410.796 48.6021 410.93L53.4063 417.817C53.4573 417.89 53.5229 417.951 53.5987 417.995C53.6744 418.039 53.7584 418.066 53.8449 418.073C53.9315 418.08 54.0184 418.068 54.0999 418.036C54.1813 418.005 54.2553 417.956 54.3167 417.892L57.4503 414.624L61.6324 419.953H58.0953C57.936 419.953 57.7832 420.019 57.6706 420.136C57.558 420.254 57.4947 420.413 57.4947 420.579Z" fill="#D14F4F"/>
<path d="M74.9499 413.957V415.544H70.0387V413.957H74.9499ZM80.8346 420.354C80.0427 420.354 79.3396 420.221 78.7252 419.955C78.1144 419.688 77.635 419.324 77.287 418.863C76.9426 418.397 76.7721 417.87 76.7757 417.281C76.7721 416.822 76.8715 416.402 77.074 416.018C77.2764 415.635 77.5498 415.315 77.8943 415.059C78.2423 414.8 78.6294 414.635 79.0555 414.564V414.489C78.4944 414.365 78.0399 414.079 77.6919 413.632C77.3474 413.181 77.1769 412.661 77.1805 412.071C77.1769 411.51 77.3332 411.009 77.6492 410.569C77.9653 410.129 78.3985 409.782 78.949 409.53C79.4994 409.274 80.1279 409.147 80.8346 409.147C81.5342 409.147 82.1574 409.274 82.7043 409.53C83.2547 409.782 83.6879 410.129 84.004 410.569C84.3236 411.009 84.4834 411.51 84.4834 412.071C84.4834 412.661 84.3076 413.181 83.9561 413.632C83.608 414.079 83.1588 414.365 82.6084 414.489V414.564C83.0345 414.635 83.4181 414.8 83.759 415.059C84.1034 415.315 84.3769 415.635 84.5793 416.018C84.7852 416.402 84.8882 416.822 84.8882 417.281C84.8882 417.87 84.7142 418.397 84.3662 418.863C84.0182 419.324 83.5388 419.688 82.928 419.955C82.3208 420.221 81.623 420.354 80.8346 420.354ZM80.8346 418.831C81.243 418.831 81.5981 418.761 81.8999 418.623C82.2018 418.481 82.4362 418.282 82.6031 418.026C82.77 417.771 82.8552 417.476 82.8588 417.142C82.8552 416.794 82.7646 416.487 82.5871 416.221C82.4131 415.951 82.1734 415.739 81.868 415.587C81.5661 415.434 81.2217 415.358 80.8346 415.358C80.444 415.358 80.096 415.434 79.7906 415.587C79.4852 415.739 79.2437 415.951 79.0661 416.221C78.8921 416.487 78.8069 416.794 78.8105 417.142C78.8069 417.476 78.8886 417.771 79.0555 418.026C79.2224 418.278 79.4568 418.475 79.7586 418.618C80.064 418.76 80.4227 418.831 80.8346 418.831ZM80.8346 413.861C81.1684 413.861 81.4632 413.793 81.7188 413.658C81.9781 413.523 82.1823 413.335 82.3314 413.094C82.4806 412.852 82.5569 412.574 82.5605 412.257C82.5569 411.945 82.4823 411.672 82.3367 411.437C82.1911 411.199 81.9887 411.016 81.7295 410.888C81.4703 410.757 81.172 410.691 80.8346 410.691C80.4901 410.691 80.1865 410.757 79.9237 410.888C79.6645 411.016 79.4621 411.199 79.3165 411.437C79.1744 411.672 79.1052 411.945 79.1088 412.257C79.1052 412.574 79.1762 412.852 79.3218 413.094C79.471 413.332 79.6752 413.52 79.9344 413.658C80.1972 413.793 80.4972 413.861 80.8346 413.861ZM92.4721 418.159V417.584C92.4721 417.162 92.5609 416.773 92.7385 416.418C92.9196 416.062 93.1824 415.777 93.5268 415.56C93.8713 415.343 94.2885 415.235 94.7786 415.235C95.2828 415.235 95.7054 415.343 96.0463 415.56C96.3873 415.773 96.6447 416.057 96.8187 416.412C96.9963 416.767 97.0851 417.158 97.0851 417.584V418.159C97.0851 418.582 96.9963 418.971 96.8187 419.326C96.6412 419.681 96.3801 419.967 96.0357 420.184C95.6948 420.4 95.2757 420.509 94.7786 420.509C94.2814 420.509 93.8606 420.4 93.5162 420.184C93.1717 419.967 92.9107 419.681 92.7331 419.326C92.5591 418.971 92.4721 418.582 92.4721 418.159ZM93.8624 417.584V418.159C93.8624 418.44 93.9299 418.697 94.0648 418.932C94.1998 419.166 94.4377 419.283 94.7786 419.283C95.123 419.283 95.3592 419.168 95.487 418.937C95.6184 418.703 95.6841 418.444 95.6841 418.159V417.584C95.6841 417.3 95.622 417.041 95.4977 416.806C95.3734 416.569 95.1337 416.45 94.7786 416.45C94.4448 416.45 94.2086 416.569 94.0701 416.806C93.9316 417.041 93.8624 417.3 93.8624 417.584ZM86.927 411.917V411.341C86.927 410.915 87.0176 410.524 87.1987 410.169C87.3798 409.814 87.6426 409.53 87.987 409.317C88.3315 409.1 88.7488 408.992 89.2388 408.992C89.7395 408.992 90.1603 409.1 90.5012 409.317C90.8457 409.53 91.1049 409.814 91.2789 410.169C91.4529 410.524 91.54 410.915 91.54 411.341V411.917C91.54 412.343 91.4512 412.733 91.2736 413.088C91.0996 413.44 90.8404 413.722 90.4959 413.935C90.1515 414.148 89.7324 414.255 89.2388 414.255C88.7381 414.255 88.3155 414.148 87.9711 413.935C87.6301 413.722 87.3709 413.438 87.1934 413.083C87.0158 412.728 86.927 412.339 86.927 411.917ZM88.3279 411.341V411.917C88.3279 412.201 88.3936 412.46 88.525 412.694C88.66 412.925 88.8979 413.04 89.2388 413.04C89.5797 413.04 89.8141 412.925 89.9419 412.694C90.0733 412.46 90.139 412.201 90.139 411.917V411.341C90.139 411.057 90.0769 410.798 89.9526 410.564C89.8283 410.326 89.5904 410.207 89.2388 410.207C88.9015 410.207 88.6653 410.326 88.5304 410.564C88.3954 410.801 88.3279 411.061 88.3279 411.341ZM87.5343 420.205L95.0343 409.296H96.3659L88.8659 420.205H87.5343Z" fill="#D14F4F"/>
<rect y="-15" width="258.75" height="143.068" rx="5" fill="white"/>
<path d="M32.952 15.16C31.3413 15.16 30.1413 14.76 29.352 13.96C28.5733 13.1493 28.184 11.9547 28.184 10.376V3.72H30.248V10.36C30.248 11.3627 30.4613 12.12 30.888 12.632C31.3253 13.144 32.0133 13.4 32.952 13.4C33.848 13.4 34.52 13.144 34.968 12.632C35.4267 12.12 35.656 11.3627 35.656 10.36V3.72H37.688V10.376C37.688 11.9547 37.288 13.1493 36.488 13.96C35.6987 14.76 34.52 15.16 32.952 15.16ZM39.9318 18.456V8.936C39.9318 8.60533 39.9211 8.26933 39.8997 7.928C39.8784 7.58667 39.8464 7.25067 39.8038 6.92H41.7398L41.9158 8.616H41.7398C41.8998 8.05067 42.2358 7.60267 42.7478 7.272C43.2704 6.93067 43.8731 6.76 44.5558 6.76C45.2704 6.76 45.8944 6.93067 46.4278 7.272C46.9611 7.60267 47.3771 8.08267 47.6758 8.712C47.9744 9.33067 48.1238 10.0773 48.1238 10.952C48.1238 11.8267 47.9744 12.5787 47.6758 13.208C47.3771 13.8373 46.9611 14.3227 46.4278 14.664C45.8944 14.9947 45.2704 15.16 44.5558 15.16C43.8838 15.16 43.2918 14.9947 42.7798 14.664C42.2678 14.3333 41.9264 13.8907 41.7558 13.336H41.9318V18.456H39.9318ZM43.9958 13.624C44.6358 13.624 45.1478 13.4053 45.5318 12.968C45.9158 12.52 46.1078 11.848 46.1078 10.952C46.1078 10.056 45.9158 9.38933 45.5318 8.952C45.1478 8.51467 44.6358 8.296 43.9958 8.296C43.3664 8.296 42.8598 8.51467 42.4758 8.952C42.0918 9.38933 41.8998 10.056 41.8998 10.952C41.8998 11.848 42.0918 12.52 42.4758 12.968C42.8598 13.4053 43.3664 13.624 43.9958 13.624ZM53.5656 15.16C52.7336 15.16 52.003 14.9893 51.3736 14.648C50.755 14.3067 50.275 13.8213 49.9336 13.192C49.5923 12.552 49.4216 11.7947 49.4216 10.92C49.4216 10.0453 49.5923 9.29867 49.9336 8.68C50.2856 8.06133 50.771 7.58667 51.3896 7.256C52.0083 6.92533 52.7336 6.76 53.5656 6.76C54.099 6.76 54.6163 6.84533 55.1176 7.016C55.6296 7.176 56.0456 7.41067 56.3656 7.72L55.7576 9.112C55.4696 8.84533 55.1443 8.648 54.7816 8.52C54.4296 8.38133 54.083 8.312 53.7416 8.312C53.027 8.312 52.467 8.536 52.0616 8.984C51.667 9.432 51.4696 10.0827 51.4696 10.936C51.4696 11.7893 51.667 12.4453 52.0616 12.904C52.467 13.3627 53.027 13.592 53.7416 13.592C54.0723 13.592 54.4136 13.528 54.7656 13.4C55.1283 13.272 55.459 13.0747 55.7576 12.808L56.3656 14.184C56.035 14.4933 55.6136 14.7333 55.1016 14.904C54.6003 15.0747 54.0883 15.16 53.5656 15.16ZM61.4079 15.16C60.5759 15.16 59.8559 14.9893 59.2479 14.648C58.6399 14.3067 58.1652 13.8213 57.8239 13.192C57.4932 12.5627 57.3279 11.816 57.3279 10.952C57.3279 10.088 57.4932 9.34667 57.8239 8.728C58.1652 8.09867 58.6399 7.61333 59.2479 7.272C59.8559 6.93067 60.5759 6.76 61.4079 6.76C62.2399 6.76 62.9599 6.93067 63.5679 7.272C64.1865 7.61333 64.6612 8.09867 64.9919 8.728C65.3332 9.34667 65.5039 10.088 65.5039 10.952C65.5039 11.816 65.3332 12.5627 64.9919 13.192C64.6612 13.8213 64.1865 14.3067 63.5679 14.648C62.9599 14.9893 62.2399 15.16 61.4079 15.16ZM61.4079 13.624C62.0372 13.624 62.5385 13.4053 62.9119 12.968C63.2852 12.52 63.4719 11.848 63.4719 10.952C63.4719 10.056 63.2852 9.38933 62.9119 8.952C62.5385 8.51467 62.0372 8.296 61.4079 8.296C60.7785 8.296 60.2772 8.51467 59.9039 8.952C59.5305 9.38933 59.3439 10.056 59.3439 10.952C59.3439 11.848 59.5305 12.52 59.9039 12.968C60.2772 13.4053 60.7785 13.624 61.4079 13.624ZM67.2286 15V8.936C67.2286 8.60533 67.218 8.26933 67.1966 7.928C67.1753 7.58667 67.1433 7.25067 67.1006 6.92H69.0366L69.1966 8.52H69.0046C69.2286 7.96533 69.57 7.53333 70.0286 7.224C70.498 6.91467 71.0526 6.76 71.6926 6.76C72.3326 6.76 72.8606 6.91467 73.2766 7.224C73.7033 7.52267 74.002 7.992 74.1726 8.632H73.9166C74.1406 8.056 74.5086 7.60267 75.0206 7.272C75.5326 6.93067 76.1193 6.76 76.7806 6.76C77.6873 6.76 78.3646 7.02667 78.8126 7.56C79.2606 8.09333 79.4846 8.92533 79.4846 10.056V15H77.4846V10.136C77.4846 9.496 77.378 9.03733 77.1646 8.76C76.9513 8.472 76.61 8.328 76.1406 8.328C75.586 8.328 75.1486 8.52533 74.8286 8.92C74.5086 9.304 74.3486 9.82667 74.3486 10.488V15H72.3486V10.136C72.3486 9.496 72.242 9.03733 72.0286 8.76C71.8153 8.472 71.474 8.328 71.0046 8.328C70.45 8.328 70.0126 8.52533 69.6926 8.92C69.3833 9.304 69.2286 9.82667 69.2286 10.488V15H67.2286ZM81.6193 15V6.92H83.6193V15H81.6193ZM81.5073 5.4V3.448H83.7313V5.4H81.5073ZM85.7911 15V8.936C85.7911 8.60533 85.7805 8.26933 85.7591 7.928C85.7378 7.58667 85.7058 7.25067 85.6631 6.92H87.5991L87.7591 8.52H87.5671C87.8231 7.95467 88.2018 7.52267 88.7031 7.224C89.2045 6.91467 89.7858 6.76 90.4471 6.76C91.3965 6.76 92.1111 7.02667 92.5911 7.56C93.0711 8.09333 93.3111 8.92533 93.3111 10.056V15H91.3111V10.152C91.3111 9.50133 91.1831 9.03733 90.9271 8.76C90.6818 8.472 90.3085 8.328 89.8071 8.328C89.1885 8.328 88.6978 8.52 88.3351 8.904C87.9725 9.288 87.7911 9.8 87.7911 10.44V15H85.7911ZM99.1758 18.584C98.4291 18.584 97.7518 18.504 97.1438 18.344C96.5464 18.184 96.0131 17.9387 95.5438 17.608L95.9758 16.168C96.2851 16.3707 96.6051 16.536 96.9358 16.664C97.2664 16.792 97.6078 16.888 97.9598 16.952C98.3118 17.016 98.6691 17.048 99.0318 17.048C99.7784 17.048 100.333 16.8613 100.696 16.488C101.069 16.1253 101.256 15.6027 101.256 14.92V12.984H101.416C101.245 13.5387 100.898 13.9813 100.376 14.312C99.8638 14.6427 99.2718 14.808 98.5998 14.808C97.8744 14.808 97.2398 14.648 96.6957 14.328C96.1624 13.9973 95.7464 13.528 95.4478 12.92C95.1491 12.312 94.9998 11.5973 94.9998 10.776C94.9998 9.95467 95.1491 9.24533 95.4478 8.648C95.7464 8.04 96.1624 7.576 96.6957 7.256C97.2398 6.92533 97.8744 6.76 98.5998 6.76C99.2824 6.76 99.8744 6.92533 100.376 7.256C100.888 7.576 101.229 8.01333 101.4 8.568L101.256 8.472L101.416 6.92H103.352C103.309 7.25067 103.277 7.58667 103.256 7.928C103.234 8.26933 103.224 8.60533 103.224 8.936V14.68C103.224 15.9493 102.877 16.9147 102.184 17.576C101.501 18.248 100.498 18.584 99.1758 18.584ZM99.1438 13.272C99.7838 13.272 100.29 13.0587 100.664 12.632C101.048 12.1947 101.24 11.576 101.24 10.776C101.24 9.976 101.048 9.36267 100.664 8.936C100.29 8.50933 99.7838 8.296 99.1438 8.296C98.4931 8.296 97.9758 8.50933 97.5918 8.936C97.2078 9.36267 97.0158 9.976 97.0158 10.776C97.0158 11.576 97.2078 12.1947 97.5918 12.632C97.9758 13.0587 98.4931 13.272 99.1438 13.272Z" fill="#A1A0BD"/>
<path d="M34.569 63.5571V38.0661H36.483V63.5571H34.569ZM35.787 61.3821C34.3177 61.3821 33.003 61.1307 31.843 60.6281C30.683 60.1254 29.7743 59.3907 29.117 58.4241C28.4597 57.4574 28.1117 56.2877 28.073 54.9151H32.22C32.2587 55.5144 32.4133 56.0557 32.684 56.5391C32.974 57.0224 33.38 57.4091 33.902 57.6991C34.424 57.9697 35.0427 58.1051 35.758 58.1051C36.3767 58.1051 36.9083 58.0084 37.353 57.8151C37.817 57.6217 38.1747 57.3414 38.426 56.9741C38.6967 56.6067 38.832 56.1621 38.832 55.6401C38.832 55.0601 38.687 54.5767 38.397 54.1901C38.107 53.7841 37.701 53.4457 37.179 53.1751C36.6763 52.9044 36.106 52.6627 35.468 52.4501C34.83 52.2181 34.1533 51.9861 33.438 51.7541C31.8527 51.2127 30.6347 50.5071 29.784 49.6371C28.9527 48.7671 28.537 47.6167 28.537 46.1861C28.537 44.9681 28.827 43.9337 29.407 43.0831C30.0063 42.2131 30.8183 41.5461 31.843 41.0821C32.887 40.6181 34.0857 40.3861 35.439 40.3861C36.8117 40.3861 38.0103 40.6277 39.035 41.1111C40.079 41.5751 40.9007 42.2517 41.5 43.1411C42.0993 44.0304 42.4183 45.0744 42.457 46.2731H38.252C38.252 45.8091 38.1263 45.3837 37.875 44.9971C37.643 44.5911 37.3143 44.2721 36.889 44.0401C36.4637 43.7887 35.9513 43.6631 35.352 43.6631C34.8493 43.6437 34.395 43.7211 33.989 43.8951C33.583 44.0691 33.2543 44.3204 33.003 44.6491C32.771 44.9777 32.655 45.4031 32.655 45.9251C32.655 46.4084 32.771 46.8144 33.003 47.1431C33.235 47.4717 33.5637 47.7521 33.989 47.9841C34.4143 48.2161 34.9073 48.4384 35.468 48.6511C36.048 48.8637 36.686 49.0861 37.382 49.3181C38.3873 49.6661 39.3153 50.0817 40.166 50.5651C41.0167 51.0291 41.6933 51.6381 42.196 52.3921C42.6987 53.1461 42.95 54.1321 42.95 55.3501C42.95 56.4327 42.6697 57.4284 42.109 58.3371C41.5677 59.2457 40.7653 59.9804 39.702 60.5411C38.6387 61.1017 37.3337 61.3821 35.787 61.3821ZM45.2951 61.0341V58.1631C46.5131 57.1771 47.7021 56.1911 48.8621 55.2051C50.0221 54.2191 51.0661 53.2427 51.9941 52.2761C52.9221 51.2901 53.6471 50.3331 54.1691 49.4051C54.7105 48.4771 54.9811 47.5781 54.9811 46.7081C54.9811 46.1667 54.8845 45.6737 54.6911 45.2291C54.4978 44.7651 54.1981 44.3977 53.7921 44.1271C53.3861 43.8371 52.8448 43.6921 52.1681 43.6921C51.5108 43.6921 50.9501 43.8467 50.4861 44.1561C50.0221 44.4654 49.6741 44.8811 49.4421 45.4031C49.2101 45.9057 49.0941 46.4761 49.0941 47.1141H45.3241C45.3628 45.6254 45.6915 44.3784 46.3101 43.3731C46.9288 42.3677 47.7601 41.6234 48.8041 41.1401C49.8481 40.6374 51.0081 40.3861 52.2841 40.3861C53.7148 40.3861 54.9135 40.6567 55.8801 41.1981C56.8661 41.7201 57.6105 42.4354 58.1131 43.3441C58.6351 44.2527 58.8961 45.2967 58.8961 46.4761C58.8961 47.3654 58.7318 48.2354 58.4031 49.0861C58.0938 49.9367 57.6491 50.7681 57.0691 51.5801C56.5085 52.3727 55.8705 53.1364 55.1551 53.8711C54.4591 54.6057 53.7245 55.3114 52.9511 55.9881C52.1971 56.6454 51.4528 57.2641 50.7181 57.8441H59.3601V61.0341H45.2951ZM70.4857 61.3821C68.5911 61.3821 66.9671 60.9374 65.6137 60.0481C64.2797 59.1587 63.2454 57.9311 62.5107 56.3651C61.7954 54.7797 61.4377 52.9527 61.4377 50.8841C61.4377 48.8154 61.7954 46.9981 62.5107 45.4321C63.2454 43.8467 64.2797 42.6094 65.6137 41.7201C66.9671 40.8307 68.5911 40.3861 70.4857 40.3861C72.3611 40.3861 73.9657 40.8307 75.2997 41.7201C76.6531 42.6094 77.6874 43.8467 78.4027 45.4321C79.1374 46.9981 79.5047 48.8154 79.5047 50.8841C79.5047 52.9527 79.1374 54.7797 78.4027 56.3651C77.6874 57.9311 76.6531 59.1587 75.2997 60.0481C73.9657 60.9374 72.3611 61.3821 70.4857 61.3821ZM70.4567 57.8731C71.4621 57.8731 72.3417 57.5927 73.0957 57.0321C73.8497 56.4521 74.4394 55.6401 74.8647 54.5961C75.2901 53.5521 75.5027 52.3147 75.5027 50.8841C75.5027 49.4341 75.2901 48.1967 74.8647 47.1721C74.4394 46.1281 73.8497 45.3257 73.0957 44.7651C72.3417 44.2044 71.4621 43.9241 70.4567 43.9241C69.4707 43.9241 68.5911 44.2044 67.8177 44.7651C67.0637 45.3257 66.4741 46.1281 66.0487 47.1721C65.6234 48.1967 65.4107 49.4341 65.4107 50.8841C65.4107 52.3147 65.6234 53.5521 66.0487 54.5961C66.4741 55.6401 67.0637 56.4521 67.8177 57.0321C68.5911 57.5927 69.4707 57.8731 70.4567 57.8731ZM84.7843 61.0341V45.2291L81.3913 46.0121V42.9671L86.4373 40.7341H88.8153V61.0341H84.7843Z" fill="#142D6F"/>
<path d="M92.9258 61.1291C92.4571 61.1291 92.0708 60.9897 91.7668 60.7111C91.4754 60.4197 91.3298 60.0651 91.3298 59.6471C91.3298 59.2291 91.4754 58.8807 91.7668 58.6021C92.0708 58.3107 92.4571 58.1651 92.9258 58.1651C93.3944 58.1651 93.7744 58.3107 94.0658 58.6021C94.3571 58.8807 94.5028 59.2291 94.5028 59.6471C94.5028 60.0651 94.3571 60.4197 94.0658 60.7111C93.7744 60.9897 93.3944 61.1291 92.9258 61.1291ZM102.654 61.0341V58.6211H96.1182V56.5881L102.312 47.7341H105.219V56.3981H106.948V58.6211H105.219V61.0341H102.654ZM98.8542 56.3981H102.825V50.5651L98.8542 56.3981ZM113.625 61.2621C112.713 61.2621 111.89 61.0974 111.155 60.7681C110.42 60.4387 109.831 59.9764 109.388 59.3811C108.957 58.7857 108.742 58.0954 108.742 57.3101C108.742 56.7654 108.831 56.2714 109.008 55.8281C109.198 55.3847 109.458 54.9921 109.787 54.6501C110.129 54.3081 110.528 54.0484 110.984 53.8711C110.401 53.6051 109.933 53.2251 109.578 52.7311C109.236 52.2371 109.065 51.6797 109.065 51.0591C109.065 50.4384 109.236 49.8557 109.578 49.3111C109.92 48.7664 110.427 48.3294 111.098 48.0001C111.782 47.6707 112.624 47.5061 113.625 47.5061C114.626 47.5061 115.462 47.6707 116.133 48.0001C116.817 48.3294 117.33 48.7664 117.672 49.3111C118.014 49.8557 118.185 50.4384 118.185 51.0591C118.185 51.6671 118.008 52.2244 117.653 52.7311C117.298 53.2251 116.836 53.6051 116.266 53.8711C116.735 54.0611 117.134 54.3271 117.463 54.6691C117.805 54.9984 118.065 55.3847 118.242 55.8281C118.432 56.2714 118.527 56.7654 118.527 57.3101C118.527 58.0954 118.305 58.7857 117.862 59.3811C117.431 59.9764 116.842 60.4387 116.095 60.7681C115.36 61.0974 114.537 61.2621 113.625 61.2621ZM113.625 59.1151C114.41 59.1151 114.999 58.9251 115.392 58.5451C115.797 58.1651 116 57.6837 116 57.1011C116 56.4551 115.791 55.9484 115.373 55.5811C114.955 55.2011 114.372 55.0111 113.625 55.0111C112.89 55.0111 112.308 55.2011 111.877 55.5811C111.446 55.9484 111.231 56.4551 111.231 57.1011C111.231 57.6837 111.434 58.1651 111.839 58.5451C112.257 58.9251 112.852 59.1151 113.625 59.1151ZM113.625 53.1301C114.271 53.1301 114.771 52.9654 115.126 52.6361C115.481 52.3067 115.658 51.8824 115.658 51.3631C115.658 50.8057 115.481 50.3751 115.126 50.0711C114.771 49.7544 114.271 49.5961 113.625 49.5961C112.979 49.5961 112.479 49.7544 112.124 50.0711C111.782 50.3751 111.611 50.8121 111.611 51.3821C111.611 51.8887 111.788 52.3067 112.143 52.6361C112.498 52.9654 112.992 53.1301 113.625 53.1301Z" fill="#A3BDFF"/>
<rect x="27.5" y="83.5681" width="112" height="31" rx="15.5" stroke="#142D6F" stroke-opacity="0.6"/>
<path d="M49.0284 94.8408L51.2997 101.71H51.3892L53.6562 94.8408H55.3949L52.3182 103.568H50.3665L47.294 94.8408H49.0284ZM56.4762 103.568V97.0227H58.0188V103.568H56.4762ZM57.2518 96.0937C57.0075 96.0937 56.7972 96.0127 56.6211 95.8508C56.445 95.686 56.3569 95.4886 56.3569 95.2585C56.3569 95.0255 56.445 94.8281 56.6211 94.6661C56.7972 94.5014 57.0075 94.419 57.2518 94.419C57.4989 94.419 57.7092 94.5014 57.8825 94.6661C58.0586 94.8281 58.1467 95.0255 58.1467 95.2585C58.1467 95.4886 58.0586 95.686 57.8825 95.8508C57.7092 96.0127 57.4989 96.0937 57.2518 96.0937ZM62.5028 103.696C61.8466 103.696 61.2798 103.56 60.8026 103.287C60.3281 103.011 59.9631 102.622 59.7074 102.119C59.4517 101.614 59.3239 101.018 59.3239 100.334C59.3239 99.6604 59.4517 99.0695 59.7074 98.561C59.9659 98.0496 60.3267 97.6519 60.7898 97.3678C61.2528 97.0809 61.7969 96.9374 62.4219 96.9374C62.8253 96.9374 63.206 97.0028 63.5639 97.1335C63.9247 97.2613 64.2429 97.4602 64.5185 97.73C64.7969 97.9999 65.0156 98.3437 65.1747 98.7613C65.3338 99.1761 65.4134 99.6704 65.4134 100.244V100.717H60.0483V99.6775H63.9347C63.9318 99.382 63.8679 99.1193 63.7429 98.8891C63.6179 98.6562 63.4432 98.4729 63.2188 98.3394C62.9972 98.2059 62.7386 98.1391 62.4432 98.1391C62.1278 98.1391 61.8509 98.2158 61.6122 98.3693C61.3736 98.5198 61.1875 98.7187 61.054 98.9658C60.9233 99.2102 60.8565 99.4786 60.8537 99.7712V100.679C60.8537 101.06 60.9233 101.386 61.0625 101.659C61.2017 101.929 61.3963 102.136 61.6463 102.281C61.8963 102.423 62.1889 102.494 62.5241 102.494C62.7486 102.494 62.9517 102.463 63.1335 102.401C63.3153 102.335 63.473 102.24 63.6065 102.115C63.7401 101.99 63.8409 101.835 63.9091 101.651L65.3494 101.812C65.2585 102.193 65.0852 102.526 64.8295 102.81C64.5767 103.091 64.2528 103.31 63.858 103.466C63.4631 103.619 63.0114 103.696 62.5028 103.696ZM68.0341 103.568L66.1847 97.0227H67.7571L68.9077 101.625H68.9673L70.1435 97.0227H71.6989L72.875 101.599H72.9389L74.0724 97.0227H75.6491L73.7955 103.568H72.1889L70.9616 99.1448H70.8722L69.6449 103.568H68.0341ZM82.7283 103.568H79.771V94.8408H82.788C83.6545 94.8408 84.3988 95.0156 85.021 95.365C85.646 95.7116 86.1261 96.2102 86.4613 96.8607C86.7965 97.5113 86.9641 98.2897 86.9641 99.196C86.9641 100.105 86.7951 100.886 86.457 101.54C86.1218 102.193 85.6374 102.695 85.0039 103.044C84.3732 103.393 83.6147 103.568 82.7283 103.568ZM81.3519 102.2H82.6516C83.2596 102.2 83.7667 102.089 84.1729 101.868C84.5792 101.643 84.8846 101.31 85.0891 100.866C85.2937 100.42 85.396 99.8636 85.396 99.196C85.396 98.5283 85.2937 97.9744 85.0891 97.534C84.8846 97.0908 84.582 96.7599 84.1815 96.5411C83.7837 96.3195 83.2894 96.2087 82.6985 96.2087H81.3519V102.2ZM91.2958 103.696C90.6396 103.696 90.0728 103.56 89.5955 103.287C89.1211 103.011 88.756 102.622 88.5004 102.119C88.2447 101.614 88.1168 101.018 88.1168 100.334C88.1168 99.6604 88.2447 99.0695 88.5004 98.561C88.7589 98.0496 89.1197 97.6519 89.5827 97.3678C90.0458 97.0809 90.5898 96.9374 91.2148 96.9374C91.6183 96.9374 91.9989 97.0028 92.3569 97.1335C92.7177 97.2613 93.0359 97.4602 93.3114 97.73C93.5898 97.9999 93.8086 98.3437 93.9677 98.7613C94.1268 99.1761 94.2063 99.6704 94.2063 100.244V100.717H88.8413V99.6775H92.7276C92.7248 99.382 92.6609 99.1193 92.5359 98.8891C92.4109 98.6562 92.2362 98.4729 92.0117 98.3394C91.7901 98.2059 91.5316 98.1391 91.2362 98.1391C90.9208 98.1391 90.6438 98.2158 90.4052 98.3693C90.1665 98.5198 89.9805 98.7187 89.8469 98.9658C89.7163 99.2102 89.6495 99.4786 89.6467 99.7712V100.679C89.6467 101.06 89.7163 101.386 89.8555 101.659C89.9947 101.929 90.1893 102.136 90.4393 102.281C90.6893 102.423 90.9819 102.494 91.3171 102.494C91.5415 102.494 91.7447 102.463 91.9265 102.401C92.1083 102.335 92.266 102.24 92.3995 102.115C92.533 101.99 92.6339 101.835 92.7021 101.651L94.1424 101.812C94.0515 102.193 93.8782 102.526 93.6225 102.81C93.3697 103.091 93.0458 103.31 92.6509 103.466C92.256 103.619 91.8043 103.696 91.2958 103.696ZM98.7798 97.0227V98.2158H95.017V97.0227H98.7798ZM95.946 95.4545H97.4886V101.599C97.4886 101.807 97.5199 101.966 97.5824 102.077C97.6477 102.185 97.733 102.258 97.8381 102.298C97.9432 102.338 98.0597 102.358 98.1875 102.358C98.2841 102.358 98.3722 102.351 98.4517 102.337C98.5341 102.322 98.5966 102.31 98.6392 102.298L98.8991 103.504C98.8168 103.533 98.6989 103.564 98.5455 103.598C98.3949 103.632 98.2102 103.652 97.9915 103.658C97.6051 103.669 97.2571 103.611 96.9474 103.483C96.6378 103.352 96.392 103.151 96.2102 102.878C96.0313 102.605 95.9432 102.264 95.946 101.855V95.4545ZM101.953 103.7C101.539 103.7 101.165 103.626 100.833 103.479C100.503 103.328 100.242 103.106 100.049 102.814C99.8583 102.521 99.7631 102.16 99.7631 101.731C99.7631 101.362 99.8313 101.057 99.9677 100.815C100.104 100.574 100.29 100.381 100.526 100.236C100.762 100.091 101.027 99.9815 101.323 99.9076C101.621 99.8309 101.929 99.7755 102.248 99.7414C102.631 99.7016 102.942 99.6661 103.181 99.6349C103.419 99.6008 103.593 99.5496 103.701 99.4815C103.811 99.4104 103.867 99.3011 103.867 99.1533V99.1278C103.867 98.8068 103.772 98.5582 103.581 98.382C103.391 98.2059 103.117 98.1178 102.759 98.1178C102.381 98.1178 102.081 98.2002 101.86 98.365C101.641 98.5298 101.493 98.7244 101.417 98.9488L99.9762 98.7443C100.09 98.3465 100.277 98.0141 100.539 97.7471C100.8 97.4772 101.12 97.2755 101.498 97.142C101.875 97.0056 102.293 96.9374 102.75 96.9374C103.066 96.9374 103.38 96.9744 103.692 97.0482C104.005 97.1221 104.29 97.2443 104.549 97.4147C104.807 97.5823 105.015 97.811 105.171 98.1008C105.33 98.3906 105.409 98.7528 105.409 99.1874V103.568H103.926V102.669H103.875C103.782 102.851 103.65 103.021 103.479 103.18C103.311 103.337 103.1 103.463 102.844 103.56C102.591 103.653 102.294 103.7 101.953 103.7ZM102.354 102.567C102.664 102.567 102.932 102.506 103.159 102.383C103.387 102.258 103.561 102.094 103.684 101.889C103.809 101.685 103.871 101.462 103.871 101.22V100.449C103.823 100.489 103.74 100.526 103.624 100.56C103.51 100.594 103.382 100.624 103.24 100.649C103.098 100.675 102.958 100.697 102.819 100.717C102.679 100.737 102.559 100.754 102.456 100.768C102.226 100.8 102.02 100.851 101.838 100.922C101.657 100.993 101.513 101.092 101.408 101.22C101.303 101.345 101.25 101.507 101.25 101.706C101.25 101.99 101.354 102.204 101.561 102.349C101.769 102.494 102.033 102.567 102.354 102.567ZM106.961 103.568V97.0227H108.503V103.568H106.961ZM107.736 96.0937C107.492 96.0937 107.282 96.0127 107.105 95.8508C106.929 95.686 106.841 95.4886 106.841 95.2585C106.841 95.0255 106.929 94.8281 107.105 94.6661C107.282 94.5014 107.492 94.419 107.736 94.419C107.983 94.419 108.194 94.5014 108.367 94.6661C108.543 94.8281 108.631 95.0255 108.631 95.2585C108.631 95.4886 108.543 95.686 108.367 95.8508C108.194 96.0127 107.983 96.0937 107.736 96.0937ZM111.632 94.8408V103.568H110.089V94.8408H111.632ZM118.392 98.7528L116.985 98.9062C116.946 98.7641 116.876 98.6306 116.777 98.5056C116.68 98.3806 116.549 98.2798 116.385 98.2031C116.22 98.1264 116.018 98.088 115.779 98.088C115.458 98.088 115.189 98.1576 114.97 98.2968C114.754 98.436 114.647 98.6164 114.65 98.838C114.647 99.0283 114.717 99.1832 114.859 99.3025C115.004 99.4218 115.243 99.5198 115.575 99.5965L116.691 99.8352C117.311 99.9687 117.771 100.18 118.072 100.47C118.376 100.76 118.529 101.139 118.532 101.608C118.529 102.02 118.409 102.383 118.17 102.699C117.934 103.011 117.606 103.256 117.186 103.432C116.765 103.608 116.282 103.696 115.737 103.696C114.936 103.696 114.291 103.528 113.802 103.193C113.314 102.855 113.022 102.385 112.929 101.783L114.433 101.638C114.501 101.933 114.646 102.156 114.868 102.307C115.089 102.457 115.377 102.533 115.733 102.533C116.099 102.533 116.393 102.457 116.615 102.307C116.839 102.156 116.951 101.97 116.951 101.749C116.951 101.561 116.879 101.406 116.734 101.284C116.592 101.162 116.37 101.068 116.069 101.003L114.953 100.768C114.325 100.638 113.86 100.418 113.559 100.108C113.258 99.7954 113.109 99.4005 113.112 98.9232C113.109 98.5198 113.218 98.1704 113.44 97.8749C113.664 97.5766 113.975 97.3465 114.373 97.1846C114.774 97.0198 115.235 96.9374 115.758 96.9374C116.525 96.9374 117.129 97.1008 117.569 97.4275C118.012 97.7542 118.287 98.196 118.392 98.7528Z" fill="#142D6F" fill-opacity="0.6"/>
</svg>
