<svg width="1920" height="40" viewBox="0 0 1920 40" fill="none" xmlns="http://www.w3.org/2000/svg">
<mask id="mask0_0_2366" style="mask-type:alpha" maskUnits="userSpaceOnUse" x="0" y="0" width="1920" height="40">
<rect width="1920" height="40" fill="black"/>
</mask>
<g mask="url(#mask0_0_2366)">
<path d="M5.86604 30.1678C3.22268 30.1678 0.909731 29.7316 -1.07279 28.8593C-3.02889 27.9606 -4.64134 26.6653 -5.91016 24.9736L-2.22266 21.9205C-1.08601 23.2157 0.143155 24.1938 1.46484 24.8546C2.78652 25.5155 4.34611 25.8459 6.1436 25.8459C7.70318 25.8459 8.98522 25.5023 9.9897 24.815C10.9942 24.1013 11.4964 23.1629 11.4964 21.9998C11.4964 21.5768 11.4171 21.1936 11.2585 20.8499C11.0999 20.5063 10.8224 20.1759 10.4259 19.8587C10.0293 19.5415 9.50067 19.2243 8.83983 18.907C8.17899 18.5634 7.35955 18.1933 6.3815 17.7968C5.32415 17.3739 4.35933 16.9245 3.48701 16.4487C2.6147 15.9729 1.86134 15.4442 1.22693 14.8627C0.592527 14.2812 0.103504 13.6203 -0.240134 12.8802C-0.583771 12.14 -0.75559 11.2942 -0.75559 10.3425C-0.75559 9.04729 -0.478037 7.85777 0.0770702 6.77399C0.632177 5.69021 1.38554 4.77825 2.33715 4.03811C3.3152 3.27153 4.45184 2.67677 5.74709 2.25383C7.04234 1.8309 8.43011 1.61943 9.9104 1.61943C12.2366 1.61943 14.2323 2.00271 15.8976 2.76929C17.5629 3.50943 18.9639 4.51391 20.1006 5.78273L16.6906 9.11337C15.6333 8.08246 14.5363 7.30267 13.3996 6.77399C12.2894 6.21889 11.0074 5.94133 9.55354 5.94133C8.7341 5.94133 8.00717 6.04707 7.37276 6.25853C6.73836 6.47 6.19646 6.74756 5.74709 7.0912C5.32415 7.4084 4.99373 7.79169 4.75583 8.24106C4.51793 8.664 4.39898 9.11337 4.39898 9.58918C4.39898 10.0386 4.49149 10.4351 4.67653 10.7787C4.86156 11.1223 5.16555 11.4528 5.58849 11.77C6.01143 12.0872 6.56654 12.4176 7.25381 12.7612C7.94109 13.0784 8.78697 13.4353 9.79144 13.8318C10.8488 14.2547 11.8004 14.7041 12.6463 15.1799C13.5186 15.6293 14.2455 16.1579 14.8271 16.7659C15.435 17.3475 15.8976 18.0083 16.2148 18.7484C16.532 19.4886 16.6906 20.3345 16.6906 21.2861C16.6906 22.6342 16.3999 23.8634 15.8183 24.9736C15.2368 26.0574 14.457 26.9958 13.4789 27.7888C12.5009 28.5553 11.351 29.1501 10.0293 29.573C8.70766 29.9695 7.3199 30.1678 5.86604 30.1678Z" fill="#142D6F"/>
<path d="M30.3193 26.1234C31.2709 26.1234 32.196 25.8988 33.0948 25.4494C34.02 25 34.8262 24.392 35.5135 23.6255C36.2272 22.8589 36.7955 21.9734 37.2184 20.9689C37.6414 19.9644 37.8529 18.907 37.8529 17.7968C37.8529 16.2372 37.3638 14.9684 36.3858 13.9904C35.4077 13.0123 34.1257 12.5233 32.5397 12.5233C31.5616 12.5233 30.6365 12.748 29.7641 13.1974C28.8918 13.6203 28.1253 14.2151 27.4644 14.9816C26.8036 15.7218 26.2749 16.6073 25.8784 17.6382C25.5083 18.6691 25.3233 19.7661 25.3233 20.9292C25.3233 22.5152 25.7727 23.7841 26.6714 24.7357C27.5966 25.6609 28.8125 26.1234 30.3193 26.1234ZM35.1963 26.9561C34.2711 27.9341 33.2666 28.7272 32.1828 29.3351C31.099 29.9167 29.8699 30.2074 28.4953 30.2074C27.3322 30.2074 26.2485 30.0092 25.244 29.6127C24.2659 29.1897 23.4069 28.595 22.6667 27.8284C21.9266 27.0354 21.345 26.097 20.9221 25.0132C20.5256 23.903 20.3273 22.6474 20.3273 21.2464C20.3273 19.3961 20.6445 17.6911 21.2789 16.1315C21.9398 14.5455 22.8121 13.1842 23.8959 12.0475C24.9797 10.9109 26.222 10.0253 27.623 9.39093C29.024 8.73008 30.4779 8.39966 31.9846 8.39966C33.8349 8.39966 35.3152 8.79617 36.4254 9.58918C37.5356 10.3558 38.408 11.3338 39.0424 12.5233L40.0336 8.83582H44.8313L37.1391 37.7014H32.3414L35.1963 26.9561Z" fill="#142D6F"/>
<path d="M52.562 30.2074C50.6059 30.2074 49.0463 29.6523 47.8832 28.5421C46.7465 27.4055 46.1782 25.8723 46.1782 23.9427C46.1782 23.3876 46.2443 22.7928 46.3765 22.1584C46.5086 21.4975 46.654 20.8631 46.8126 20.2552L49.8657 8.83582H54.6634L51.531 20.4534C51.4517 20.7706 51.3857 21.1275 51.3328 21.524C51.2799 21.9205 51.2535 22.2641 51.2535 22.5549C51.2535 23.6122 51.5575 24.4317 52.1654 25.0132C52.7999 25.5683 53.6986 25.8459 54.8617 25.8459C56.2098 25.8459 57.3993 25.3701 58.4302 24.4185C59.4611 23.4404 60.1881 22.1716 60.611 20.612L63.783 8.83582H68.5808L62.99 29.7713H58.1923L58.906 27.0751C58.0602 27.9209 57.1218 28.6611 56.0908 29.2955C55.0864 29.9035 53.9101 30.2074 52.562 30.2074Z" fill="#142D6F"/>
<path d="M76.7553 26.6786C77.4954 26.6786 78.2091 26.5464 78.8964 26.282C79.5837 26.0177 80.2049 25.6609 80.76 25.2115C81.3415 24.7357 81.8305 24.207 82.227 23.6255C82.65 23.0175 82.9407 22.3963 83.0993 21.7619L83.3372 20.8499C82.6764 20.6385 81.9495 20.4534 81.1565 20.2948C80.3635 20.1362 79.5044 20.0569 78.5792 20.0569C76.9667 20.0569 75.6979 20.4138 74.7727 21.1275C73.874 21.8148 73.4246 22.7135 73.4246 23.8237C73.4246 24.7489 73.7154 25.4626 74.2969 25.9648C74.9049 26.4406 75.7243 26.6786 76.7553 26.6786ZM74.8917 30.2074C73.9929 30.2074 73.1471 30.0621 72.3541 29.7713C71.5875 29.507 70.9134 29.1369 70.3319 28.6611C69.7768 28.1588 69.3274 27.5509 68.9838 26.8372C68.6666 26.1234 68.508 25.3304 68.508 24.4581C68.508 23.2422 68.7326 22.1716 69.182 21.2464C69.6578 20.2948 70.3055 19.5018 71.1249 18.8674C71.9708 18.233 72.962 17.7572 74.0987 17.44C75.2353 17.0963 76.4777 16.9245 77.8258 16.9245C78.9889 16.9245 80.0859 17.017 81.1168 17.2021C82.1742 17.3871 83.1654 17.6382 84.0906 17.9554L84.2096 17.5193C84.2889 17.2021 84.3417 16.9245 84.3682 16.6866C84.421 16.4487 84.4475 16.1712 84.4475 15.854C84.4475 14.9288 84.0906 14.1886 83.3769 13.6335C82.6632 13.052 81.5001 12.7612 79.8876 12.7612C78.8303 12.7612 77.8126 12.867 76.8346 13.0784C75.8829 13.2899 74.9842 13.5674 74.1383 13.9111L73.3453 9.94603C74.4291 9.49666 75.5922 9.15302 76.8346 8.91512C78.0769 8.65078 79.4118 8.51862 80.8393 8.51862C83.6148 8.51862 85.7031 9.08694 87.104 10.2236C88.5315 11.3602 89.2452 12.9595 89.2452 15.0213C89.2452 15.5235 89.2055 16.0126 89.1262 16.4884C89.0469 16.9642 88.9412 17.4664 88.809 17.9951L85.6766 29.7713H80.9582L81.6719 27.0354C80.7467 28.0135 79.7423 28.7932 78.6585 29.3748C77.5747 29.9299 76.3191 30.2074 74.8917 30.2074Z" fill="#142D6F"/>
<path d="M98.9202 30.2471C97.3342 30.2471 95.6953 29.9431 94.0035 29.3351C92.3382 28.7007 90.8976 27.7491 89.6816 26.4803L92.5365 23.5462C93.6467 24.6564 94.7833 25.4229 95.9464 25.8459C97.1095 26.2688 98.2197 26.4803 99.2771 26.4803C100.229 26.4803 101.022 26.2556 101.656 25.8062C102.317 25.3569 102.647 24.7489 102.647 23.9823C102.647 23.4536 102.396 23.0043 101.894 22.6342C101.418 22.2377 100.652 21.8148 99.5943 21.3654C98.722 21.0217 97.9157 20.6649 97.1756 20.2948C96.4354 19.9247 95.801 19.515 95.2724 19.0657C94.7437 18.5898 94.3207 18.0612 94.0035 17.4796C93.7128 16.8717 93.5674 16.1712 93.5674 15.3782C93.5674 14.4001 93.7524 13.4881 94.1225 12.6423C94.519 11.7964 95.0741 11.0695 95.7878 10.4615C96.5015 9.82708 97.3606 9.33806 98.3651 8.99442C99.3696 8.62435 100.506 8.43931 101.775 8.43931C103.44 8.43931 104.974 8.7433 106.375 9.35127C107.802 9.93282 108.952 10.6069 109.824 11.3735L107.168 14.4662C105.238 12.933 103.321 12.1665 101.418 12.1665C100.387 12.1665 99.5943 12.3911 99.0392 12.8405C98.4841 13.2899 98.2065 13.8582 98.2065 14.5455C98.2065 15.0742 98.4576 15.5368 98.9599 15.9333C99.4885 16.3298 100.348 16.7791 101.537 17.2814C102.33 17.625 103.07 17.9819 103.758 18.3519C104.471 18.722 105.079 19.1317 105.581 19.5811C106.11 20.0305 106.52 20.5459 106.811 21.1275C107.128 21.709 107.286 22.3831 107.286 23.1497C107.286 24.2334 107.075 25.2115 106.652 26.0838C106.229 26.9561 105.634 27.7095 104.868 28.3439C104.128 28.9518 103.242 29.4277 102.211 29.7713C101.207 30.0885 100.11 30.2471 98.9202 30.2471Z" fill="#142D6F"/>
<path d="M117.201 0.826416H121.999L119.144 11.5321C119.99 10.6862 120.915 9.95925 121.919 9.35127C122.95 8.71687 124.14 8.39966 125.488 8.39966C127.444 8.39966 128.99 8.96799 130.127 10.1046C131.29 11.2149 131.872 12.7348 131.872 14.6644C131.872 15.2196 131.806 15.8275 131.673 16.4884C131.541 17.1228 131.396 17.744 131.237 18.3519L128.224 29.7713H123.426L126.519 18.1537C126.625 17.8101 126.704 17.4532 126.757 17.0831C126.81 16.6866 126.836 16.343 126.836 16.0522C126.836 14.9949 126.519 14.1886 125.884 13.6335C125.25 13.052 124.351 12.7612 123.188 12.7612C121.84 12.7612 120.651 13.2502 119.62 14.2283C118.589 15.1799 117.862 16.4355 117.439 17.9951L114.267 29.7713H109.469L117.201 0.826416Z" fill="#142D6F"/>
<path d="M150.672 17.7572C150.805 17.4135 150.871 16.9377 150.871 16.3298C150.871 15.246 150.54 14.3076 149.879 13.5146C149.219 12.7216 148.161 12.3251 146.707 12.3251C145.069 12.3251 143.641 12.8405 142.425 13.8714C141.209 14.8759 140.337 16.1712 139.808 17.7572H150.672ZM139.293 21.0482C139.319 22.6342 139.782 23.9162 140.681 24.8943C141.606 25.8459 142.954 26.3217 144.725 26.3217C145.729 26.3217 146.641 26.1631 147.461 25.8459C148.307 25.5023 149.179 24.9868 150.078 24.2995L152.377 27.3526C151.373 28.1721 150.223 28.8593 148.928 29.4144C147.633 29.9695 146.073 30.2471 144.249 30.2471C142.795 30.2471 141.474 30.0356 140.284 29.6127C139.121 29.1897 138.13 28.5818 137.31 27.7888C136.491 26.9958 135.856 26.0309 135.407 24.8943C134.958 23.7576 134.733 22.4888 134.733 21.0878C134.733 19.5547 135.024 18.0347 135.605 16.528C136.213 14.9949 137.059 13.6335 138.143 12.444C139.253 11.2281 140.562 10.25 142.068 9.50988C143.575 8.76973 145.24 8.39966 147.064 8.39966C148.412 8.39966 149.602 8.61113 150.633 9.03407C151.664 9.45701 152.536 10.0386 153.25 10.7787C153.963 11.4924 154.505 12.3515 154.875 13.356C155.246 14.334 155.431 15.3914 155.431 16.528C155.431 17.2682 155.351 18.0215 155.193 18.7881C155.034 19.5282 154.809 20.2816 154.519 21.0482H139.293Z" fill="#142D6F"/>
<path fill-rule="evenodd" clip-rule="evenodd" d="M250.288 0H231.289L250.288 18.9992H231.289L250.288 37.9984H269.287L250.288 18.9992H269.287L250.288 0Z" fill="#142D6F"/>
<path fill-rule="evenodd" clip-rule="evenodd" d="M231.289 18.9988H250.288L269.287 37.998H250.288L231.289 18.9988Z" fill="#D0D5E2"/>
<path d="M300.998 25.8834L300.959 29.4167C300.959 29.8233 300.175 30.388 298.606 31.1108C295.664 32.466 292.772 33.1436 289.933 33.1436C286.816 33.1436 284.112 32.4337 281.821 31.014C279.323 29.4651 277.6 27.2193 276.652 24.2765C276.148 22.7018 275.896 21.0013 275.896 19.175C275.896 17.3486 276.142 15.6997 276.632 14.2283C277.123 12.7505 277.807 11.4727 278.684 10.3949C279.569 9.31072 280.614 8.38787 281.821 7.62635C284.222 6.10977 287.084 5.35148 290.407 5.35148C293.498 5.35148 296.183 6.14204 298.461 7.72316C298.777 7.96839 298.936 7.95548 298.936 7.68443V6.69704C298.936 6.44536 298.978 6.27756 299.061 6.19367C299.152 6.10332 299.352 6.05814 299.662 6.05814C299.971 6.05814 300.191 6.10009 300.32 6.18399C300.455 6.26788 300.523 6.4389 300.523 6.69704L300.397 14.0347C300.397 14.2799 300.346 14.4413 300.242 14.5187C300.139 14.5897 299.923 14.6252 299.594 14.6252C299.265 14.6252 299.045 14.5929 298.936 14.5284C298.826 14.4574 298.771 14.3187 298.771 14.1122L298.936 10.8596C298.936 10.5498 298.361 9.93672 297.213 9.02032C295.225 7.44565 292.905 6.65832 290.252 6.65832C288.852 6.65832 287.529 6.97455 286.283 7.60699C285.044 8.23944 283.976 9.10421 283.079 10.2013C282.189 11.292 281.482 12.6117 280.959 14.1606C280.437 15.7029 280.175 17.2421 280.175 18.7781C280.175 20.314 280.346 21.7112 280.688 22.9696C281.03 24.2281 281.527 25.3832 282.179 26.4352C282.831 27.4806 283.596 28.4003 284.473 29.1941C286.338 30.8784 288.529 31.7206 291.046 31.7206C293.273 31.7206 295.063 31.3108 296.419 30.4912C297.045 30.1105 297.367 29.8168 297.387 29.6103C297.464 28.9327 297.503 27.7807 297.503 26.1544C297.503 24.5217 297.413 23.7053 297.232 23.7053H293.776C293.486 23.7053 293.34 23.4698 293.34 22.9987C293.34 22.5211 293.473 22.2823 293.737 22.2823L299.052 22.3985L302.624 22.2823C302.914 22.2823 303.059 22.5211 303.059 22.9987C303.059 23.4698 302.914 23.7053 302.624 23.7053H301.394C301.227 23.7053 301.117 23.8667 301.065 24.1893C301.02 24.5056 300.998 25.0703 300.998 25.8834Z" fill="#142D6F"/>
<path d="M304.832 18.5941C304.645 18.5941 304.551 18.5619 304.551 18.4973C304.551 18.4328 304.561 18.3554 304.58 18.265C304.599 18.1682 304.622 18.0649 304.648 17.9552C304.68 17.8455 304.706 17.739 304.725 17.6358C304.764 17.4809 304.996 17.4035 305.422 17.4035C307.629 17.326 308.952 17.2873 309.391 17.2873C309.836 17.2873 310.078 17.3034 310.117 17.3357C310.162 17.3615 310.185 17.4615 310.185 17.6358L310.146 19.9397V20.2107L310.156 20.3656C310.156 20.3269 310.204 20.2107 310.301 20.0171C310.74 18.9652 311.317 18.1295 312.034 17.5099C312.75 16.8839 313.418 16.5709 314.038 16.5709C314.664 16.5709 315.228 16.7936 315.732 17.2389C316.235 17.6842 316.487 18.0585 316.487 18.3618C316.487 18.6587 316.303 19.0362 315.935 19.4944C315.567 19.9526 315.248 20.1817 314.977 20.1817C314.706 20.1817 314.454 20.1172 314.222 19.9881C313.989 19.8526 313.786 19.7074 313.612 19.5525C313.147 19.1265 312.782 18.9136 312.518 18.9136C311.092 18.9136 310.378 21.5692 310.378 26.8805C310.378 29.7587 310.498 31.1979 310.737 31.1979H313.35C313.57 31.1979 313.712 31.2495 313.776 31.3528C313.841 31.4496 313.873 31.5851 313.873 31.7593C313.873 31.9271 313.87 32.0401 313.863 32.0982C313.857 32.1562 313.838 32.2208 313.805 32.2918C313.747 32.4337 313.596 32.5047 313.35 32.5047L309.033 32.4273L305.5 32.5047C305.28 32.5047 305.138 32.4531 305.074 32.3498C305.016 32.253 304.987 32.1143 304.987 31.9336C304.987 31.7464 304.99 31.6238 304.996 31.5657C305.003 31.5077 305.019 31.4463 305.045 31.3818C305.09 31.2592 305.229 31.1979 305.461 31.1979H307.203C307.416 31.1979 307.523 29.0844 307.523 24.8573C307.523 20.6302 307.416 18.5167 307.203 18.5167L304.832 18.5941Z" fill="#142D6F"/>
<path d="M329.024 23.5117L320.176 23.3084C320.098 23.502 320.06 24.0151 320.06 24.8476C320.06 25.6801 320.221 26.5094 320.544 27.3354C320.866 28.1615 321.292 28.8391 321.821 29.3683C322.951 30.4848 324.254 31.043 325.732 31.043C327.533 31.043 329.172 30.2718 330.65 28.7294C330.824 28.5552 330.934 28.468 330.979 28.468C331.024 28.468 331.163 28.5713 331.395 28.7778C331.634 28.9779 331.753 29.1037 331.753 29.1553C331.753 29.207 331.647 29.3683 331.434 29.6394C331.227 29.9039 330.911 30.2299 330.485 30.6171C330.066 30.9978 329.585 31.3689 329.043 31.7303C327.739 32.5951 326.4 33.0275 325.026 33.0275C323.657 33.0275 322.483 32.8274 321.502 32.4273C320.521 32.0336 319.708 31.4818 319.062 30.7719C318.424 30.0556 317.933 29.207 317.591 28.226C317.256 27.2386 317.088 26.1544 317.088 24.9734C317.088 23.7925 317.288 22.6824 317.688 21.6434C318.088 20.6044 318.64 19.7074 319.343 18.9523C320.873 17.3131 322.841 16.4935 325.248 16.4935C327.204 16.4935 328.714 17.1453 329.779 18.4489C330.779 19.6751 331.279 21.1626 331.279 22.9115C331.279 23.3117 330.527 23.5117 329.024 23.5117ZM327.417 22.2242C328.01 22.2242 328.307 22.1758 328.307 22.079C328.307 20.1817 327.72 18.8652 326.545 18.1295C325.977 17.7745 325.387 17.5971 324.774 17.5971C324.167 17.5971 323.583 17.7455 323.022 18.0424C322.467 18.3392 321.996 18.7167 321.608 19.175C320.782 20.1623 320.331 21.1723 320.253 22.2049C320.253 22.334 320.373 22.3985 320.611 22.3985L327.417 22.2242Z" fill="#142D6F"/>
<path d="M345.036 23.5117L336.188 23.3084C336.11 23.502 336.072 24.0151 336.072 24.8476C336.072 25.6801 336.233 26.5094 336.556 27.3354C336.878 28.1615 337.304 28.8391 337.833 29.3683C338.963 30.4848 340.266 31.043 341.744 31.043C343.545 31.043 345.184 30.2718 346.662 28.7294C346.836 28.5552 346.946 28.468 346.991 28.468C347.036 28.468 347.175 28.5713 347.407 28.7778C347.646 28.9779 347.765 29.1037 347.765 29.1553C347.765 29.207 347.659 29.3683 347.446 29.6394C347.239 29.9039 346.923 30.2299 346.497 30.6171C346.078 30.9978 345.597 31.3689 345.055 31.7303C343.751 32.5951 342.412 33.0275 341.038 33.0275C339.669 33.0275 338.495 32.8274 337.514 32.4273C336.533 32.0336 335.72 31.4818 335.074 30.7719C334.436 30.0556 333.945 29.207 333.603 28.226C333.267 27.2386 333.1 26.1544 333.1 24.9734C333.1 23.7925 333.3 22.6824 333.7 21.6434C334.1 20.6044 334.652 19.7074 335.355 18.9523C336.885 17.3131 338.853 16.4935 341.26 16.4935C343.216 16.4935 344.726 17.1453 345.791 18.4489C346.791 19.6751 347.291 21.1626 347.291 22.9115C347.291 23.3117 346.539 23.5117 345.036 23.5117ZM343.429 22.2242C344.022 22.2242 344.319 22.1758 344.319 22.079C344.319 20.1817 343.732 18.8652 342.557 18.1295C341.989 17.7745 341.399 17.5971 340.786 17.5971C340.179 17.5971 339.595 17.7455 339.034 18.0424C338.479 18.3392 338.008 18.7167 337.62 19.175C336.794 20.1623 336.343 21.1723 336.265 22.2049C336.265 22.334 336.385 22.3985 336.623 22.3985L343.429 22.2242Z" fill="#142D6F"/>
<path d="M351.425 18.5457L348.986 18.7103C348.857 18.7103 348.792 18.649 348.792 18.5264C348.792 18.4038 348.847 18.2037 348.957 17.9262C349.067 17.6422 349.147 17.4841 349.199 17.4519C349.257 17.4131 349.392 17.3873 349.605 17.3744C349.818 17.3551 350.512 17.3099 351.687 17.2389C352.868 17.1614 353.574 17.113 353.807 17.0937C354.039 17.0743 354.178 17.0711 354.223 17.084C354.268 17.0905 354.307 17.0937 354.339 17.0937C354.378 17.0872 354.41 17.0937 354.436 17.113C354.462 17.1324 354.484 17.1453 354.504 17.1518C354.523 17.1518 354.536 17.1679 354.542 17.2002C354.555 17.226 354.565 17.2453 354.571 17.2583C354.578 17.2712 354.581 17.297 354.581 17.3357V18.991C354.581 19.1459 354.597 19.2234 354.629 19.2234C354.668 19.2234 354.7 19.2137 354.726 19.1943C354.752 19.175 354.778 19.1556 354.804 19.1362C354.881 19.0781 354.962 19.0233 355.046 18.9717C355.136 18.9136 355.33 18.7845 355.627 18.5845C355.923 18.3844 356.159 18.2295 356.333 18.1198C356.507 18.0101 356.756 17.8713 357.079 17.7035C357.408 17.5358 357.711 17.4067 357.989 17.3163C358.692 17.084 359.386 16.9678 360.07 16.9678C360.76 16.9678 361.367 17.0356 361.89 17.1711C362.419 17.3002 362.867 17.4777 363.235 17.7035C363.61 17.923 363.932 18.2101 364.203 18.5651C364.481 18.9136 364.703 19.2814 364.871 19.6686C365.039 20.0494 365.171 20.4947 365.268 21.0045C365.436 21.8822 365.52 22.9148 365.52 24.1022L365.326 30.8397C365.326 31.0204 365.339 31.1269 365.365 31.1592C365.391 31.185 365.484 31.1979 365.646 31.1979H366.836C367.094 31.1979 367.269 31.2431 367.359 31.3334C367.456 31.4173 367.504 31.5786 367.504 31.8174C367.504 32.0497 367.469 32.2208 367.398 32.3305C367.327 32.4466 367.165 32.5047 366.914 32.5047L363.942 32.4273L360.486 32.5047C360.209 32.5047 360.041 32.466 359.983 32.3886C359.925 32.3111 359.896 32.1401 359.896 31.8755C359.896 31.4238 360.105 31.1979 360.525 31.1979H362.229C362.39 31.1979 362.471 29.833 362.471 27.1031C362.471 24.3668 362.438 22.7599 362.374 22.2823C362.309 21.8048 362.193 21.3466 362.025 20.9077C361.857 20.4689 361.638 20.1043 361.367 19.8139C360.78 19.1814 359.918 18.8652 358.782 18.8652C357.905 18.8652 356.882 19.1653 355.714 19.7654C355.165 20.0494 354.852 20.2462 354.775 20.3559C354.697 20.4592 354.659 20.598 354.659 20.7722L354.62 30.5687C354.62 30.8784 354.639 31.0624 354.678 31.1204C354.717 31.1721 354.83 31.1979 355.017 31.1979H356.527C356.778 31.1979 356.933 31.2463 356.991 31.3431C357.05 31.4334 357.079 31.569 357.079 31.7497C357.079 31.9239 357.075 32.0401 357.069 32.0982C357.062 32.1562 357.046 32.2208 357.021 32.2918C356.962 32.4337 356.811 32.5047 356.566 32.5047L353.235 32.4273L349.625 32.5047C349.373 32.5047 349.228 32.4595 349.189 32.3692C349.138 32.2401 349.112 32.0627 349.112 31.8368C349.112 31.6109 349.141 31.4496 349.199 31.3528C349.263 31.2495 349.405 31.1979 349.625 31.1979H351.406C351.619 31.1979 351.725 29.3683 351.725 25.7092C351.725 22.05 351.709 19.9945 351.677 19.5428C351.651 19.0846 351.632 18.8265 351.619 18.7684C351.606 18.7103 351.593 18.6651 351.58 18.6329C351.548 18.5748 351.496 18.5457 351.425 18.5457Z" fill="#142D6F"/>
<path d="M365.763 10.7047C365.743 10.9499 365.698 11.1048 365.627 11.1693C365.556 11.2274 365.317 11.2565 364.911 11.2565C364.504 11.2565 364.301 11.1113 364.301 10.8209C364.301 10.8015 364.34 10.5046 364.417 9.93026C364.688 8.02647 364.846 6.76803 364.891 6.15495C364.937 5.53541 365.001 5.18046 365.085 5.09011C365.175 4.99976 365.404 4.95459 365.772 4.95459C366.14 4.95459 366.324 5.07398 366.324 5.31276V5.70965C366.324 5.83872 367.712 5.90326 370.487 5.90326H384.639C387.44 5.90326 388.844 5.7871 388.85 5.55477C388.863 5.32244 388.915 5.16433 389.005 5.08043C389.095 4.99654 389.241 4.95459 389.441 4.95459C389.641 4.95459 389.776 4.95782 389.847 4.96427C389.918 4.97072 389.992 4.99008 390.07 5.02235C390.205 5.07398 390.273 5.23532 390.273 5.50637L390.109 10.8596C390.109 11.0467 390.06 11.1597 389.963 11.1984C389.867 11.2371 389.673 11.2565 389.383 11.2565C389.099 11.2565 388.905 11.2177 388.802 11.1403C388.698 11.0629 388.647 10.9177 388.647 10.7047L388.763 7.52955C388.763 7.3424 387.308 7.24882 384.397 7.24882H379.838C379.67 7.24882 379.576 8.21685 379.557 10.1529C379.544 12.0825 379.534 13.1635 379.528 13.3958L379.286 28.6616C379.286 30.3008 379.312 31.1204 379.363 31.1204H382.18C382.406 31.1204 382.555 31.1656 382.626 31.256C382.697 31.3463 382.732 31.5302 382.732 31.8077C382.732 32.0852 382.697 32.2788 382.626 32.3886C382.555 32.4983 382.406 32.5531 382.18 32.5531L377.427 32.4273L372.548 32.5531C372.284 32.5531 372.116 32.5015 372.045 32.3982C371.981 32.3014 371.948 32.0982 371.948 31.7884C371.948 31.4722 371.99 31.2818 372.074 31.2172C372.164 31.1527 372.374 31.1204 372.703 31.1204H375.162C375.317 31.1204 375.44 28.5584 375.53 23.4343C375.627 18.3037 375.675 14.3251 375.675 11.4985C375.675 8.66537 375.598 7.24882 375.443 7.24882H369.809C367.363 7.24882 366.121 7.38112 366.082 7.64571L365.763 10.7047Z" fill="#142D6F"/>
<path d="M399.228 23.5117L390.38 23.3084C390.303 23.502 390.264 24.0151 390.264 24.8476C390.264 25.6801 390.426 26.5094 390.748 27.3354C391.071 28.1615 391.497 28.8391 392.026 29.3683C393.155 30.4848 394.459 31.043 395.937 31.043C397.737 31.043 399.377 30.2718 400.854 28.7294C401.029 28.5552 401.138 28.468 401.184 28.468C401.229 28.468 401.368 28.5713 401.6 28.7778C401.839 28.9779 401.958 29.1037 401.958 29.1553C401.958 29.207 401.852 29.3683 401.639 29.6394C401.432 29.9039 401.116 30.2299 400.69 30.6171C400.27 30.9978 399.79 31.3689 399.248 31.7303C397.944 32.5951 396.605 33.0275 395.23 33.0275C393.862 33.0275 392.688 32.8274 391.707 32.4273C390.726 32.0336 389.912 31.4818 389.267 30.7719C388.628 30.0556 388.138 29.207 387.796 28.226C387.46 27.2386 387.292 26.1544 387.292 24.9734C387.292 23.7925 387.492 22.6824 387.893 21.6434C388.293 20.6044 388.844 19.7074 389.548 18.9523C391.077 17.3131 393.046 16.4935 395.453 16.4935C397.408 16.4935 398.918 17.1453 399.983 18.4489C400.984 19.6751 401.484 21.1626 401.484 22.9115C401.484 23.3117 400.732 23.5117 399.228 23.5117ZM397.621 22.2242C398.215 22.2242 398.512 22.1758 398.512 22.079C398.512 20.1817 397.925 18.8652 396.75 18.1295C396.182 17.7745 395.592 17.5971 394.979 17.5971C394.372 17.5971 393.788 17.7455 393.226 18.0424C392.671 18.3392 392.2 18.7167 391.813 19.175C390.987 20.1623 390.535 21.1723 390.458 22.2049C390.458 22.334 390.577 22.3985 390.816 22.3985L397.621 22.2242Z" fill="#142D6F"/>
<path d="M411.746 16.3677C412.61 16.3677 413.456 16.5451 414.282 16.9001C415.114 17.2486 415.798 17.7294 416.334 18.3424C416.87 18.9555 417.137 19.6073 417.137 20.2979C417.137 20.6528 416.947 20.9787 416.566 21.2756C416.186 21.5724 415.798 21.7209 415.405 21.7209C415.017 21.7209 414.779 21.5918 414.688 21.3337C414.598 21.0755 414.511 20.8109 414.427 20.5399C414.343 20.2624 414.275 20.043 414.224 19.8816C414.179 19.7138 414.111 19.517 414.02 19.2911C413.93 19.0652 413.84 18.8878 413.749 18.7587C413.665 18.6232 413.549 18.478 413.401 18.3231C413.259 18.1682 413.104 18.0488 412.936 17.9649C412.53 17.7778 412.03 17.6842 411.436 17.6842C410.849 17.6842 410.271 17.8165 409.703 18.0811C409.142 18.3392 408.654 18.6877 408.241 19.1265C407.835 19.5654 407.48 20.0688 407.176 20.6367C406.576 21.7596 406.276 22.818 406.276 23.8118C406.276 24.8057 406.354 25.6188 406.509 26.2512C406.663 26.8772 406.902 27.471 407.225 28.0324C407.554 28.5874 407.951 29.0714 408.416 29.4845C409.422 30.388 410.703 30.8397 412.259 30.8397C413.73 30.8397 415.23 30.4848 416.76 29.7749C416.934 29.6974 417.066 29.6587 417.157 29.6587C417.357 29.6587 417.457 29.8039 417.457 30.0943C417.457 30.2815 417.173 30.5751 416.605 30.9752C416.044 31.3689 415.518 31.6884 415.027 31.9336C413.853 32.5273 412.536 32.8242 411.078 32.8242C408.735 32.8242 406.88 32.1433 405.511 30.7816C404.143 29.4135 403.459 27.471 403.459 24.9541C403.459 22.4372 404.295 20.3785 405.966 18.7781C407.644 17.1711 409.571 16.3677 411.746 16.3677Z" fill="#142D6F"/>
<path d="M420.594 7.2101L418.251 7.49083C418.097 7.49083 418.019 7.31336 418.019 6.95841C418.019 6.59701 418.032 6.37759 418.058 6.30015C418.09 6.21626 418.406 6.13236 419.007 6.04846C419.613 5.95811 420.578 5.83227 421.901 5.67093C423.23 5.50959 423.969 5.42892 424.118 5.42892C424.266 5.42892 424.357 5.46442 424.389 5.53541C424.421 5.6064 424.437 5.70965 424.437 5.84518C424.437 5.97425 424.411 6.69059 424.36 7.9942C424.198 12.0793 424.118 14.8672 424.118 16.358C424.118 17.8487 424.124 18.6038 424.137 18.6232C424.15 18.6361 424.376 18.5231 424.815 18.2844C425.254 18.0456 425.983 17.7616 427.002 17.4325C428.029 17.0969 428.897 16.9291 429.606 16.9291C430.316 16.9291 430.923 17.0098 431.426 17.1711C431.936 17.3325 432.365 17.5454 432.714 17.81C433.062 18.0746 433.362 18.4167 433.614 18.8361C433.872 19.2556 434.076 19.6848 434.224 20.1236C434.372 20.5625 434.492 21.082 434.582 21.6821C434.718 22.6308 434.785 23.7957 434.785 25.1767V28.5455C434.785 30.3137 434.827 31.1979 434.911 31.1979H436.257C436.496 31.1979 436.647 31.2463 436.712 31.3431C436.776 31.4399 436.809 31.6045 436.809 31.8368C436.809 32.2821 436.625 32.5047 436.257 32.5047L433.324 32.4273L429.829 32.5047C429.577 32.5047 429.423 32.4563 429.364 32.3595C429.306 32.2692 429.277 32.1046 429.277 31.8658C429.277 31.6206 429.306 31.4496 429.364 31.3528C429.423 31.2495 429.552 31.1979 429.752 31.1979H431.659C431.788 31.1979 431.852 29.8394 431.852 27.1225C431.852 24.3991 431.807 22.7857 431.717 22.2823C431.626 21.7725 431.484 21.3046 431.291 20.8787C431.097 20.4463 430.858 20.0752 430.575 19.7654C429.968 19.1136 429.11 18.7877 428 18.7877C426.896 18.7877 425.789 19.0652 424.679 19.6202C424.305 19.8074 424.118 19.9655 424.118 20.0946C424.15 24.9089 424.166 27.9647 424.166 29.2618C424.166 30.5525 424.218 31.1979 424.321 31.1979H426.141C426.373 31.1979 426.518 31.2463 426.577 31.3431C426.635 31.4334 426.664 31.569 426.664 31.7497C426.664 31.9239 426.66 32.0401 426.654 32.0982C426.648 32.1562 426.628 32.2208 426.596 32.2918C426.538 32.4337 426.386 32.5047 426.141 32.5047L422.733 32.4273L419.249 32.5047C418.907 32.5047 418.723 32.3821 418.697 32.1369C418.69 32.0723 418.687 31.9723 418.687 31.8368C418.687 31.4108 418.887 31.1979 419.287 31.1979H420.991C421.094 31.1979 421.146 29.3167 421.146 25.5543C421.146 17.7326 421.088 12.744 420.972 10.5885C420.855 8.43304 420.785 7.33272 420.759 7.28754C420.733 7.23591 420.678 7.2101 420.594 7.2101Z" fill="#142D6F"/>
<path fill-rule="evenodd" clip-rule="evenodd" d="M531.647 0C532.057 0 532.39 0.340249 532.39 0.759968V8.10789C532.39 8.94319 533.517 9.16706 533.823 8.39257L536.516 1.5797C536.67 1.19054 537.103 1.00253 537.484 1.15976L538.567 1.60713C538.948 1.76436 539.132 2.20729 538.978 2.59645L536.107 9.8596C535.804 10.6272 536.749 11.2671 537.322 10.6817L542.741 5.14249C543.031 4.84571 543.502 4.84571 543.792 5.14249L544.618 5.98695C544.909 6.28374 544.909 6.76491 544.618 7.0617L539.752 12.0359C539.171 12.6297 539.823 13.6059 540.576 13.2697L546.881 10.4533C547.258 10.2852 547.696 10.4608 547.86 10.8454L548.328 11.9398C548.492 12.3244 548.321 12.7724 547.945 12.9404L540.678 16.1857C539.94 16.5154 540.17 17.6421 540.976 17.6421H548.905C549.316 17.6421 549.649 17.9824 549.649 18.4021V19.5963C549.649 20.016 549.316 20.3563 548.905 20.3563H540.976C540.17 20.3563 539.94 21.483 540.678 21.8126L547.945 25.058C548.321 25.226 548.492 25.674 548.328 26.0585L547.86 27.1529C547.696 27.5376 547.258 27.7132 546.881 27.545L540.576 24.7288C539.823 24.3925 539.171 25.3687 539.752 25.9626L544.618 30.9366C544.909 31.2335 544.909 31.7146 544.618 32.0114L543.792 32.8559C543.502 33.1527 543.031 33.1527 542.741 32.8559L537.322 27.3167C536.749 26.7313 535.804 27.3712 536.107 28.1388L538.978 35.402C539.132 35.7911 538.948 36.2339 538.567 36.3913L537.484 36.8387C537.103 36.9958 536.67 36.8079 536.516 36.4186L533.823 29.6059C533.517 28.8313 532.39 29.0553 532.39 29.8905V37.2384C532.39 37.6581 532.057 37.9984 531.647 37.9984H530.479C530.068 37.9984 529.735 37.6581 529.735 37.2384V29.8905C529.735 29.0553 528.608 28.8313 528.302 29.6059L525.61 36.4186C525.456 36.8079 525.023 36.9958 524.642 36.8387L523.559 36.3913C523.178 36.2339 522.994 35.7911 523.148 35.402L526.019 28.1388C526.322 27.3712 525.376 26.7313 524.804 27.3167L519.385 32.8559C519.094 33.1527 518.624 33.1527 518.333 32.8559L517.507 32.0114C517.217 31.7146 517.217 31.2335 517.507 30.9366L522.373 25.9624C522.954 25.3687 522.303 24.3925 521.55 24.7288L515.244 27.545C514.868 27.7132 514.429 27.5376 514.265 27.1529L513.797 26.0585C513.633 25.674 513.805 25.226 514.181 25.058L521.447 21.8126C522.185 21.483 521.955 20.3563 521.15 20.3563H513.22C512.809 20.3563 512.477 20.016 512.477 19.5963V18.4021C512.477 17.9824 512.809 17.6421 513.22 17.6421H521.15C521.955 17.6421 522.186 16.5154 521.447 16.1857L514.181 12.9404C513.805 12.7724 513.633 12.3244 513.797 11.9398L514.265 10.8454C514.429 10.4608 514.868 10.2852 515.244 10.4533L521.55 13.2697C522.303 13.6059 522.954 12.6297 522.373 12.0359L517.507 7.06172C517.217 6.76493 517.217 6.28374 517.507 5.98695L518.333 5.14251C518.624 4.84573 519.094 4.84573 519.385 5.14251L524.804 10.6817C525.376 11.2671 526.322 10.6272 526.019 9.85962L523.148 2.59645C522.994 2.20729 523.178 1.76436 523.559 1.60713L524.642 1.15976C525.023 1.00253 525.456 1.19054 525.61 1.5797L528.302 8.39257C528.608 9.16706 529.735 8.94319 529.735 8.10789V0.759968C529.735 0.340249 530.068 0 530.479 0H531.647ZM531.063 27.1417C535.462 27.1417 539.028 23.4961 539.028 18.9992C539.028 14.5022 535.462 10.8567 531.063 10.8567C526.664 10.8567 523.097 14.5022 523.097 18.9992C523.097 23.4961 526.664 27.1417 531.063 27.1417Z" fill="#142D6F"/>
<path d="M560.188 21.6689L560.149 17.4289H566.17C567.706 17.4289 568.842 17.1449 569.577 16.577C570.313 15.9962 570.681 15.1637 570.681 14.0795C570.681 12.8404 570.32 11.9499 569.597 11.4078C568.874 10.8657 567.732 10.5946 566.17 10.5946H562.298V33.8661H556.199V5.67702H566.17C569.487 5.67702 572.081 6.30947 573.953 7.57436C575.824 8.83925 576.76 10.7882 576.76 13.4213C576.76 14.57 576.496 15.6477 575.966 16.6545C575.45 17.6483 574.624 18.455 573.488 19.0746C572.352 19.6941 570.875 20.0232 569.055 20.0619L567.351 21.6689H560.188ZM558.522 33.8661L560.884 28.9678H567.099C568.558 28.9678 569.623 28.6387 570.294 27.9804C570.965 27.3093 571.3 26.4768 571.3 25.4829C571.3 24.6956 571.165 24.018 570.894 23.4501C570.623 22.8821 570.197 22.4433 569.616 22.1335C569.048 21.8238 568.293 21.6689 567.351 21.6689H561.698L561.736 17.4289H568.726L570.139 19.1133C571.881 19.0746 573.282 19.365 574.34 19.9845C575.398 20.5911 576.166 21.3914 576.644 22.3852C577.122 23.3791 577.36 24.431 577.36 25.541C577.36 28.2902 576.476 30.3682 574.708 31.7751C572.94 33.1691 570.403 33.8661 567.099 33.8661H558.522Z" fill="#142D6F"/>
<path d="M587.428 33.8661H581.562V4.12817H587.428V33.8661Z" fill="#142D6F"/>
<path d="M604.214 12.9179H610.06V33.8661H604.581L604.214 28.8129V12.9179ZM606.556 24.4374C606.556 26.3219 606.266 28.0062 605.685 29.4906C605.117 30.962 604.252 32.1236 603.091 32.9755C601.942 33.8273 600.49 34.2533 598.734 34.2533C596.669 34.2533 594.991 33.6531 593.701 32.4527C592.423 31.2395 591.784 29.2453 591.784 26.4703V12.9179H597.631V26.509C597.631 27.2189 597.747 27.7997 597.979 28.2515C598.225 28.6903 598.56 29.013 598.986 29.2195C599.425 29.4131 599.922 29.5099 600.477 29.5099C601.6 29.5099 602.478 29.2905 603.11 28.8517C603.755 28.4128 604.207 27.8126 604.465 27.0511C604.736 26.2896 604.872 25.4313 604.872 24.4762L606.556 24.4374Z" fill="#142D6F"/>
<path d="M623.961 34.2533C621.754 34.2533 619.863 33.7951 618.289 32.8787C616.727 31.9623 615.527 30.7361 614.688 29.2001C613.862 27.6642 613.449 25.9669 613.449 24.1083V23.3532C613.449 21.2623 613.842 19.4037 614.63 17.7774C615.43 16.1382 616.566 14.8539 618.037 13.9246C619.508 12.9953 621.264 12.5307 623.303 12.5307C625.329 12.5307 627.033 12.9566 628.414 13.8085C629.795 14.6603 630.841 15.8607 631.551 17.4095C632.261 18.9455 632.616 20.7525 632.616 22.8305V25.3087H615.907V21.3785H626.865V20.9138C626.865 20.191 626.736 19.5521 626.478 18.9971C626.22 18.4421 625.826 18.0097 625.297 17.7C624.781 17.3902 624.103 17.2353 623.264 17.2353C622.309 17.2353 621.541 17.5063 620.96 18.0484C620.38 18.5905 619.954 19.3198 619.683 20.2362C619.424 21.1526 619.295 22.1916 619.295 23.3532V24.1083C619.295 25.1796 619.495 26.1218 619.896 26.935C620.296 27.7481 620.87 28.387 621.619 28.8517C622.367 29.3034 623.271 29.5293 624.329 29.5293C625.323 29.5293 626.252 29.3486 627.117 28.9872C627.982 28.6129 628.718 28.0321 629.324 27.2447L632.151 30.4779C631.493 31.4202 630.473 32.2849 629.092 33.0723C627.724 33.8596 626.014 34.2533 623.961 34.2533Z" fill="#142D6F"/>
<path d="M648.356 5.67702H651.608L652.479 8.98768L646.555 33.8661H643.032L642.799 30.1295L648.356 5.67702ZM644.851 30.1875L644.29 33.8661H640.398L634.203 5.67702H640.263L644.851 30.1875ZM661.579 5.67702H667.619L661.443 33.8661H657.533L657.049 30.0907L661.579 5.67702ZM659.101 30.2456L658.81 33.8661H655.287L649.324 8.96832L650.272 5.67702H653.486L659.101 30.2456Z" fill="#142D6F"/>
<path d="M680.727 19.9071C680.727 18.9648 680.494 18.2162 680.03 17.6612C679.565 17.1062 678.823 16.8287 677.803 16.8287C677.222 16.8287 676.719 16.9255 676.293 17.1191C675.867 17.3127 675.544 17.5902 675.325 17.9516C675.106 18.3001 674.996 18.7325 674.996 19.2488H669.149C669.149 18.0097 669.517 16.8868 670.253 15.8801C670.988 14.8604 672.027 14.0473 673.37 13.4406C674.712 12.834 676.293 12.5307 678.113 12.5307C679.739 12.5307 681.191 12.8082 682.469 13.3632C683.747 13.9053 684.754 14.7249 685.489 15.822C686.225 16.9191 686.593 18.2937 686.593 19.9458V28.6968C686.593 29.9359 686.664 30.9168 686.806 31.6396C686.961 32.3624 687.174 32.9948 687.445 33.5369V33.8661H681.559C681.275 33.2723 681.062 32.5302 680.92 31.6396C680.791 30.749 680.727 29.8455 680.727 28.9291V19.9071ZM681.52 24.4181H678.539C677.119 24.4181 676.093 24.7278 675.461 25.3474C674.828 25.954 674.512 26.6897 674.512 27.5545C674.512 28.2128 674.744 28.7549 675.209 29.1808C675.673 29.6067 676.299 29.8197 677.087 29.8197C677.9 29.8197 678.597 29.6648 679.178 29.355C679.771 29.0324 680.223 28.6516 680.533 28.2128C680.856 27.761 681.011 27.348 680.998 26.9737L682.508 29.4906C682.301 30.0068 682.024 30.5425 681.675 31.0975C681.34 31.6525 680.907 32.1688 680.378 32.6463C679.849 33.1239 679.204 33.5111 678.442 33.808C677.693 34.1048 676.809 34.2533 675.79 34.2533C674.473 34.2533 673.273 33.9887 672.189 33.4595C671.104 32.9174 670.246 32.1752 669.614 31.233C668.981 30.2779 668.665 29.1872 668.665 27.9611C668.665 25.7669 669.478 24.0696 671.104 22.8692C672.731 21.656 675.151 21.0493 678.365 21.0493H681.482L681.52 24.4181Z" fill="#142D6F"/>
<path d="M702.101 12.9179H708.219L701.21 33.8661H697.512L697.628 29.5486L702.101 12.9179ZM699.158 29.568L699.255 33.8661H695.557L688.529 12.9179H694.686L699.158 29.568Z" fill="#142D6F"/>
<path d="M720.377 34.2533C718.17 34.2533 716.279 33.7951 714.704 32.8787C713.143 31.9623 711.942 30.7361 711.103 29.2001C710.277 27.6642 709.864 25.9669 709.864 24.1083V23.3532C709.864 21.2623 710.258 19.4037 711.045 17.7774C711.846 16.1382 712.981 14.8539 714.453 13.9246C715.924 12.9953 717.68 12.5307 719.719 12.5307C721.745 12.5307 723.449 12.9566 724.83 13.8085C726.211 14.6603 727.257 15.8607 727.966 17.4095C728.676 18.9455 729.031 20.7525 729.031 22.8305V25.3087H712.323V21.3785H723.281V20.9138C723.281 20.191 723.152 19.5521 722.894 18.9971C722.636 18.4421 722.242 18.0097 721.713 17.7C721.197 17.3902 720.519 17.2353 719.68 17.2353C718.725 17.2353 717.957 17.5063 717.376 18.0484C716.795 18.5905 716.369 19.3198 716.098 20.2362C715.84 21.1526 715.711 22.1916 715.711 23.3532V24.1083C715.711 25.1796 715.911 26.1218 716.311 26.935C716.711 27.7481 717.286 28.387 718.034 28.8517C718.783 29.3034 719.687 29.5293 720.745 29.5293C721.739 29.5293 722.668 29.3486 723.533 28.9872C724.398 28.6129 725.133 28.0321 725.74 27.2447L728.567 30.4779C727.908 31.4202 726.889 32.2849 725.508 33.0723C724.139 33.8596 722.429 34.2533 720.377 34.2533Z" fill="#142D6F"/>
<path fill-rule="evenodd" clip-rule="evenodd" d="M836.98 18.9992L823.651 32.6246L810.321 18.9992L823.651 5.37379L836.98 18.9992ZM823.651 0L842.237 18.9992L823.651 37.9984L805.064 18.9992L823.651 0Z" fill="#142D6F"/>
<path fill-rule="evenodd" clip-rule="evenodd" d="M827.687 18.9992L823.651 14.8734L819.615 18.9992L823.651 23.125L827.687 18.9992ZM823.651 9.49959L814.358 18.9992L823.651 28.4988L832.944 18.9992L823.651 9.49959Z" fill="#142D6F"/>
<path d="M813.738 18.9994L823.651 28.499L833.564 18.9994L823.651 9.49976L813.738 18.9994Z" fill="#D0D5E2"/>
<path d="M823.65 26.3804L816.68 19.4107L823.65 12.4411L830.62 19.4107L823.65 26.3804Z" stroke="#142D6F" stroke-opacity="0.2" stroke-width="3.57784"/>
<path d="M862.386 7.73637C859.981 6.81119 857.707 6.3486 855.566 6.3486C853.451 6.3486 851.799 6.79797 850.61 7.69672C849.42 8.59546 848.826 9.83785 848.826 11.4239C848.826 13.3535 849.83 14.847 851.839 15.9044C852.738 16.3537 853.716 16.7767 854.773 17.1732C855.857 17.5433 856.941 17.9662 858.024 18.442C859.108 18.9178 860.099 19.4597 860.998 20.0677C861.897 20.6757 862.624 21.5215 863.179 22.6053C863.734 23.6627 864.012 25.024 864.012 26.6893C864.012 28.3282 863.549 29.7292 862.624 30.8923C861.699 32.0553 860.575 32.8484 859.254 33.2713C857.958 33.6678 856.438 33.8661 854.694 33.8661C851.442 33.8661 848.667 33.0598 846.367 31.4474L846.565 31.1302C847.438 31.8174 848.561 32.3858 849.936 32.8351C851.337 33.2581 852.764 33.4695 854.218 33.4695C856.359 33.4695 858.183 32.9805 859.69 32.0025C861.223 30.998 861.989 29.5309 861.989 27.6013C861.989 25.4866 860.985 23.8345 858.976 22.645C858.077 22.1163 857.086 21.6273 856.002 21.1779C854.945 20.7285 853.874 20.2659 852.791 19.7901C851.707 19.2879 850.716 18.7328 849.817 18.1248C847.808 16.8031 846.803 14.9263 846.803 12.4944C846.803 10.5648 847.451 9.00519 848.746 7.81567C850.041 6.59972 851.984 5.99175 854.575 5.99175C857.192 5.99175 859.848 6.44112 862.545 7.33986L862.386 7.73637Z" fill="#142D6F"/>
<path d="M864.791 14.3184V14.0012H865.623V10.0361H868.399V14.0012H874.465V14.3184H868.399V28.7511C868.399 30.4693 868.584 31.7117 868.954 32.4783C869.351 33.2449 870.157 33.6282 871.373 33.6282C872.615 33.6282 873.871 33.377 875.14 32.8748L875.258 33.192C873.937 33.6942 872.417 33.9454 870.699 33.9454C869.007 33.9454 867.738 33.6017 866.892 32.9144C866.046 32.2007 865.623 30.7997 865.623 28.7115V14.3184H864.791Z" fill="#142D6F"/>
<path d="M877.745 24.1517C877.745 27.4295 878.313 29.8349 879.45 31.3681C880.613 32.9012 882.133 33.6678 884.01 33.6678C886.653 33.6678 889.006 33.2713 891.068 32.4783L891.187 32.7558C889.072 33.5753 886.68 33.985 884.01 33.985C881.366 33.985 879.212 33.192 877.547 31.606C875.881 30.02 875.049 27.5748 875.049 24.2706C875.049 20.9664 875.921 18.4024 877.666 16.5784C879.41 14.7545 881.631 13.8425 884.327 13.8425C886.495 13.8425 888.318 14.4902 889.799 15.7854C891.279 17.0807 892.019 18.9971 892.019 21.5347C892.019 21.6669 892.019 21.7991 892.019 21.9313H877.864C877.785 22.645 877.745 23.3851 877.745 24.1517ZM889.323 21.614C889.297 19.0764 888.807 17.1996 887.856 15.9837C886.904 14.7677 885.675 14.1598 884.168 14.1598C882.662 14.1598 881.314 14.8206 880.124 16.1423C878.961 17.464 878.221 19.2879 877.904 21.614H889.323Z" fill="#142D6F"/>
<path d="M897.888 33.8264C895.562 33.8264 894.095 33.2184 893.487 32.0025C893.355 31.7381 893.289 31.5002 893.289 31.2888V4.12817H896.064V31.0112C896.064 31.7778 896.21 32.3726 896.501 32.7955C896.818 33.192 897.135 33.4035 897.452 33.4299L897.888 33.5092H899.118V33.8264H897.888Z" fill="#142D6F"/>
<path d="M905.16 33.8264C902.834 33.8264 901.367 33.2184 900.759 32.0025C900.627 31.7381 900.561 31.5002 900.561 31.2888V4.12817H903.336V31.0112C903.336 31.7778 903.482 32.3726 903.772 32.7955C904.09 33.192 904.407 33.4035 904.724 33.4299L905.16 33.5092H906.389V33.8264H905.16Z" fill="#142D6F"/>
<path d="M922.998 33.8264C921.2 33.8264 919.971 33.4828 919.31 32.7955C918.702 32.214 918.398 31.7117 918.398 31.2888V30.4561C917.103 32.8087 915.028 33.985 912.173 33.985C908.842 33.985 906.952 32.4783 906.503 29.4648C906.45 29.1476 906.424 28.8304 906.424 28.5132C906.424 28.1696 906.477 27.7995 906.582 27.403C906.688 27.0065 906.992 26.5704 907.494 26.0946C908.499 25.1429 910.706 24.5614 914.116 24.3499C914.962 24.2706 915.742 24.231 916.455 24.231C917.169 24.231 917.817 24.2574 918.398 24.3103V17.7283C918.345 17.7019 918.345 17.5829 918.398 17.3714C918.451 17.1335 918.398 16.8428 918.24 16.4991C918.107 16.1291 917.922 15.7722 917.685 15.4286C917.447 15.0849 917.024 14.7942 916.416 14.5563C915.808 14.2919 915.015 14.1598 914.037 14.1598C913.059 14.1598 911.909 14.3448 910.587 14.7149C909.292 15.0585 908.34 15.4021 907.732 15.7458L907.574 15.4682C909.926 14.3844 912.318 13.8425 914.75 13.8425C917.473 13.8425 919.271 14.3316 920.143 15.3096C920.83 16.0762 921.174 16.8824 921.174 17.7283V31.0112C921.174 31.7778 921.319 32.3726 921.61 32.7955C921.927 33.192 922.244 33.4035 922.562 33.4299L922.998 33.5092H924.227V33.8264H922.998ZM912.807 33.6678C914.208 33.6678 915.464 33.192 916.574 32.2404C917.711 31.2623 918.319 30.3239 918.398 29.4252V24.6275C917.685 24.5746 916.958 24.5482 916.217 24.5482C915.504 24.5482 914.79 24.5878 914.076 24.6671C912.067 24.905 910.759 25.3544 910.151 26.0153C909.543 26.6761 909.239 27.5881 909.239 28.7511C909.239 28.9626 909.252 29.2005 909.279 29.4648C909.517 32.2668 910.693 33.6678 912.807 33.6678Z" fill="#142D6F"/>
<path d="M931.999 15.7061V14.8735C930.81 15.3493 929.726 16.3141 928.748 17.7679C927.77 19.1954 927.254 20.5435 927.202 21.8123V33.8264H924.426V14.0012H927.202V20.3056C927.624 18.7724 928.431 17.3318 929.62 15.9837C930.81 14.6091 932.158 13.8954 933.665 13.8425H933.823C934.352 13.8425 934.788 14.0276 935.132 14.3977C935.502 14.7413 935.687 15.1774 935.687 15.7061C935.687 16.2348 935.502 16.671 935.132 17.0146C934.788 17.3582 934.352 17.53 933.823 17.53C933.295 17.53 932.858 17.3582 932.515 17.0146C932.171 16.671 931.999 16.2348 931.999 15.7061Z" fill="#142D6F"/>
<path d="M937.882 6.38825C940.949 6.17678 943.645 6.07105 945.971 6.07105C952.527 6.07105 955.804 8.38399 955.804 13.0099C955.804 15.151 955.249 17.0278 954.139 18.6403C953.558 19.5126 952.659 20.2131 951.443 20.7417C950.227 21.244 948.76 21.4951 947.042 21.4951H941.173V33.8264H937.882V6.38825ZM946.011 6.46755C944.478 6.46755 942.865 6.56007 941.173 6.74511V21.0986H947.042C950.769 20.94 952.632 18.2702 952.632 13.0892C952.632 10.9745 952.077 9.34882 950.967 8.21218C949.857 7.04909 948.205 6.46755 946.011 6.46755Z" fill="#142D6F"/>
<path d="M964.587 15.7061V14.8735C963.398 15.3493 962.314 16.3141 961.336 17.7679C960.358 19.1954 959.842 20.5435 959.789 21.8123V33.8264H957.014V14.0012H959.789V20.3056C960.212 18.7724 961.018 17.3318 962.208 15.9837C963.398 14.6091 964.746 13.8954 966.252 13.8425H966.411C966.94 13.8425 967.376 14.0276 967.719 14.3977C968.089 14.7413 968.275 15.1774 968.275 15.7061C968.275 16.2348 968.089 16.671 967.719 17.0146C967.376 17.3582 966.94 17.53 966.411 17.53C965.882 17.53 965.446 17.3582 965.102 17.0146C964.759 16.671 964.587 16.2348 964.587 15.7061Z" fill="#142D6F"/>
<path d="M977.09 33.985C974.315 33.985 972.055 33.192 970.31 31.606C968.565 30.02 967.693 27.5748 967.693 24.2706C967.693 20.9664 968.592 18.4024 970.389 16.5784C972.213 14.7545 974.513 13.8425 977.289 13.8425C980.09 13.8425 982.364 14.6356 984.108 16.2216C985.853 17.8076 986.725 20.2527 986.725 23.5569C986.725 26.8611 985.813 29.4252 983.989 31.2491C982.192 33.073 979.892 33.985 977.09 33.985ZM977.368 14.1598C975.359 14.1598 973.694 15.0585 972.372 16.856C971.05 18.627 970.389 21.1118 970.389 24.3103C970.389 27.4823 970.997 29.8349 972.213 31.3681C973.429 32.9012 975.042 33.6678 977.051 33.6678C979.06 33.6678 980.725 32.7823 982.047 31.0112C983.368 29.2137 984.029 26.729 984.029 23.5569C984.029 20.3584 983.421 17.9926 982.205 16.4595C980.989 14.9263 979.377 14.1598 977.368 14.1598Z" fill="#142D6F"/>
<path fill-rule="evenodd" clip-rule="evenodd" d="M1070.61 30.0215C1072.09 34.6485 1076.43 37.9984 1081.55 37.9984C1086.68 37.9984 1091.02 34.6335 1092.49 29.9903C1097.14 28.5186 1100.5 24.1744 1100.5 19.0442C1100.5 13.9255 1097.15 9.58927 1092.53 8.1081C1091.08 3.41332 1086.72 0 1081.55 0C1076.39 0 1072.03 3.39809 1070.58 8.07667C1065.9 9.52709 1062.5 13.8888 1062.5 19.0442C1062.5 24.2112 1065.92 28.5809 1070.61 30.0215ZM1082.73 20.2231C1082.34 20.2746 1081.95 20.3012 1081.55 20.3012C1081.12 20.3012 1080.69 20.2702 1080.28 20.2104C1080.23 19.8288 1080.2 19.4396 1080.2 19.0442C1080.2 18.6171 1080.23 18.1971 1080.29 17.7862C1080.7 17.7275 1081.12 17.6972 1081.55 17.6972C1081.94 17.6972 1082.33 17.7232 1082.71 17.7736C1082.77 18.1885 1082.81 18.6127 1082.81 19.0442C1082.81 19.444 1082.78 19.8375 1082.73 20.2231ZM1081.89 22.9561C1081.78 22.9594 1081.66 22.9611 1081.55 22.9611C1081.4 22.9611 1081.26 22.9584 1081.11 22.953C1081.23 23.1948 1081.36 23.4304 1081.5 23.659C1081.64 23.4313 1081.77 23.1968 1081.89 22.9561ZM1083.3 25.7568C1084.02 24.7618 1084.58 23.647 1084.95 22.4481C1086.15 22.0764 1087.27 21.5136 1088.26 20.7953C1089.58 22.3357 1090.37 24.3341 1090.37 26.5178C1090.37 26.945 1090.34 27.365 1090.28 27.7759C1089.87 27.8345 1089.45 27.8649 1089.02 27.8649C1086.84 27.8649 1084.84 27.0713 1083.3 25.7568ZM1079.71 25.7568C1078.98 24.7531 1078.42 23.6275 1078.04 22.4167C1076.88 22.045 1075.8 21.4936 1074.84 20.7953C1073.52 22.3357 1072.73 24.3341 1072.73 26.5178C1072.73 26.9493 1072.76 27.3736 1072.82 27.7885C1073.2 27.8389 1073.59 27.8649 1073.98 27.8649C1076.17 27.8649 1078.17 27.0713 1079.71 25.7568ZM1073.69 30.521C1073.79 30.5235 1073.88 30.5248 1073.98 30.5248C1076.86 30.5248 1079.49 29.4675 1081.5 27.7205C1083.52 29.4675 1086.15 30.5248 1089.02 30.5248C1089.15 30.5248 1089.28 30.5226 1089.41 30.5183C1087.95 33.3792 1084.98 35.3385 1081.55 35.3385C1078.12 35.3385 1075.14 33.3804 1073.69 30.521ZM1070.08 26.9537C1070.07 26.8091 1070.07 26.6638 1070.07 26.5178C1070.07 23.6422 1071.12 21.0135 1072.87 18.9992C1071.12 16.9849 1070.07 14.3562 1070.07 11.4806C1070.07 11.3654 1070.07 11.2506 1070.07 11.1362C1067.16 12.578 1065.16 15.5775 1065.16 19.0442C1065.16 22.5121 1067.17 25.5126 1070.08 26.9537ZM1072.81 10.3016C1072.75 10.6873 1072.73 11.0808 1072.73 11.4806C1072.73 13.6643 1073.52 15.6627 1074.84 17.2031C1075.81 16.4985 1076.9 15.9435 1078.08 15.5718C1078.45 14.399 1079 13.3077 1079.71 12.3316C1078.17 11.0171 1076.17 10.2236 1073.98 10.2236C1073.58 10.2236 1073.19 10.2501 1072.81 10.3016ZM1081.5 14.4294C1081.38 14.6291 1081.27 14.834 1081.16 15.0438C1081.29 15.0395 1081.42 15.0373 1081.55 15.0373C1081.65 15.0373 1081.75 15.0386 1081.85 15.0411C1081.74 14.8323 1081.63 14.6282 1081.5 14.4294ZM1083.3 12.3316C1084 13.299 1084.55 14.3796 1084.92 15.5406C1086.13 15.9121 1087.26 16.4785 1088.26 17.2031C1089.58 15.6627 1090.37 13.6643 1090.37 11.4806C1090.37 11.0852 1090.34 10.696 1090.29 10.3144C1089.88 10.2545 1089.45 10.2236 1089.02 10.2236C1086.84 10.2236 1084.84 11.0171 1083.3 12.3316ZM1085.46 18.6083C1085.7 18.7281 1085.93 18.8586 1086.16 18.9992C1085.94 19.1392 1085.7 19.2692 1085.46 19.3886C1085.46 19.2742 1085.47 19.1594 1085.47 19.0442C1085.47 18.8983 1085.46 18.753 1085.46 18.6083ZM1081.5 10.368C1083.52 8.62094 1086.15 7.56366 1089.02 7.56366C1089.17 7.56366 1089.31 7.56639 1089.46 7.57179C1088.02 4.66115 1085.02 2.65989 1081.55 2.65989C1078.08 2.65989 1075.08 4.65975 1073.64 7.56873C1073.75 7.56536 1073.87 7.56366 1073.98 7.56366C1076.86 7.56366 1079.49 8.62094 1081.5 10.368ZM1077.54 19.0442C1077.54 19.144 1077.54 19.2435 1077.54 19.3426C1077.34 19.2361 1077.13 19.1215 1076.93 18.9992C1077.13 18.8764 1077.34 18.7613 1077.55 18.6544C1077.54 18.7838 1077.54 18.9138 1077.54 19.0442ZM1093.03 11.4806C1093.03 11.3808 1093.03 11.2813 1093.02 11.1822C1095.88 12.641 1097.84 15.6139 1097.84 19.0442C1097.84 22.4756 1095.88 25.4493 1093.02 26.9077C1093.03 26.7783 1093.03 26.6483 1093.03 26.5178C1093.03 23.6422 1091.97 21.0135 1090.22 18.9992C1091.97 16.9849 1093.03 14.3562 1093.03 11.4806Z" fill="#142D6F"/>
<path d="M1091.28 11.5647C1091.28 16.9638 1086.9 21.3405 1081.5 21.3405C1076.1 21.3405 1071.73 16.9638 1071.73 11.5647C1071.73 6.1657 1076.1 1.78892 1081.5 1.78892C1086.9 1.78892 1091.28 6.1657 1091.28 11.5647Z" stroke="#D0D5E2" stroke-width="3.57784"/>
<path d="M1091.28 26.4344C1091.28 31.8334 1086.9 36.2102 1081.5 36.2102C1076.1 36.2102 1071.73 31.8334 1071.73 26.4344C1071.73 21.0353 1076.1 16.6586 1081.5 16.6586C1086.9 16.6586 1091.28 21.0353 1091.28 26.4344Z" stroke="#D0D5E2" stroke-width="3.57784"/>
<path d="M1104.63 34.0726V4.12817H1109.42V13.8102H1119.07V4.12817H1123.86V34.0726H1119.07V18.202H1109.42V34.0726H1104.63Z" fill="#142D6F"/>
<path d="M1138.75 34.6049C1136.8 34.6049 1135.01 34.1391 1133.39 33.2075C1131.77 32.2537 1130.49 30.9783 1129.53 29.3813C1128.58 27.7842 1128.1 26.0209 1128.1 24.0911C1128.1 22.1392 1128.58 20.3758 1129.53 18.8009C1130.49 17.2039 1131.77 15.9396 1133.39 15.008C1135.01 14.0542 1136.8 13.5773 1138.75 13.5773C1140.72 13.5773 1142.51 14.0542 1144.1 15.008C1145.72 15.9396 1147.01 17.2039 1147.96 18.8009C1148.92 20.3758 1149.39 22.1392 1149.39 24.0911C1149.39 26.0209 1148.92 27.7842 1147.96 29.3813C1147.01 30.9783 1145.72 32.2537 1144.1 33.2075C1142.51 34.1391 1140.72 34.6049 1138.75 34.6049ZM1138.75 30.3129C1139.9 30.3129 1140.93 30.0356 1141.84 29.4811C1142.77 28.9044 1143.52 28.1502 1144.07 27.2186C1144.63 26.287 1144.9 25.2445 1144.9 24.0911C1144.9 22.9377 1144.63 21.8952 1144.07 20.9636C1143.52 20.032 1142.77 19.2889 1141.84 18.7344C1140.91 18.1577 1139.88 17.8693 1138.75 17.8693C1137.62 17.8693 1136.59 18.1577 1135.65 18.7344C1134.72 19.2889 1133.98 20.032 1133.42 20.9636C1132.89 21.8952 1132.63 22.9377 1132.63 24.0911C1132.63 25.2445 1132.89 26.287 1133.42 27.2186C1133.98 28.1502 1134.71 28.9044 1135.62 29.4811C1136.55 30.0356 1137.59 30.3129 1138.75 30.3129Z" fill="#142D6F"/>
<path d="M1152.62 34.0726V14.1096H1156.88V17.6364C1157.59 16.483 1158.5 15.5736 1159.61 14.9082C1160.72 14.2427 1162.04 13.91 1163.57 13.91L1164.63 18.2686C1164.21 18.1355 1163.74 18.069 1163.2 18.069C1161.43 18.069 1160 18.6346 1158.91 19.7658C1157.85 20.897 1157.31 22.5162 1157.31 24.6234V34.0726H1152.62Z" fill="#142D6F"/>
<path d="M1166.86 34.0726V14.1096H1171.55V34.0726H1166.86ZM1169.22 10.849C1168.47 10.849 1167.82 10.5829 1167.29 10.0505C1166.76 9.51816 1166.49 8.87491 1166.49 8.12076C1166.49 7.32224 1166.76 6.6679 1167.29 6.15774C1167.82 5.62539 1168.47 5.35922 1169.22 5.35922C1170.02 5.35922 1170.67 5.62539 1171.18 6.15774C1171.72 6.69008 1171.98 7.34442 1171.98 8.12076C1171.98 8.87491 1171.72 9.51816 1171.18 10.0505C1170.65 10.5829 1170 10.849 1169.22 10.849Z" fill="#142D6F"/>
<path d="M1174.36 34.0726L1183.14 18.1022H1174.99V14.1096H1189.93L1181.18 30.08H1189.36V34.0726H1174.36Z" fill="#142D6F"/>
<path d="M1201.49 34.6049C1199.54 34.6049 1197.76 34.1391 1196.14 33.2075C1194.52 32.2537 1193.23 30.9783 1192.28 29.3813C1191.32 27.7842 1190.85 26.0209 1190.85 24.0911C1190.85 22.1392 1191.32 20.3758 1192.28 18.8009C1193.23 17.2039 1194.52 15.9396 1196.14 15.008C1197.76 14.0542 1199.54 13.5773 1201.49 13.5773C1203.47 13.5773 1205.25 14.0542 1206.85 15.008C1208.47 15.9396 1209.76 17.2039 1210.71 18.8009C1211.66 20.3758 1212.14 22.1392 1212.14 24.0911C1212.14 26.0209 1211.66 27.7842 1210.71 29.3813C1209.76 30.9783 1208.47 32.2537 1206.85 33.2075C1205.25 34.1391 1203.47 34.6049 1201.49 34.6049ZM1201.49 30.3129C1202.65 30.3129 1203.68 30.0356 1204.59 29.4811C1205.52 28.9044 1206.26 28.1502 1206.82 27.2186C1207.37 26.287 1207.65 25.2445 1207.65 24.0911C1207.65 22.9377 1207.37 21.8952 1206.82 20.9636C1206.26 20.032 1205.52 19.2889 1204.59 18.7344C1203.66 18.1577 1202.63 17.8693 1201.49 17.8693C1200.36 17.8693 1199.33 18.1577 1198.4 18.7344C1197.47 19.2889 1196.73 20.032 1196.17 20.9636C1195.64 21.8952 1195.37 22.9377 1195.37 24.0911C1195.37 25.2445 1195.64 26.287 1196.17 27.2186C1196.73 28.1502 1197.46 28.9044 1198.37 29.4811C1199.3 30.0356 1200.34 30.3129 1201.49 30.3129Z" fill="#142D6F"/>
<path d="M1215.37 34.0726V14.1096H1219.63V16.8046C1220.36 15.7621 1221.27 14.9636 1222.36 14.4091C1223.47 13.8546 1224.66 13.5773 1225.95 13.5773C1227.37 13.5773 1228.69 13.9211 1229.91 14.6087C1231.13 15.2963 1232.12 16.2945 1232.87 17.6032C1233.63 18.9118 1234 20.4978 1234 22.361V34.0726H1229.31V22.9931C1229.31 21.6401 1228.91 20.4534 1228.11 19.4331C1227.31 18.3906 1226.17 17.8693 1224.69 17.8693C1223.49 17.8693 1222.41 18.2908 1221.46 19.1336C1220.53 19.9765 1220.06 21.2297 1220.06 22.8933V34.0726H1215.37Z" fill="#142D6F"/>
<path d="M1310.44 0.000865936C1315.48 0.000865936 1320.32 2.00256 1323.88 5.56561C1327.44 9.12864 1329.44 13.9612 1329.44 19.0001C1329.44 24.039 1327.44 28.8715 1323.88 32.4345C1320.32 35.9976 1315.48 37.9993 1310.44 37.9993L1310.44 0.000865936Z" fill="#142D6F" fill-opacity="0.2"/>
<path d="M1348.13 14.5836C1345.03 12.8984 1341.39 12.5132 1338.01 13.5127C1334.63 14.5122 1331.78 16.8145 1330.1 19.9132C1328.41 23.0118 1328.03 26.653 1329.03 30.0357C1330.02 33.4183 1332.33 36.2654 1335.43 37.9505L1348.13 14.5836Z" fill="#142D6F"/>
<path d="M1361.42 12.0564L1365.71 22.6467C1365.91 23.1113 1366.08 23.3501 1366.24 23.363C1366.38 23.3759 1366.53 23.1952 1366.7 22.8209L1371.06 13.1406C1372.49 9.9655 1373.21 7.67449 1373.21 6.26762C1373.21 5.46739 1372.92 4.81558 1372.36 4.3122C1371.8 3.79592 1371 3.46034 1369.95 3.30545C1369.5 3.25382 1369.28 3.07958 1369.28 2.78272C1369.28 2.48585 1369.44 2.33742 1369.76 2.33742C1369.93 2.33742 1370.29 2.35033 1370.85 2.37614L1372.88 2.49231C1373.79 2.54394 1374.45 2.56975 1374.83 2.56975C1376.01 2.56975 1377.03 2.49231 1377.89 2.33742C1378.23 2.28579 1378.49 2.25998 1378.67 2.25998C1378.9 2.25998 1379.02 2.42132 1379.02 2.744C1379.02 3.04086 1378.82 3.22801 1378.43 3.30545C1377.69 3.44743 1377.07 3.83464 1376.6 4.46709C1376.13 5.08663 1375.46 6.38379 1374.58 8.35857L1371.7 15.038L1368.39 22.3369C1367.32 24.7247 1366.73 26.0025 1366.64 26.1703C1365.95 27.603 1365.55 28.4291 1365.46 28.6485C1365.22 29.2293 1364.91 29.5197 1364.55 29.5197C1364.31 29.5197 1364.11 29.3648 1363.97 29.055L1363.53 28.0677L1363.04 26.8867L1358.45 16.4707C1357.33 13.9151 1356.4 11.6241 1355.65 9.59765C1354.76 7.22275 1354.05 5.65454 1353.52 4.89302C1353 4.1315 1352.29 3.65394 1351.39 3.46034C1350.87 3.35708 1350.61 3.14411 1350.61 2.82144C1350.61 2.47295 1350.79 2.2987 1351.16 2.2987C1351.26 2.2987 1351.45 2.31161 1351.74 2.33742C1352.39 2.41487 1353.16 2.45359 1354.04 2.45359L1357.29 2.55039L1359.33 2.45359C1360.19 2.40196 1360.75 2.37614 1361.01 2.37614C1361.37 2.37614 1361.55 2.55039 1361.55 2.89888C1361.55 3.19574 1361.28 3.3958 1360.74 3.49906C1359.78 3.66685 1359.31 4.22185 1359.31 5.16407C1359.31 6.32571 1360.01 8.62316 1361.42 12.0564Z" fill="#142D6F"/>
<path d="M1383.24 12.5985C1385.24 12.5985 1386.96 13.3859 1388.41 14.9605C1389.62 16.29 1390.23 17.6194 1390.23 18.9488C1390.23 19.4522 1389.88 19.7039 1389.18 19.7039L1388.29 19.6652H1387.84L1383 19.7426L1381.09 19.762L1380.43 19.7426C1380.06 19.7426 1379.82 19.7878 1379.71 19.8781C1379.57 20.0072 1379.5 20.246 1379.5 20.5945C1379.5 22.2982 1380.06 23.8083 1381.17 25.1248C1382.29 26.4285 1383.58 27.0803 1385.04 27.0803C1386.68 27.0803 1387.99 26.6092 1388.97 25.6669L1389.59 25.0668C1389.69 24.9635 1389.8 24.9119 1389.92 24.9119C1390.2 24.9119 1390.34 25.0474 1390.34 25.3185C1390.34 25.6928 1389.85 26.3188 1388.85 27.1964C1387.1 28.7453 1385.21 29.5197 1383.2 29.5197C1380.97 29.5197 1379.15 28.7517 1377.74 27.2158C1376.33 25.6799 1375.63 23.6986 1375.63 21.2721C1375.63 18.923 1376.38 16.8901 1377.87 15.1735C1379.38 13.4569 1381.17 12.5985 1383.24 12.5985ZM1382.69 13.5666C1381.82 13.5666 1381.05 13.999 1380.39 14.8637C1379.73 15.7285 1379.4 16.7482 1379.4 17.9227C1379.4 18.297 1379.49 18.5229 1379.67 18.6003C1379.87 18.6778 1380.38 18.7165 1381.2 18.7165C1381.63 18.7165 1382.08 18.7036 1382.56 18.6778C1383.72 18.6261 1384.39 18.6003 1384.57 18.6003C1385.71 18.6003 1386.28 18.2518 1386.28 17.5549C1386.28 16.5094 1385.91 15.5865 1385.17 14.7863C1384.45 13.9731 1383.62 13.5666 1382.69 13.5666Z" fill="#142D6F"/>
<path d="M1409.59 20.8268V24.757C1409.59 25.596 1409.63 26.1703 1409.72 26.4801C1409.81 26.777 1410.02 27.0609 1410.34 27.332C1410.81 27.7063 1411.4 27.9321 1412.12 28.0096C1412.52 28.0612 1412.72 28.2161 1412.72 28.4742C1412.72 28.8614 1412.27 29.055 1411.35 29.055C1411.16 29.055 1410.88 29.0292 1410.52 28.9776L1409.26 28.8227C1408.69 28.7582 1408.24 28.7259 1407.92 28.7259C1406.7 28.7259 1405.72 28.7969 1404.98 28.9389C1404.68 28.9905 1404.42 29.0163 1404.2 29.0163C1403.92 29.0163 1403.78 28.8743 1403.78 28.5904C1403.78 28.3839 1403.93 28.2225 1404.22 28.1064C1404.79 27.9128 1405.17 27.6095 1405.37 27.1964C1405.56 26.7834 1405.66 26.0864 1405.66 25.1055V20.5364C1405.66 18.781 1405.3 17.3935 1404.59 16.3739C1403.9 15.3413 1402.94 14.825 1401.73 14.825C1400.64 14.825 1399.76 15.1219 1399.09 15.7156C1398.44 16.3093 1398.11 17.0837 1398.11 18.0389V24.5053C1398.11 25.6928 1398.33 26.564 1398.76 27.119C1399.22 27.6611 1399.97 27.9773 1401.03 28.0677C1401.39 28.1064 1401.57 28.2548 1401.57 28.513C1401.57 28.8743 1401.35 29.055 1400.89 29.055C1400.47 29.055 1399.96 29.0228 1399.36 28.9582C1397.91 28.7775 1396.9 28.6872 1396.34 28.6872C1395.6 28.6872 1394.73 28.7517 1393.75 28.8808C1393.29 28.9453 1392.97 28.9776 1392.8 28.9776C1392.48 28.9776 1392.32 28.8421 1392.32 28.571C1392.32 28.3903 1392.43 28.2548 1392.65 28.1645C1393.3 27.9192 1393.72 27.6546 1393.91 27.3707C1394.09 27.0738 1394.18 26.5382 1394.18 25.7637L1394.2 25.1248V18.3099L1394.18 17.5549C1394.18 16.6255 1394.08 15.9866 1393.89 15.6382C1393.71 15.2768 1393.36 15.0961 1392.86 15.0961H1391.97C1391.84 15.0961 1391.74 15.0573 1391.68 14.9799C1391.61 14.9154 1391.58 14.8186 1391.58 14.6895C1391.58 14.4443 1391.68 14.2765 1391.87 14.1861C1392.07 14.0829 1392.63 13.9151 1393.58 13.6827C1395.19 13.3084 1396.54 12.747 1397.62 11.9984C1397.71 11.9209 1397.8 11.8822 1397.87 11.8822C1398.03 11.8693 1398.11 11.9919 1398.11 12.25L1398.05 13.2181L1398.03 14.3216L1398.15 15.0573C1398.2 15.2122 1398.28 15.2961 1398.4 15.309C1398.5 15.3219 1398.71 15.1477 1399.02 14.7863C1400.2 13.3407 1401.77 12.6179 1403.72 12.6179C1405.82 12.6179 1407.33 13.2568 1408.23 14.5346C1409.14 15.7995 1409.59 17.8969 1409.59 20.8268Z" fill="#142D6F"/>
<path d="M1419.44 15.038V24.4859C1419.44 25.6347 1419.61 26.4349 1419.95 26.8867C1420.29 27.3384 1420.9 27.5643 1421.77 27.5643C1422.1 27.5643 1422.55 27.4804 1423.1 27.3126C1423.67 27.1448 1424.06 26.977 1424.28 26.8092C1424.42 26.706 1424.53 26.6543 1424.59 26.6543C1424.75 26.6543 1424.84 26.7834 1424.88 27.0415L1424.92 27.2352L1424.69 27.5643C1423.27 28.8679 1421.62 29.5197 1419.75 29.5197C1418.31 29.5197 1417.24 29.1906 1416.56 28.5323C1415.89 27.8741 1415.55 26.8544 1415.55 25.4733V15.038H1414.37C1413.75 15.038 1413.44 14.8702 1413.44 14.5346C1413.44 14.3281 1413.6 14.1151 1413.92 13.8957C1414.48 13.5214 1415.27 12.8051 1416.31 11.7467C1417.34 10.6883 1418.03 9.8816 1418.38 9.3266C1418.78 8.69415 1419.07 8.38438 1419.27 8.39729C1419.37 8.4102 1419.43 8.507 1419.44 8.6877V13.1794H1422.25C1422.75 13.1794 1423.12 13.0955 1423.35 12.9277L1423.86 12.5985C1423.96 12.5211 1424.08 12.4759 1424.21 12.463C1424.42 12.4501 1424.53 12.5534 1424.52 12.7728C1424.5 12.8889 1424.46 13.0309 1424.38 13.1987C1424.3 13.3536 1424.22 13.6376 1424.15 14.0506C1424.01 14.7088 1423.65 15.038 1423.08 15.038H1419.44Z" fill="#142D6F"/>
<path d="M1442.58 12.8502V24.8538C1442.58 26.0929 1442.68 26.8608 1442.89 27.1577C1443.1 27.4417 1443.65 27.5836 1444.55 27.5836L1445 27.5643C1445.15 27.5643 1445.27 27.5772 1445.35 27.603C1445.57 27.6804 1445.68 27.8224 1445.68 28.0289C1445.68 28.4807 1445.24 28.7066 1444.36 28.7066H1443.43C1442.9 28.7066 1442.49 28.7195 1442.19 28.7453C1441.4 28.7969 1440.49 28.9518 1439.44 29.2099C1439.31 29.2487 1439.2 29.268 1439.09 29.268C1438.81 29.268 1438.67 29.0292 1438.67 28.5517C1438.67 28.2935 1438.68 28.0741 1438.71 27.8934C1438.73 27.6353 1438.75 27.4417 1438.75 27.3126C1438.75 26.9254 1438.66 26.7253 1438.49 26.7124C1438.43 26.7124 1438.33 26.7899 1438.18 26.9447L1437.49 27.6611C1436.3 28.9002 1434.87 29.5197 1433.21 29.5197C1431.3 29.5197 1429.86 28.9905 1428.89 27.9321C1427.92 26.8738 1427.44 25.3055 1427.44 23.2275C1427.44 20.4783 1427.49 18.097 1427.59 16.0834C1427.61 15.7221 1427.61 15.4123 1427.61 15.1541C1427.61 14.2765 1427.23 13.8054 1426.47 13.7408L1425.7 13.6827C1425.34 13.6569 1425.17 13.4827 1425.19 13.16C1425.21 12.9148 1425.4 12.7534 1425.77 12.676C1426.16 12.5856 1426.9 12.5405 1427.98 12.5405C1428.99 12.5405 1429.89 12.4114 1430.67 12.1532C1431.02 12.05 1431.29 11.9984 1431.49 11.9984C1431.71 11.9984 1431.81 12.1468 1431.81 12.4437C1431.81 12.7921 1431.8 13.1471 1431.78 13.5085C1431.66 14.8766 1431.6 17.2709 1431.6 20.6913C1431.6 23.3243 1431.84 25.0861 1432.32 25.9767C1432.8 26.8544 1433.75 27.2932 1435.18 27.2932C1436.31 27.2932 1437.17 26.9577 1437.78 26.2865C1438.38 25.6153 1438.69 24.6537 1438.69 23.4018V16.1803C1438.69 15.0832 1438.58 14.412 1438.38 14.1667C1438.18 13.9086 1437.62 13.7215 1436.69 13.6053C1436.29 13.5666 1436.09 13.4117 1436.09 13.1406C1436.09 12.7405 1436.48 12.5405 1437.26 12.5405C1439.5 12.5405 1441.06 12.3856 1441.92 12.0758C1442.09 12.0113 1442.22 11.979 1442.33 11.979C1442.51 11.9661 1442.6 12.0952 1442.6 12.3662L1442.58 12.8502Z" fill="#142D6F"/>
<path d="M1452.78 19.2586V24.6989C1452.78 26.7382 1453.74 27.887 1455.65 28.1451C1456.05 28.1967 1456.25 28.3516 1456.25 28.6098C1456.25 28.9324 1456.1 29.0938 1455.8 29.0938C1455.66 29.0938 1455.48 29.0744 1455.26 29.0357C1453.97 28.8421 1452.64 28.7453 1451.27 28.7453C1450.55 28.7453 1449.9 28.7711 1449.32 28.8227L1448.12 28.9389C1447.9 28.9647 1447.67 28.9776 1447.44 28.9776C1447.08 28.9776 1446.9 28.8098 1446.9 28.4742C1446.9 28.2419 1447.06 28.087 1447.38 28.0096C1448.4 27.7643 1448.91 26.8028 1448.91 25.1248L1448.89 24.3117V17.3806C1448.89 16.4513 1448.77 15.8382 1448.52 15.5414C1448.29 15.2316 1447.78 15.0444 1446.99 14.9799C1446.7 14.9541 1446.55 14.8186 1446.55 14.5733C1446.55 14.2894 1446.72 14.1216 1447.07 14.0699C1448.84 13.7989 1450.35 13.302 1451.6 12.5792L1452.36 12.1339C1452.46 12.0694 1452.56 12.0371 1452.65 12.0371C1452.84 12.0371 1452.94 12.1791 1452.94 12.463C1452.94 12.5534 1452.93 12.7405 1452.92 13.0245L1452.86 14.1087L1452.78 15.309L1452.8 15.522C1452.85 15.7027 1452.95 15.7995 1453.09 15.8124C1453.22 15.8253 1453.51 15.5155 1453.94 14.8831C1454.29 14.3926 1454.83 13.8699 1455.55 13.3149C1456.29 12.747 1456.79 12.463 1457.06 12.463C1457.5 12.463 1458.15 12.7986 1459.02 13.4698C1459.89 14.1409 1460.34 14.6443 1460.35 14.9799C1460.35 15.0961 1460.15 15.5478 1459.73 16.3351C1459.2 17.329 1458.74 17.8259 1458.34 17.8259C1458.17 17.8259 1458.02 17.7614 1457.87 17.6323L1457.33 17.1483C1456.67 16.5416 1455.92 16.2383 1455.07 16.2383C1453.54 16.2383 1452.78 17.2451 1452.78 19.2586Z" fill="#142D6F"/>
<path d="M1468.18 12.5985C1470.18 12.5985 1471.9 13.3859 1473.34 14.9605C1474.56 16.29 1475.16 17.6194 1475.16 18.9488C1475.16 19.4522 1474.82 19.7039 1474.12 19.7039L1473.23 19.6652H1472.78L1467.94 19.7426L1466.03 19.762L1465.37 19.7426C1464.99 19.7426 1464.76 19.7878 1464.65 19.8781C1464.51 20.0072 1464.44 20.246 1464.44 20.5945C1464.44 22.2982 1464.99 23.8083 1466.1 25.1248C1467.23 26.4285 1468.52 27.0803 1469.98 27.0803C1471.62 27.0803 1472.93 26.6092 1473.91 25.6669L1474.53 25.0668C1474.63 24.9635 1474.74 24.9119 1474.85 24.9119C1475.14 24.9119 1475.28 25.0474 1475.28 25.3185C1475.28 25.6928 1474.78 26.3188 1473.79 27.1964C1472.03 28.7453 1470.15 29.5197 1468.14 29.5197C1465.9 29.5197 1464.08 28.7517 1462.68 27.2158C1461.27 25.6799 1460.57 23.6986 1460.57 21.2721C1460.57 18.923 1461.32 16.8901 1462.81 15.1735C1464.32 13.4569 1466.11 12.5985 1468.18 12.5985ZM1467.63 13.5666C1466.76 13.5666 1465.99 13.999 1465.33 14.8637C1464.67 15.7285 1464.34 16.7482 1464.34 17.9227C1464.34 18.297 1464.43 18.5229 1464.61 18.6003C1464.81 18.6778 1465.32 18.7165 1466.14 18.7165C1466.57 18.7165 1467.02 18.7036 1467.5 18.6778C1468.66 18.6261 1469.33 18.6003 1469.51 18.6003C1470.65 18.6003 1471.22 18.2518 1471.22 17.5549C1471.22 16.5094 1470.85 15.5865 1470.11 14.7863C1469.39 13.9731 1468.56 13.5666 1467.63 13.5666Z" fill="#142D6F"/>
<path d="M1493.37 2.04701C1494.58 2.04701 1495.77 2.27934 1496.93 2.744L1498.22 3.28609C1498.81 3.51842 1499.22 3.63458 1499.46 3.63458C1499.64 3.63458 1499.83 3.58941 1500.03 3.49906L1500.76 3.13121C1500.86 3.07958 1500.97 3.05376 1501.07 3.05376C1501.34 3.05376 1501.48 3.26673 1501.48 3.69266L1501.44 5.26087C1501.44 5.50611 1501.45 5.73843 1501.48 5.95785L1501.73 7.85519L1501.92 9.61701C1501.95 9.77189 1501.96 9.90096 1501.96 10.0042C1501.96 10.5592 1501.8 10.8367 1501.48 10.8367C1501.24 10.8367 1501.08 10.5915 1500.97 10.101C1500.6 8.29403 1499.66 6.73228 1498.15 5.41576C1496.64 4.09924 1495.04 3.44098 1493.35 3.44098C1492.18 3.44098 1491.17 3.83464 1490.31 4.62197C1489.44 5.4093 1489.01 6.33861 1489.01 7.4099C1489.01 8.40374 1489.39 9.26206 1490.15 9.98486C1490.64 10.4495 1492.17 11.2046 1494.74 12.25C1497.8 13.502 1499.83 14.7282 1500.82 15.9286C1501.99 17.3742 1502.58 19.1166 1502.58 21.1559C1502.58 23.4018 1501.77 25.3572 1500.14 27.0222C1498.52 28.6872 1496.61 29.5197 1494.43 29.5197C1493.54 29.5197 1492.13 29.2164 1490.19 28.6098C1489.29 28.3129 1488.62 28.1193 1488.2 28.0289C1487.6 27.9128 1487.25 27.8031 1487.15 27.6998C1487.06 27.5836 1486.98 27.2481 1486.92 26.6931C1486.85 26.0864 1486.66 25.2087 1486.34 24.06C1485.85 22.3047 1485.6 21.1817 1485.6 20.6913C1485.6 20.0717 1485.8 19.762 1486.2 19.762C1486.38 19.762 1486.51 19.9168 1486.59 20.2266C1487.22 22.4466 1488.32 24.3117 1489.88 25.8218C1491.44 27.332 1493.06 28.087 1494.74 28.087C1496.04 28.087 1497.21 27.5901 1498.22 26.5963C1499.26 25.5895 1499.77 24.4408 1499.77 23.1501C1499.77 22.1304 1499.5 21.2914 1498.96 20.6332C1498.43 19.9749 1497.51 19.3554 1496.19 18.7746L1493.25 17.458C1490.47 16.219 1488.59 15.0509 1487.6 13.9538C1486.6 12.8438 1486.1 11.3724 1486.1 9.53957C1486.1 7.4099 1486.8 5.62872 1488.18 4.19604C1489.57 2.76336 1491.3 2.04701 1493.37 2.04701Z" fill="#142D6F"/>
<path d="M1521.71 12.8502V24.8538C1521.71 26.0929 1521.81 26.8608 1522.02 27.1577C1522.23 27.4417 1522.78 27.5836 1523.68 27.5836L1524.13 27.5643C1524.28 27.5643 1524.4 27.5772 1524.48 27.603C1524.7 27.6804 1524.81 27.8224 1524.81 28.0289C1524.81 28.4807 1524.37 28.7066 1523.49 28.7066H1522.56C1522.03 28.7066 1521.62 28.7195 1521.32 28.7453C1520.54 28.7969 1519.62 28.9518 1518.57 29.2099C1518.44 29.2487 1518.33 29.268 1518.22 29.268C1517.94 29.268 1517.8 29.0292 1517.8 28.5517C1517.8 28.2935 1517.81 28.0741 1517.84 27.8934C1517.86 27.6353 1517.88 27.4417 1517.88 27.3126C1517.88 26.9254 1517.79 26.7253 1517.62 26.7124C1517.56 26.7124 1517.46 26.7899 1517.32 26.9447L1516.62 27.6611C1515.43 28.9002 1514 29.5197 1512.34 29.5197C1510.43 29.5197 1508.99 28.9905 1508.02 27.9321C1507.05 26.8738 1506.57 25.3055 1506.57 23.2275C1506.57 20.4783 1506.62 18.097 1506.72 16.0834C1506.74 15.7221 1506.74 15.4123 1506.74 15.1541C1506.74 14.2765 1506.36 13.8054 1505.6 13.7408L1504.83 13.6827C1504.47 13.6569 1504.3 13.4827 1504.32 13.16C1504.34 12.9148 1504.53 12.7534 1504.9 12.676C1505.29 12.5856 1506.03 12.5405 1507.11 12.5405C1508.12 12.5405 1509.02 12.4114 1509.8 12.1532C1510.15 12.05 1510.42 11.9984 1510.62 11.9984C1510.84 11.9984 1510.95 12.1468 1510.95 12.4437C1510.95 12.7921 1510.93 13.1471 1510.91 13.5085C1510.79 14.8766 1510.73 17.2709 1510.73 20.6913C1510.73 23.3243 1510.97 25.0861 1511.45 25.9767C1511.93 26.8544 1512.88 27.2932 1514.31 27.2932C1515.44 27.2932 1516.3 26.9577 1516.91 26.2865C1517.52 25.6153 1517.82 24.6537 1517.82 23.4018V16.1803C1517.82 15.0832 1517.72 14.412 1517.51 14.1667C1517.32 13.9086 1516.75 13.7215 1515.82 13.6053C1515.42 13.5666 1515.22 13.4117 1515.22 13.1406C1515.22 12.7405 1515.61 12.5405 1516.39 12.5405C1518.63 12.5405 1520.19 12.3856 1521.05 12.0758C1521.22 12.0113 1521.35 11.979 1521.46 11.979C1521.64 11.9661 1521.73 12.0952 1521.73 12.3662L1521.71 12.8502Z" fill="#142D6F"/>
<path d="M1527.75 31.2428V18.0001L1527.79 17.187L1527.69 16.3351C1527.5 15.5994 1526.98 15.2122 1526.14 15.1735C1526 15.1735 1525.87 15.18 1525.74 15.1929L1525.56 15.2122C1525.31 15.1993 1525.18 15.0509 1525.18 14.7669C1525.18 14.4959 1525.31 14.3345 1525.56 14.2829L1526.47 14.1474C1528.13 13.8763 1529.37 13.4375 1530.21 12.8309C1530.84 12.3791 1531.22 12.1532 1531.33 12.1532C1531.51 12.1532 1531.62 12.2952 1531.64 12.5792L1531.66 13.1406V14.6895C1531.74 14.9605 1531.87 15.1025 1532.05 15.1154C1532.11 15.1154 1532.22 15.0573 1532.38 14.9412C1533.64 13.9602 1534.58 13.3278 1535.19 13.0438C1535.81 12.7599 1536.56 12.6179 1537.45 12.6179C1539.4 12.6179 1540.99 13.2955 1542.21 14.6508C1543.45 15.9931 1544.07 17.7291 1544.07 19.8588C1544.07 22.9436 1543.1 25.4217 1541.17 27.2932C1539.62 28.7905 1537.93 29.5391 1536.11 29.5391C1534.42 29.5391 1533.15 29.3326 1532.28 28.9195C1532.14 28.855 1532.02 28.8227 1531.93 28.8227C1531.74 28.8227 1531.64 29.0615 1531.64 29.5391V31.2428C1531.64 32.3915 1531.84 33.1982 1532.24 33.6629C1532.66 34.1275 1533.42 34.4244 1534.53 34.5535C1535.02 34.6051 1535.26 34.7793 1535.26 35.0762C1535.26 35.4892 1535.06 35.6828 1534.64 35.657C1534.44 35.6441 1534.2 35.6054 1533.95 35.5408C1532.93 35.2956 1532.06 35.173 1531.33 35.173C1530.87 35.173 1530.17 35.2053 1529.24 35.2698L1527.58 35.4053C1527.18 35.4311 1526.91 35.444 1526.76 35.444C1526.27 35.444 1526.03 35.2633 1526.03 34.9019C1526.03 34.6696 1526.2 34.4954 1526.53 34.3792C1527.06 34.1856 1527.4 33.9081 1527.54 33.5467C1527.68 33.1853 1527.75 32.4173 1527.75 31.2428ZM1531.64 17.2257V24.757C1531.64 25.596 1532.17 26.3833 1533.21 27.119C1534.27 27.8547 1535.41 28.2225 1536.62 28.2225C1537.9 28.2225 1538.92 27.7127 1539.68 26.6931C1540.44 25.6734 1540.82 24.3117 1540.82 22.608C1540.82 20.5299 1540.25 18.7746 1539.1 17.3419C1537.95 15.8963 1536.54 15.1735 1534.88 15.1735C1533.99 15.1735 1533.22 15.3736 1532.59 15.7737C1531.96 16.1738 1531.64 16.6578 1531.64 17.2257Z" fill="#142D6F"/>
<path d="M1547.98 31.2428V18.0001L1548.02 17.187L1547.93 16.3351C1547.73 15.5994 1547.22 15.2122 1546.38 15.1735C1546.23 15.1735 1546.1 15.18 1545.97 15.1929L1545.8 15.2122C1545.54 15.1993 1545.41 15.0509 1545.41 14.7669C1545.41 14.4959 1545.54 14.3345 1545.8 14.2829L1546.71 14.1474C1548.36 13.8763 1549.6 13.4375 1550.44 12.8309C1551.07 12.3791 1551.45 12.1532 1551.57 12.1532C1551.75 12.1532 1551.85 12.2952 1551.88 12.5792L1551.89 13.1406V14.6895C1551.97 14.9605 1552.1 15.1025 1552.28 15.1154C1552.35 15.1154 1552.46 15.0573 1552.61 14.9412C1553.88 13.9602 1554.81 13.3278 1555.42 13.0438C1556.04 12.7599 1556.79 12.6179 1557.68 12.6179C1559.63 12.6179 1561.22 13.2955 1562.45 14.6508C1563.69 15.9931 1564.3 17.7291 1564.3 19.8588C1564.3 22.9436 1563.34 25.4217 1561.4 27.2932C1559.85 28.7905 1558.17 29.5391 1556.35 29.5391C1554.66 29.5391 1553.38 29.3326 1552.51 28.9195C1552.37 28.855 1552.26 28.8227 1552.17 28.8227C1551.97 28.8227 1551.88 29.0615 1551.88 29.5391V31.2428C1551.88 32.3915 1552.08 33.1982 1552.48 33.6629C1552.89 34.1275 1553.65 34.4244 1554.76 34.5535C1555.25 34.6051 1555.5 34.7793 1555.5 35.0762C1555.5 35.4892 1555.29 35.6828 1554.88 35.657C1554.67 35.6441 1554.44 35.6054 1554.18 35.5408C1553.16 35.2956 1552.29 35.173 1551.57 35.173C1551.1 35.173 1550.4 35.2053 1549.47 35.2698L1547.81 35.4053C1547.41 35.4311 1547.14 35.444 1547 35.444C1546.51 35.444 1546.26 35.2633 1546.26 34.9019C1546.26 34.6696 1546.43 34.4954 1546.76 34.3792C1547.29 34.1856 1547.63 33.9081 1547.77 33.5467C1547.91 33.1853 1547.98 32.4173 1547.98 31.2428ZM1551.88 17.2257V24.757C1551.88 25.596 1552.4 26.3833 1553.44 27.119C1554.5 27.8547 1555.64 28.2225 1556.85 28.2225C1558.13 28.2225 1559.15 27.7127 1559.91 26.6931C1560.67 25.6734 1561.05 24.3117 1561.05 22.608C1561.05 20.5299 1560.48 18.7746 1559.33 17.3419C1558.18 15.8963 1556.77 15.1735 1555.11 15.1735C1554.22 15.1735 1553.46 15.3736 1552.82 15.7737C1552.19 16.1738 1551.88 16.6578 1551.88 17.2257Z" fill="#142D6F"/>
<path d="M1572.05 6.59675V23.7115L1572.07 24.3504C1572.07 25.6282 1572.25 26.5188 1572.61 27.0222C1572.97 27.5127 1573.68 27.8482 1574.74 28.0289C1575.08 28.0806 1575.27 28.1322 1575.32 28.1838C1575.39 28.2354 1575.42 28.3581 1575.42 28.5517C1575.42 28.8614 1575.29 29.0163 1575.03 29.0163C1574.89 29.0163 1574.66 28.997 1574.35 28.9582C1573.32 28.8163 1572.05 28.7453 1570.54 28.7453C1568.86 28.7453 1567.68 28.8098 1567 28.9389C1566.79 28.9776 1566.64 28.997 1566.55 28.997C1566.28 28.997 1566.14 28.8356 1566.14 28.513C1566.14 28.3452 1566.31 28.1967 1566.63 28.0677C1567.61 27.6675 1568.1 26.8221 1568.1 25.5314L1568.14 24.4085L1568.16 23.8858V8.26177C1568.16 6.59675 1568.02 5.46093 1567.73 4.8543C1567.46 4.24767 1566.95 3.94435 1566.2 3.94435C1565.83 3.94435 1565.64 3.77656 1565.64 3.44098C1565.64 3.24737 1565.71 3.1183 1565.85 3.05376C1566 2.97632 1566.38 2.87307 1567.02 2.744C1568.66 2.3955 1569.97 1.9244 1570.97 1.33067L1571.62 0.94346C1571.74 0.878924 1571.86 0.840203 1571.97 0.827296C1572.17 0.814389 1572.26 0.94346 1572.26 1.21451C1572.26 1.35649 1572.25 1.67916 1572.22 2.18254C1572.11 3.92499 1572.05 5.3964 1572.05 6.59675Z" fill="#142D6F"/>
<path d="M1580.14 2.89888C1580.41 2.89888 1580.9 3.33772 1581.6 4.2154L1582.41 5.26087C1582.6 5.50611 1582.71 5.73198 1582.72 5.93849C1582.73 6.24826 1582.38 6.83554 1581.65 7.70031C1580.93 8.56508 1580.43 8.99747 1580.16 8.99747C1579.98 8.99747 1579.81 8.92003 1579.64 8.76514L1578.73 7.66159L1577.88 6.69356C1577.66 6.42251 1577.55 6.20309 1577.55 6.0353C1577.55 5.77716 1577.93 5.18988 1578.69 4.27348C1579.45 3.35708 1579.94 2.89888 1580.14 2.89888ZM1582.23 13.4698V24.4472C1582.23 25.7637 1582.43 26.6801 1582.81 27.1964C1583.22 27.7127 1583.95 28.0031 1585.02 28.0677C1585.45 28.0935 1585.66 28.2419 1585.66 28.513C1585.66 28.8485 1585.15 29.0163 1584.13 29.0163C1584 29.0163 1583.72 28.997 1583.3 28.9582L1581.85 28.8034C1581.05 28.7259 1580.52 28.6872 1580.26 28.6872C1579.58 28.6872 1578.65 28.7775 1577.49 28.9582C1577.21 29.0099 1576.99 29.0357 1576.83 29.0357C1576.56 29.0357 1576.43 28.9131 1576.43 28.6678C1576.43 28.5 1576.51 28.371 1576.68 28.2806L1577.34 27.9515C1577.62 27.8095 1577.86 27.4739 1578.05 26.9447C1578.26 26.4156 1578.36 25.8605 1578.36 25.2797L1578.34 24.4666V17.9033C1578.34 16.8966 1578.23 16.1996 1578.01 15.8124C1577.81 15.4252 1577.43 15.2316 1576.87 15.2316H1576.43C1576.18 15.2316 1576.01 15.18 1575.92 15.0767C1575.88 15.0251 1575.86 14.9347 1575.86 14.8056C1575.86 14.483 1576.26 14.2377 1577.05 14.0699C1579.01 13.6569 1580.55 13.0309 1581.67 12.192C1581.81 12.1016 1581.92 12.0564 1582 12.0564C1582.18 12.0694 1582.27 12.192 1582.27 12.4243L1582.25 12.5985C1582.24 12.7147 1582.23 13.0051 1582.23 13.4698Z" fill="#142D6F"/>
<path d="M1593.68 12.5985C1595.68 12.5985 1597.4 13.3859 1598.85 14.9605C1600.06 16.29 1600.67 17.6194 1600.67 18.9488C1600.67 19.4522 1600.32 19.7039 1599.62 19.7039L1598.73 19.6652H1598.28L1593.44 19.7426L1591.53 19.762L1590.87 19.7426C1590.5 19.7426 1590.26 19.7878 1590.15 19.8781C1590.01 20.0072 1589.94 20.246 1589.94 20.5945C1589.94 22.2982 1590.5 23.8083 1591.61 25.1248C1592.73 26.4285 1594.02 27.0803 1595.48 27.0803C1597.12 27.0803 1598.43 26.6092 1599.41 25.6669L1600.03 25.0668C1600.13 24.9635 1600.24 24.9119 1600.36 24.9119C1600.64 24.9119 1600.78 25.0474 1600.78 25.3185C1600.78 25.6928 1600.29 26.3188 1599.29 27.1964C1597.54 28.7453 1595.65 29.5197 1593.64 29.5197C1591.41 29.5197 1589.59 28.7517 1588.18 27.2158C1586.77 25.6799 1586.07 23.6986 1586.07 21.2721C1586.07 18.923 1586.82 16.8901 1588.31 15.1735C1589.82 13.4569 1591.61 12.5985 1593.68 12.5985ZM1593.13 13.5666C1592.26 13.5666 1591.49 13.999 1590.83 14.8637C1590.17 15.7285 1589.84 16.7482 1589.84 17.9227C1589.84 18.297 1589.93 18.5229 1590.11 18.6003C1590.31 18.6778 1590.82 18.7165 1591.64 18.7165C1592.07 18.7165 1592.52 18.7036 1593 18.6778C1594.16 18.6261 1594.83 18.6003 1595.01 18.6003C1596.15 18.6003 1596.72 18.2518 1596.72 17.5549C1596.72 16.5094 1596.35 15.5865 1595.61 14.7863C1594.89 13.9731 1594.06 13.5666 1593.13 13.5666Z" fill="#142D6F"/>
<path d="M1608.33 12.6179C1609.21 12.6179 1610.17 12.7663 1611.22 13.0632C1611.75 13.2181 1612.03 13.4698 1612.07 13.8183L1612.11 14.6701L1612.21 15.8898L1612.24 16.5481C1612.27 16.6385 1612.28 16.7159 1612.28 16.7804C1612.28 17.0257 1612.15 17.1483 1611.88 17.1483C1611.67 17.1483 1611.33 16.7223 1610.87 15.8705C1609.95 14.2184 1608.8 13.3923 1607.4 13.3923C1606.71 13.3923 1606.11 13.6117 1605.6 14.0506C1605.1 14.4894 1604.85 15.0057 1604.85 15.5994C1604.85 16.6836 1605.6 17.5419 1607.11 18.1744L1608.45 18.7165C1609.59 19.1941 1610.36 19.5684 1610.77 19.8394C1611.19 20.0975 1611.58 20.4718 1611.95 20.9623C1612.59 21.8013 1612.9 22.8338 1612.9 24.06C1612.9 25.583 1612.39 26.8738 1611.37 27.9321C1610.35 28.9905 1609.11 29.5197 1607.64 29.5197C1606.84 29.5197 1605.86 29.3842 1604.71 29.1131L1603.38 28.784L1602.51 28.6485C1602.22 28.5968 1602.08 28.4161 1602.08 28.1064C1602.08 28.0031 1602.09 27.8418 1602.1 27.6224C1602.13 27.4029 1602.14 27.1513 1602.14 26.8673L1602.08 24.757L1602.06 23.8083C1602.06 23.5115 1602.09 23.3308 1602.14 23.2662C1602.2 23.1888 1602.36 23.1501 1602.6 23.1501C1602.81 23.1501 1602.95 23.3243 1603.03 23.6728C1603.18 24.4859 1603.61 25.4604 1604.31 26.5963C1605.15 27.9386 1606.25 28.6098 1607.62 28.6098C1608.39 28.6098 1609.04 28.371 1609.55 27.8934C1610.07 27.4029 1610.33 26.7899 1610.33 26.0542C1610.33 25.241 1610.08 24.5957 1609.57 24.1181C1609.08 23.6405 1608.14 23.1243 1606.75 22.5692C1605.08 21.9239 1603.93 21.2398 1603.28 20.517C1602.64 19.7813 1602.31 18.7939 1602.31 17.5549C1602.31 16.0447 1602.85 14.8444 1603.94 13.9538C1605.02 13.0632 1606.49 12.6179 1608.33 12.6179Z" fill="#142D6F"/>
<path fill-rule="evenodd" clip-rule="evenodd" d="M1688.53 9.30961H1693.75H1693.85V9.30853C1696.06 9.25805 1697.84 7.44902 1697.84 5.22478V0H1698.98V5.31978C1698.98 7.5233 1700.76 9.30961 1702.97 9.30961C1705.17 9.30961 1706.96 7.5233 1706.96 5.31978V0H1708.1V5.31978C1708.1 7.5233 1709.88 9.30961 1712.09 9.30961C1714.29 9.30961 1716.08 7.5233 1716.08 5.31978V0H1717.41V5.31978C1717.41 7.5233 1719.19 9.30961 1721.4 9.30961H1726.53V10.4496H1721.21C1719 10.4496 1717.22 12.2359 1717.22 14.4394C1717.22 16.6429 1719 18.4292 1721.21 18.4292H1726.53V19.5692H1721.21C1719 19.5692 1717.22 21.3555 1717.22 23.559C1717.22 25.7625 1719 27.5488 1721.21 27.5488H1726.53V28.6888H1721.4C1719.19 28.6888 1717.41 30.4751 1717.41 32.6786V32.8686V37.9984H1716.08V32.6786C1716.08 30.4751 1714.29 28.6888 1712.09 28.6888C1709.88 28.6888 1708.1 30.4751 1708.1 32.6786V37.9984H1706.96V32.6786C1706.96 30.4751 1705.17 28.6888 1702.97 28.6888C1700.76 28.6888 1698.98 30.4751 1698.98 32.6786V37.9984H1697.84V32.7736C1697.84 30.5494 1696.06 28.7403 1693.85 28.6899V28.6888H1693.75H1688.53V27.5488H1693.85C1696.05 27.5488 1697.84 25.7625 1697.84 23.559C1697.84 21.3555 1696.05 19.5692 1693.85 19.5692H1688.53V18.4292H1693.85C1696.05 18.4292 1697.84 16.6429 1697.84 14.4394C1697.84 12.2359 1696.05 10.4496 1693.85 10.4496H1688.53V9.30961ZM1702.97 18.4292C1705.17 18.4292 1706.96 16.6429 1706.96 14.4394C1706.96 12.2359 1705.17 10.4496 1702.97 10.4496C1700.76 10.4496 1698.98 12.2359 1698.98 14.4394C1698.98 16.6429 1700.76 18.4292 1702.97 18.4292ZM1712.09 18.4292C1714.29 18.4292 1716.08 16.6429 1716.08 14.4394C1716.08 12.2359 1714.29 10.4496 1712.09 10.4496C1709.88 10.4496 1708.1 12.2359 1708.1 14.4394C1708.1 16.6429 1709.88 18.4292 1712.09 18.4292ZM1706.96 23.559C1706.96 25.7625 1705.17 27.5488 1702.97 27.5488C1700.76 27.5488 1698.98 25.7625 1698.98 23.559C1698.98 21.3555 1700.76 19.5692 1702.97 19.5692C1705.17 19.5692 1706.96 21.3555 1706.96 23.559ZM1712.09 27.5488C1714.29 27.5488 1716.08 25.7625 1716.08 23.559C1716.08 21.3555 1714.29 19.5692 1712.09 19.5692C1709.88 19.5692 1708.1 21.3555 1708.1 23.559C1708.1 25.7625 1709.88 27.5488 1712.09 27.5488Z" fill="#142D6F"/>
<path d="M1742.39 30.1678C1739.75 30.1678 1737.44 29.7316 1735.45 28.8593C1733.5 27.9606 1731.89 26.6653 1730.62 24.9736L1734.3 21.9205C1735.44 23.2157 1736.67 24.1938 1737.99 24.8546C1739.31 25.5155 1740.87 25.8459 1742.67 25.8459C1744.23 25.8459 1745.51 25.5023 1746.52 24.815C1747.52 24.1013 1748.02 23.1629 1748.02 21.9998C1748.02 21.5768 1747.94 21.1936 1747.79 20.8499C1747.63 20.5063 1747.35 20.1759 1746.95 19.8587C1746.56 19.5415 1746.03 19.2243 1745.37 18.907C1744.71 18.5634 1743.89 18.1933 1742.91 17.7968C1741.85 17.3739 1740.89 16.9245 1740.01 16.4487C1739.14 15.9729 1738.39 15.4442 1737.75 14.8627C1737.12 14.2812 1736.63 13.6203 1736.29 12.8802C1735.94 12.14 1735.77 11.2942 1735.77 10.3425C1735.77 9.04729 1736.05 7.85777 1736.6 6.77399C1737.16 5.69021 1737.91 4.77825 1738.86 4.03811C1739.84 3.27153 1740.98 2.67677 1742.27 2.25383C1743.57 1.8309 1744.96 1.61943 1746.44 1.61943C1748.76 1.61943 1750.76 2.00271 1752.42 2.76929C1754.09 3.50943 1755.49 4.51391 1756.63 5.78273L1753.22 9.11337C1752.16 8.08246 1751.06 7.30267 1749.93 6.77399C1748.82 6.21889 1747.53 5.94133 1746.08 5.94133C1745.26 5.94133 1744.53 6.04707 1743.9 6.25853C1743.27 6.47 1742.72 6.74756 1742.27 7.0912C1741.85 7.4084 1741.52 7.79169 1741.28 8.24106C1741.05 8.664 1740.93 9.11337 1740.93 9.58918C1740.93 10.0386 1741.02 10.4351 1741.2 10.7787C1741.39 11.1223 1741.69 11.4528 1742.12 11.77C1742.54 12.0872 1743.09 12.4176 1743.78 12.7612C1744.47 13.0784 1745.31 13.4353 1746.32 13.8318C1747.38 14.2547 1748.33 14.7041 1749.17 15.1799C1750.05 15.6293 1750.77 16.1579 1751.35 16.7659C1751.96 17.3475 1752.42 18.0083 1752.74 18.7484C1753.06 19.4886 1753.22 20.3345 1753.22 21.2861C1753.22 22.6342 1752.93 23.8634 1752.35 24.9736C1751.76 26.0574 1750.98 26.9958 1750.01 27.7888C1749.03 28.5553 1747.88 29.1501 1746.56 29.573C1745.24 29.9695 1743.85 30.1678 1742.39 30.1678Z" fill="#142D6F"/>
<path d="M1766.85 26.1234C1767.8 26.1234 1768.72 25.8988 1769.62 25.4494C1770.55 25 1771.35 24.392 1772.04 23.6255C1772.75 22.8589 1773.32 21.9734 1773.75 20.9689C1774.17 19.9644 1774.38 18.907 1774.38 17.7968C1774.38 16.2372 1773.89 14.9684 1772.91 13.9904C1771.94 13.0123 1770.65 12.5233 1769.07 12.5233C1768.09 12.5233 1767.16 12.748 1766.29 13.1974C1765.42 13.6203 1764.65 14.2151 1763.99 14.9816C1763.33 15.7218 1762.8 16.6073 1762.41 17.6382C1762.04 18.6691 1761.85 19.7661 1761.85 20.9292C1761.85 22.5152 1762.3 23.7841 1763.2 24.7357C1764.12 25.6609 1765.34 26.1234 1766.85 26.1234ZM1771.72 26.9561C1770.8 27.9341 1769.79 28.7272 1768.71 29.3351C1767.63 29.9167 1766.4 30.2074 1765.02 30.2074C1763.86 30.2074 1762.78 30.0092 1761.77 29.6127C1760.79 29.1897 1759.93 28.595 1759.19 27.8284C1758.45 27.0354 1757.87 26.097 1757.45 25.0132C1757.05 23.903 1756.85 22.6474 1756.85 21.2464C1756.85 19.3961 1757.17 17.6911 1757.81 16.1315C1758.47 14.5455 1759.34 13.1842 1760.42 12.0475C1761.51 10.9109 1762.75 10.0253 1764.15 9.39093C1765.55 8.73008 1767.01 8.39966 1768.51 8.39966C1770.36 8.39966 1771.84 8.79617 1772.95 9.58918C1774.06 10.3558 1774.94 11.3338 1775.57 12.5233L1776.56 8.83582H1781.36L1773.67 37.7014H1768.87L1771.72 26.9561Z" fill="#142D6F"/>
<path d="M1789.09 30.2074C1787.13 30.2074 1785.57 29.6523 1784.41 28.5421C1783.27 27.4055 1782.71 25.8723 1782.71 23.9427C1782.71 23.3876 1782.77 22.7928 1782.9 22.1584C1783.04 21.4975 1783.18 20.8631 1783.34 20.2552L1786.39 8.83582H1791.19L1788.06 20.4534C1787.98 20.7706 1787.91 21.1275 1787.86 21.524C1787.81 21.9205 1787.78 22.2641 1787.78 22.5549C1787.78 23.6122 1788.08 24.4317 1788.69 25.0132C1789.33 25.5683 1790.23 25.8459 1791.39 25.8459C1792.74 25.8459 1793.93 25.3701 1794.96 24.4185C1795.99 23.4404 1796.72 22.1716 1797.14 20.612L1800.31 8.83582H1805.11L1799.52 29.7713H1794.72L1795.43 27.0751C1794.59 27.9209 1793.65 28.6611 1792.62 29.2955C1791.61 29.9035 1790.44 30.2074 1789.09 30.2074Z" fill="#142D6F"/>
<path d="M1813.28 26.6786C1814.02 26.6786 1814.74 26.5464 1815.42 26.282C1816.11 26.0177 1816.73 25.6609 1817.29 25.2115C1817.87 24.7357 1818.36 24.207 1818.75 23.6255C1819.18 23.0175 1819.47 22.3963 1819.63 21.7619L1819.86 20.8499C1819.2 20.6385 1818.48 20.4534 1817.68 20.2948C1816.89 20.1362 1816.03 20.0569 1815.11 20.0569C1813.49 20.0569 1812.23 20.4138 1811.3 21.1275C1810.4 21.8148 1809.95 22.7135 1809.95 23.8237C1809.95 24.7489 1810.24 25.4626 1810.82 25.9648C1811.43 26.4406 1812.25 26.6786 1813.28 26.6786ZM1811.42 30.2074C1810.52 30.2074 1809.67 30.0621 1808.88 29.7713C1808.11 29.507 1807.44 29.1369 1806.86 28.6611C1806.3 28.1588 1805.85 27.5509 1805.51 26.8372C1805.19 26.1234 1805.04 25.3304 1805.04 24.4581C1805.04 23.2422 1805.26 22.1716 1805.71 21.2464C1806.19 20.2948 1806.83 19.5018 1807.65 18.8674C1808.5 18.233 1809.49 17.7572 1810.63 17.44C1811.76 17.0963 1813.01 16.9245 1814.35 16.9245C1815.52 16.9245 1816.61 17.017 1817.64 17.2021C1818.7 17.3871 1819.69 17.6382 1820.62 17.9554L1820.74 17.5193C1820.82 17.2021 1820.87 16.9245 1820.9 16.6866C1820.95 16.4487 1820.97 16.1712 1820.97 15.854C1820.97 14.9288 1820.62 14.1886 1819.9 13.6335C1819.19 13.052 1818.03 12.7612 1816.41 12.7612C1815.36 12.7612 1814.34 12.867 1813.36 13.0784C1812.41 13.2899 1811.51 13.5674 1810.67 13.9111L1809.87 9.94603C1810.96 9.49666 1812.12 9.15302 1813.36 8.91512C1814.6 8.65078 1815.94 8.51862 1817.37 8.51862C1820.14 8.51862 1822.23 9.08694 1823.63 10.2236C1825.06 11.3602 1825.77 12.9595 1825.77 15.0213C1825.77 15.5235 1825.73 16.0126 1825.65 16.4884C1825.57 16.9642 1825.47 17.4664 1825.34 17.9951L1822.2 29.7713H1817.49L1818.2 27.0354C1817.27 28.0135 1816.27 28.7932 1815.19 29.3748C1814.1 29.9299 1812.85 30.2074 1811.42 30.2074Z" fill="#142D6F"/>
<path d="M1835.45 30.2471C1833.86 30.2471 1832.22 29.9431 1830.53 29.3351C1828.87 28.7007 1827.42 27.7491 1826.21 26.4803L1829.06 23.5462C1830.17 24.6564 1831.31 25.4229 1832.47 25.8459C1833.64 26.2688 1834.75 26.4803 1835.8 26.4803C1836.76 26.4803 1837.55 26.2556 1838.18 25.8062C1838.84 25.3569 1839.17 24.7489 1839.17 23.9823C1839.17 23.4536 1838.92 23.0043 1838.42 22.6342C1837.95 22.2377 1837.18 21.8148 1836.12 21.3654C1835.25 21.0217 1834.44 20.6649 1833.7 20.2948C1832.96 19.9247 1832.33 19.515 1831.8 19.0657C1831.27 18.5898 1830.85 18.0612 1830.53 17.4796C1830.24 16.8717 1830.09 16.1712 1830.09 15.3782C1830.09 14.4001 1830.28 13.4881 1830.65 12.6423C1831.05 11.7964 1831.6 11.0695 1832.32 10.4615C1833.03 9.82708 1833.89 9.33806 1834.89 8.99442C1835.9 8.62435 1837.03 8.43931 1838.3 8.43931C1839.97 8.43931 1841.5 8.7433 1842.9 9.35127C1844.33 9.93282 1845.48 10.6069 1846.35 11.3735L1843.69 14.4662C1841.77 12.933 1839.85 12.1665 1837.95 12.1665C1836.91 12.1665 1836.12 12.3911 1835.57 12.8405C1835.01 13.2899 1834.73 13.8582 1834.73 14.5455C1834.73 15.0742 1834.98 15.5368 1835.49 15.9333C1836.02 16.3298 1836.87 16.7791 1838.06 17.2814C1838.86 17.625 1839.6 17.9819 1840.28 18.3519C1841 18.722 1841.61 19.1317 1842.11 19.5811C1842.64 20.0305 1843.05 20.5459 1843.34 21.1275C1843.66 21.709 1843.81 22.3831 1843.81 23.1497C1843.81 24.2334 1843.6 25.2115 1843.18 26.0838C1842.76 26.9561 1842.16 27.7095 1841.4 28.3439C1840.65 28.9518 1839.77 29.4277 1838.74 29.7713C1837.73 30.0885 1836.64 30.2471 1835.45 30.2471Z" fill="#142D6F"/>
<path d="M1853.73 0.826416H1858.53L1855.67 11.5321C1856.52 10.6862 1857.44 9.95925 1858.45 9.35127C1859.48 8.71687 1860.67 8.39966 1862.02 8.39966C1863.97 8.39966 1865.52 8.96799 1866.65 10.1046C1867.82 11.2149 1868.4 12.7348 1868.4 14.6644C1868.4 15.2196 1868.33 15.8275 1868.2 16.4884C1868.07 17.1228 1867.92 17.744 1867.76 18.3519L1864.75 29.7713H1859.95L1863.05 18.1537C1863.15 17.8101 1863.23 17.4532 1863.28 17.0831C1863.34 16.6866 1863.36 16.343 1863.36 16.0522C1863.36 14.9949 1863.05 14.1886 1862.41 13.6335C1861.78 13.052 1860.88 12.7612 1859.72 12.7612C1858.37 12.7612 1857.18 13.2502 1856.15 14.2283C1855.12 15.1799 1854.39 16.4355 1853.97 17.9951L1850.79 29.7713H1846L1853.73 0.826416Z" fill="#142D6F"/>
<path d="M1887.2 17.7572C1887.33 17.4135 1887.4 16.9377 1887.4 16.3298C1887.4 15.246 1887.07 14.3076 1886.41 13.5146C1885.75 12.7216 1884.69 12.3251 1883.23 12.3251C1881.6 12.3251 1880.17 12.8405 1878.95 13.8714C1877.74 14.8759 1876.86 16.1712 1876.34 17.7572H1887.2ZM1875.82 21.0482C1875.85 22.6342 1876.31 23.9162 1877.21 24.8943C1878.13 25.8459 1879.48 26.3217 1881.25 26.3217C1882.26 26.3217 1883.17 26.1631 1883.99 25.8459C1884.83 25.5023 1885.71 24.9868 1886.61 24.2995L1888.9 27.3526C1887.9 28.1721 1886.75 28.8593 1885.46 29.4144C1884.16 29.9695 1882.6 30.2471 1880.78 30.2471C1879.32 30.2471 1878 30.0356 1876.81 29.6127C1875.65 29.1897 1874.66 28.5818 1873.84 27.7888C1873.02 26.9958 1872.38 26.0309 1871.93 24.8943C1871.49 23.7576 1871.26 22.4888 1871.26 21.0878C1871.26 19.5547 1871.55 18.0347 1872.13 16.528C1872.74 14.9949 1873.59 13.6335 1874.67 12.444C1875.78 11.2281 1877.09 10.25 1878.6 9.50988C1880.1 8.76973 1881.77 8.39966 1883.59 8.39966C1884.94 8.39966 1886.13 8.61113 1887.16 9.03407C1888.19 9.45701 1889.06 10.0386 1889.78 10.7787C1890.49 11.4924 1891.03 12.3515 1891.4 13.356C1891.77 14.334 1891.96 15.3914 1891.96 16.528C1891.96 17.2682 1891.88 18.0215 1891.72 18.7881C1891.56 19.5282 1891.34 20.2816 1891.05 21.0482H1875.82Z" fill="#142D6F"/>
<rect width="1920" height="40" fill="url(#paint0_linear_0_2366)"/>
</g>
<defs>
<linearGradient id="paint0_linear_0_2366" x1="0" y1="20" x2="1920" y2="20" gradientUnits="userSpaceOnUse">
<stop stop-color="white"/>
<stop offset="0.21" stop-color="white" stop-opacity="0"/>
<stop offset="0.705" stop-color="white" stop-opacity="0"/>
<stop offset="1" stop-color="white"/>
</linearGradient>
</defs>
</svg>
