<svg width="156" height="38" viewBox="0 0 156 38" fill="none" xmlns="http://www.w3.org/2000/svg">
<path d="M5.86604 30.1678C3.22268 30.1678 0.909731 29.7316 -1.07279 28.8593C-3.02889 27.9606 -4.64134 26.6653 -5.91016 24.9736L-2.22266 21.9205C-1.08601 23.2157 0.143155 24.1938 1.46484 24.8546C2.78652 25.5155 4.34611 25.8459 6.1436 25.8459C7.70318 25.8459 8.98522 25.5023 9.9897 24.815C10.9942 24.1013 11.4964 23.1629 11.4964 21.9998C11.4964 21.5768 11.4171 21.1936 11.2585 20.8499C11.0999 20.5063 10.8224 20.1759 10.4259 19.8587C10.0293 19.5415 9.50067 19.2243 8.83983 18.907C8.17899 18.5634 7.35955 18.1933 6.3815 17.7968C5.32415 17.3739 4.35933 16.9245 3.48701 16.4487C2.6147 15.9729 1.86134 15.4442 1.22693 14.8627C0.592527 14.2812 0.103504 13.6203 -0.240134 12.8802C-0.583771 12.14 -0.75559 11.2942 -0.75559 10.3425C-0.75559 9.04729 -0.478037 7.85777 0.0770702 6.77399C0.632177 5.69021 1.38554 4.77825 2.33715 4.03811C3.3152 3.27153 4.45184 2.67677 5.74709 2.25383C7.04234 1.8309 8.43011 1.61943 9.9104 1.61943C12.2366 1.61943 14.2323 2.00271 15.8976 2.76929C17.5629 3.50943 18.9639 4.51391 20.1006 5.78273L16.6906 9.11337C15.6333 8.08246 14.5363 7.30267 13.3996 6.77399C12.2894 6.21889 11.0074 5.94133 9.55354 5.94133C8.7341 5.94133 8.00717 6.04707 7.37276 6.25853C6.73836 6.47 6.19646 6.74756 5.74709 7.0912C5.32415 7.4084 4.99373 7.79169 4.75583 8.24106C4.51793 8.664 4.39898 9.11337 4.39898 9.58918C4.39898 10.0386 4.49149 10.4351 4.67653 10.7787C4.86156 11.1223 5.16555 11.4528 5.58849 11.77C6.01143 12.0872 6.56654 12.4176 7.25381 12.7612C7.94109 13.0784 8.78697 13.4353 9.79144 13.8318C10.8488 14.2547 11.8004 14.7041 12.6463 15.1799C13.5186 15.6293 14.2455 16.1579 14.8271 16.7659C15.435 17.3475 15.8976 18.0083 16.2148 18.7484C16.532 19.4886 16.6906 20.3345 16.6906 21.2861C16.6906 22.6342 16.3999 23.8634 15.8183 24.9736C15.2368 26.0574 14.457 26.9958 13.4789 27.7888C12.5009 28.5553 11.351 29.1501 10.0293 29.573C8.70766 29.9695 7.3199 30.1678 5.86604 30.1678Z" fill="#142D6F"/>
<path d="M30.3193 26.1234C31.2709 26.1234 32.196 25.8988 33.0948 25.4494C34.02 25 34.8262 24.392 35.5135 23.6255C36.2272 22.8589 36.7955 21.9734 37.2184 20.9689C37.6414 19.9644 37.8529 18.907 37.8529 17.7968C37.8529 16.2372 37.3638 14.9684 36.3858 13.9904C35.4077 13.0123 34.1257 12.5233 32.5397 12.5233C31.5616 12.5233 30.6365 12.748 29.7641 13.1974C28.8918 13.6203 28.1253 14.2151 27.4644 14.9816C26.8036 15.7218 26.2749 16.6073 25.8784 17.6382C25.5083 18.6691 25.3233 19.7661 25.3233 20.9292C25.3233 22.5152 25.7727 23.7841 26.6714 24.7357C27.5966 25.6609 28.8125 26.1234 30.3193 26.1234ZM35.1963 26.9561C34.2711 27.9341 33.2666 28.7272 32.1828 29.3351C31.099 29.9167 29.8699 30.2074 28.4953 30.2074C27.3322 30.2074 26.2485 30.0092 25.244 29.6127C24.2659 29.1897 23.4069 28.595 22.6667 27.8284C21.9266 27.0354 21.345 26.097 20.9221 25.0132C20.5256 23.903 20.3273 22.6474 20.3273 21.2464C20.3273 19.3961 20.6445 17.6911 21.2789 16.1315C21.9398 14.5455 22.8121 13.1842 23.8959 12.0475C24.9797 10.9109 26.222 10.0253 27.623 9.39093C29.024 8.73008 30.4779 8.39966 31.9846 8.39966C33.8349 8.39966 35.3152 8.79617 36.4254 9.58918C37.5356 10.3558 38.408 11.3338 39.0424 12.5233L40.0336 8.83582H44.8313L37.1391 37.7014H32.3414L35.1963 26.9561Z" fill="#142D6F"/>
<path d="M52.562 30.2074C50.6059 30.2074 49.0463 29.6523 47.8832 28.5421C46.7465 27.4055 46.1782 25.8723 46.1782 23.9427C46.1782 23.3876 46.2443 22.7928 46.3765 22.1584C46.5086 21.4975 46.654 20.8631 46.8126 20.2552L49.8657 8.83582H54.6634L51.531 20.4534C51.4517 20.7706 51.3857 21.1275 51.3328 21.524C51.2799 21.9205 51.2535 22.2641 51.2535 22.5549C51.2535 23.6122 51.5575 24.4317 52.1654 25.0132C52.7999 25.5683 53.6986 25.8459 54.8617 25.8459C56.2098 25.8459 57.3993 25.3701 58.4302 24.4185C59.4611 23.4404 60.1881 22.1716 60.611 20.612L63.783 8.83582H68.5808L62.99 29.7713H58.1923L58.906 27.0751C58.0602 27.9209 57.1218 28.6611 56.0908 29.2955C55.0864 29.9035 53.9101 30.2074 52.562 30.2074Z" fill="#142D6F"/>
<path d="M76.7553 26.6786C77.4954 26.6786 78.2091 26.5464 78.8964 26.282C79.5837 26.0177 80.2049 25.6609 80.76 25.2115C81.3415 24.7357 81.8305 24.207 82.227 23.6255C82.65 23.0175 82.9407 22.3963 83.0993 21.7619L83.3372 20.8499C82.6764 20.6385 81.9495 20.4534 81.1565 20.2948C80.3635 20.1362 79.5044 20.0569 78.5792 20.0569C76.9667 20.0569 75.6979 20.4138 74.7727 21.1275C73.874 21.8148 73.4246 22.7135 73.4246 23.8237C73.4246 24.7489 73.7154 25.4626 74.2969 25.9648C74.9049 26.4406 75.7243 26.6786 76.7553 26.6786ZM74.8917 30.2074C73.9929 30.2074 73.1471 30.0621 72.3541 29.7713C71.5875 29.507 70.9134 29.1369 70.3319 28.6611C69.7768 28.1588 69.3274 27.5509 68.9838 26.8372C68.6666 26.1234 68.508 25.3304 68.508 24.4581C68.508 23.2422 68.7326 22.1716 69.182 21.2464C69.6578 20.2948 70.3055 19.5018 71.1249 18.8674C71.9708 18.233 72.962 17.7572 74.0987 17.44C75.2353 17.0963 76.4777 16.9245 77.8258 16.9245C78.9889 16.9245 80.0859 17.017 81.1168 17.2021C82.1742 17.3871 83.1654 17.6382 84.0906 17.9554L84.2096 17.5193C84.2889 17.2021 84.3417 16.9245 84.3682 16.6866C84.421 16.4487 84.4475 16.1712 84.4475 15.854C84.4475 14.9288 84.0906 14.1886 83.3769 13.6335C82.6632 13.052 81.5001 12.7612 79.8876 12.7612C78.8303 12.7612 77.8126 12.867 76.8346 13.0784C75.8829 13.2899 74.9842 13.5674 74.1383 13.9111L73.3453 9.94603C74.4291 9.49666 75.5922 9.15302 76.8346 8.91512C78.0769 8.65078 79.4118 8.51862 80.8393 8.51862C83.6148 8.51862 85.7031 9.08694 87.104 10.2236C88.5315 11.3602 89.2452 12.9595 89.2452 15.0213C89.2452 15.5235 89.2055 16.0126 89.1262 16.4884C89.0469 16.9642 88.9412 17.4664 88.809 17.9951L85.6766 29.7713H80.9582L81.6719 27.0354C80.7467 28.0135 79.7423 28.7932 78.6585 29.3748C77.5747 29.9299 76.3191 30.2074 74.8917 30.2074Z" fill="#142D6F"/>
<path d="M98.9202 30.2471C97.3342 30.2471 95.6953 29.9431 94.0035 29.3351C92.3382 28.7007 90.8976 27.7491 89.6816 26.4803L92.5365 23.5462C93.6467 24.6564 94.7833 25.4229 95.9464 25.8459C97.1095 26.2688 98.2197 26.4803 99.2771 26.4803C100.229 26.4803 101.022 26.2556 101.656 25.8062C102.317 25.3569 102.647 24.7489 102.647 23.9823C102.647 23.4536 102.396 23.0043 101.894 22.6342C101.418 22.2377 100.652 21.8148 99.5943 21.3654C98.722 21.0217 97.9157 20.6649 97.1756 20.2948C96.4354 19.9247 95.801 19.515 95.2724 19.0657C94.7437 18.5898 94.3207 18.0612 94.0035 17.4796C93.7128 16.8717 93.5674 16.1712 93.5674 15.3782C93.5674 14.4001 93.7524 13.4881 94.1225 12.6423C94.519 11.7964 95.0741 11.0695 95.7878 10.4615C96.5015 9.82708 97.3606 9.33806 98.3651 8.99442C99.3696 8.62435 100.506 8.43931 101.775 8.43931C103.44 8.43931 104.974 8.7433 106.375 9.35127C107.802 9.93282 108.952 10.6069 109.824 11.3735L107.168 14.4662C105.238 12.933 103.321 12.1665 101.418 12.1665C100.387 12.1665 99.5943 12.3911 99.0392 12.8405C98.4841 13.2899 98.2065 13.8582 98.2065 14.5455C98.2065 15.0742 98.4576 15.5368 98.9599 15.9333C99.4885 16.3298 100.348 16.7791 101.537 17.2814C102.33 17.625 103.07 17.9819 103.758 18.3519C104.471 18.722 105.079 19.1317 105.581 19.5811C106.11 20.0305 106.52 20.5459 106.811 21.1275C107.128 21.709 107.286 22.3831 107.286 23.1497C107.286 24.2334 107.075 25.2115 106.652 26.0838C106.229 26.9561 105.634 27.7095 104.868 28.3439C104.128 28.9518 103.242 29.4277 102.211 29.7713C101.207 30.0885 100.11 30.2471 98.9202 30.2471Z" fill="#142D6F"/>
<path d="M117.201 0.826416H121.999L119.144 11.5321C119.99 10.6862 120.915 9.95925 121.919 9.35127C122.95 8.71687 124.14 8.39966 125.488 8.39966C127.444 8.39966 128.99 8.96799 130.127 10.1046C131.29 11.2149 131.872 12.7348 131.872 14.6644C131.872 15.2196 131.806 15.8275 131.673 16.4884C131.541 17.1228 131.396 17.744 131.237 18.3519L128.224 29.7713H123.426L126.519 18.1537C126.625 17.8101 126.704 17.4532 126.757 17.0831C126.81 16.6866 126.836 16.343 126.836 16.0522C126.836 14.9949 126.519 14.1886 125.884 13.6335C125.25 13.052 124.351 12.7612 123.188 12.7612C121.84 12.7612 120.651 13.2502 119.62 14.2283C118.589 15.1799 117.862 16.4355 117.439 17.9951L114.267 29.7713H109.469L117.201 0.826416Z" fill="#142D6F"/>
<path d="M150.672 17.7572C150.805 17.4135 150.871 16.9377 150.871 16.3298C150.871 15.246 150.54 14.3076 149.879 13.5146C149.219 12.7216 148.161 12.3251 146.707 12.3251C145.069 12.3251 143.641 12.8405 142.425 13.8714C141.209 14.8759 140.337 16.1712 139.808 17.7572H150.672ZM139.293 21.0482C139.319 22.6342 139.782 23.9162 140.681 24.8943C141.606 25.8459 142.954 26.3217 144.725 26.3217C145.729 26.3217 146.641 26.1631 147.461 25.8459C148.307 25.5023 149.179 24.9868 150.078 24.2995L152.377 27.3526C151.373 28.1721 150.223 28.8593 148.928 29.4144C147.633 29.9695 146.073 30.2471 144.249 30.2471C142.795 30.2471 141.474 30.0356 140.284 29.6127C139.121 29.1897 138.13 28.5818 137.31 27.7888C136.491 26.9958 135.856 26.0309 135.407 24.8943C134.958 23.7576 134.733 22.4888 134.733 21.0878C134.733 19.5547 135.024 18.0347 135.605 16.528C136.213 14.9949 137.059 13.6335 138.143 12.444C139.253 11.2281 140.562 10.25 142.068 9.50988C143.575 8.76973 145.24 8.39966 147.064 8.39966C148.412 8.39966 149.602 8.61113 150.633 9.03407C151.664 9.45701 152.536 10.0386 153.25 10.7787C153.963 11.4924 154.505 12.3515 154.875 13.356C155.246 14.334 155.431 15.3914 155.431 16.528C155.431 17.2682 155.351 18.0215 155.193 18.7881C155.034 19.5282 154.809 20.2816 154.519 21.0482H139.293Z" fill="#142D6F"/>
</svg>
